<svg xmlns="http://www.w3.org/2000/svg" viewBox="0 0 210 210" height="210mm" width="210mm"><path style="opacity:.997418;fill:#ddc89f;fill-opacity:1;stroke:none;stroke-width:6.00001;stroke-linecap:round;stroke-linejoin:round;stroke-miterlimit:4;stroke-dasharray:none;paint-order:stroke markers fill" d="m109.925 179.052 28.614.378 5.346-13.728-.247-12.066-33.995 17.471-1.38 2.91z" transform="matrix(1.17708 0 0 1.17708 -18.593 -70.107)"/><path style="opacity:.99702;fill:#e0ca9f;fill-opacity:1;stroke:none;stroke-width:6.00001;stroke-linecap:round;stroke-linejoin:round;stroke-miterlimit:4;stroke-dasharray:none;paint-order:stroke markers fill" d="m109.891 186.99 1.97 14.198 26.163-6.845.515-14.913-28.614-.378z" transform="matrix(1.17708 0 0 1.17708 -18.593 -70.107)"/><path style="opacity:.998384;fill:#d8c090;fill-opacity:1;stroke:none;stroke-width:6.00001;stroke-linecap:round;stroke-linejoin:round;stroke-miterlimit:4;stroke-dasharray:none;paint-order:stroke markers fill" d="m159.354 208.6-5.95-1.203-15.38-13.054-26.164 6.845-1.969-14.197-28.78-1.703-4.97 14.351L53.1 185.711l-10.031 2.056 9.009 24.764 5.534 15.211h94.779z" transform="matrix(1.17708 0 0 1.17708 -18.593 -70.107)"/><path style="opacity:.998218;fill:#d8c297;fill-opacity:1;stroke:none;stroke-width:6.00001;stroke-linecap:round;stroke-linejoin:round;stroke-miterlimit:4;stroke-dasharray:none;paint-order:stroke markers fill" d="m166.826 188.06-22.94-22.358-5.347 13.728-.515 14.913 15.38 13.054 5.95 1.203z" transform="matrix(1.17708 0 0 1.17708 -18.593 -70.107)"/><path style="opacity:.994852;fill:#f1dfc8;fill-opacity:1;stroke:none;stroke-width:6.00001;stroke-linecap:round;stroke-linejoin:round;stroke-miterlimit:4;stroke-dasharray:none;paint-order:stroke markers fill" d="m151.684 151.76 21.762 18.106 6.587-18.106z" transform="matrix(1.17708 0 0 1.17708 -18.593 -70.107)"/><path style="opacity:.99629;fill:#e3cfa6;fill-opacity:1;stroke:none;stroke-width:6.00001;stroke-linecap:round;stroke-linejoin:round;stroke-miterlimit:4;stroke-dasharray:none;paint-order:stroke markers fill" d="m144.286 151.76-.648 1.876.247 12.066 22.941 22.358 6.62-18.194-21.762-18.106z" transform="matrix(1.17708 0 0 1.17708 -18.593 -70.107)"/><path style="opacity:.997556;fill:#dbc59a;fill-opacity:1;stroke:none;stroke-width:6.00001;stroke-linecap:round;stroke-linejoin:round;stroke-miterlimit:4;stroke-dasharray:none;paint-order:stroke markers fill" d="m104.811 151.76 4.832 19.347 33.995-17.471.648-1.876H105z" transform="matrix(1.17708 0 0 1.17708 -18.593 -70.107)"/><path style="opacity:.998201;fill:#d8c297;fill-opacity:1;stroke:none;stroke-width:6.00001;stroke-linecap:round;stroke-linejoin:round;stroke-miterlimit:4;stroke-dasharray:none;paint-order:stroke markers fill" d="m97.465 172.89 10.797 1.127 1.381-2.91-4.832-19.347H80.054Z" transform="matrix(1.17708 0 0 1.17708 -18.593 -70.107)"/><path style="opacity:.998322;fill:#d8c191;fill-opacity:1;stroke:none;stroke-width:6.00001;stroke-linecap:round;stroke-linejoin:round;stroke-miterlimit:4;stroke-dasharray:none;paint-order:stroke markers fill" d="m81.355 183.982-.245 1.306 28.781 1.703.034-7.94-1.663-5.034-10.797-1.127z" transform="matrix(1.17708 0 0 1.17708 -18.593 -70.107)"/><path style="opacity:.997566;fill:#d6b379;fill-opacity:1;stroke:none;stroke-width:6.00001;stroke-linecap:round;stroke-linejoin:round;stroke-miterlimit:4;stroke-dasharray:none;paint-order:stroke markers fill" d="m67.358 152.676-14.26 33.035 23.044 13.928 4.968-14.35.245-1.307z" transform="matrix(1.17708 0 0 1.17708 -18.593 -70.107)"/><path style="opacity:.996551;fill:#e0c295;fill-opacity:1;stroke:none;stroke-width:6.00001;stroke-linecap:round;stroke-linejoin:round;stroke-miterlimit:4;stroke-dasharray:none;paint-order:stroke markers fill" d="M67.38 151.76H29.966l13.1 36.007 10.032-2.056 14.26-33.035z" transform="matrix(1.17708 0 0 1.17708 -18.593 -70.107)"/><path style="opacity:.9988;fill:#d8ad7c;fill-opacity:1;stroke:none;stroke-width:6.00001;stroke-linecap:round;stroke-linejoin:round;stroke-miterlimit:4;stroke-dasharray:none;paint-order:stroke markers fill" d="m67.38 151.76-.022.916 13.997 31.306 16.11-11.092-17.411-21.13z" transform="matrix(1.17708 0 0 1.17708 -18.593 -70.107)"/><path style="opacity:.998063;fill:#84c75d;fill-opacity:1;stroke:none;stroke-width:6.00001;stroke-linecap:round;stroke-linejoin:round;stroke-miterlimit:4;stroke-dasharray:none;paint-order:stroke markers fill" d="m86.397 120.183-4.214-14.678-17.475 21.344Z" transform="matrix(1.17708 0 0 1.17708 -18.593 -70.107)"/><path style="opacity:.99663;fill:#98d68d;fill-opacity:1;stroke:none;stroke-width:6.00001;stroke-linecap:round;stroke-linejoin:round;stroke-miterlimit:4;stroke-dasharray:none;paint-order:stroke markers fill" d="m114.613 111.383 15.291 20.97 13.669-6.801-17.83-23.631z" transform="matrix(1.17708 0 0 1.17708 -18.593 -70.107)"/><path style="opacity:.996344;fill:#96d89b;fill-opacity:1;stroke:none;stroke-width:6.00001;stroke-linecap:round;stroke-linejoin:round;stroke-miterlimit:4;stroke-dasharray:none;paint-order:stroke markers fill" d="m105.958 111.384-6.786 23.55 26.618 1.21 4.114-3.79-15.29-20.971z" transform="matrix(1.17708 0 0 1.17708 -18.593 -70.107)"/><path style="opacity:.997834;fill:#7cc965;fill-opacity:1;stroke:none;stroke-width:6.00001;stroke-linecap:round;stroke-linejoin:round;stroke-miterlimit:4;stroke-dasharray:none;paint-order:stroke markers fill" d="m82.382 95.656-.2 9.85 4.215 14.677 11.292 15.479 1.483-.728 6.786-23.55-11.537-19.087z" transform="matrix(1.17708 0 0 1.17708 -18.593 -70.107)"/><path style="opacity:.997853;fill:#7fca65;fill-opacity:1;stroke:none;stroke-width:6.00001;stroke-linecap:round;stroke-linejoin:round;stroke-miterlimit:4;stroke-dasharray:none;paint-order:stroke markers fill" d="m55 133.969 9.708-7.12 17.475-21.344.199-9.849-17.407-5.836A50 50 0 0 0 55 119.787z" transform="matrix(1.17708 0 0 1.17708 -18.593 -70.107)"/><path style="opacity:.998462;fill:#7ec549;fill-opacity:1;stroke:none;stroke-width:6.00001;stroke-linecap:round;stroke-linejoin:round;stroke-miterlimit:4;stroke-dasharray:none;paint-order:stroke markers fill" d="m85.8 151.953 11.889-16.291-11.292-15.48-21.689 6.667L55 133.97v17.984z" transform="matrix(1.17708 0 0 1.17708 -18.593 -70.107)"/><path style="opacity:.997678;fill:#97c270;fill-opacity:1;stroke:none;stroke-width:6.00001;stroke-linecap:round;stroke-linejoin:round;stroke-miterlimit:4;stroke-dasharray:none;paint-order:stroke markers fill" d="m126.835 151.953-1.045-15.809-26.618-1.21-1.483.728L85.8 151.953H105z" transform="matrix(1.17708 0 0 1.17708 -18.593 -70.107)"/><path style="opacity:.997175;fill:#abc675;fill-opacity:1;stroke:none;stroke-width:6.00001;stroke-linecap:round;stroke-linejoin:round;stroke-miterlimit:4;stroke-dasharray:none;paint-order:stroke markers fill" d="m154.97 124.737-11.397.815-13.669 6.801-4.114 3.791 1.045 15.809h27.97z" transform="matrix(1.17708 0 0 1.17708 -18.593 -70.107)"/><path style="opacity:.995597;fill:#cae6a9;fill-opacity:1;stroke:none;stroke-width:6.00001;stroke-linecap:round;stroke-linejoin:round;stroke-miterlimit:4;stroke-dasharray:none;paint-order:stroke markers fill" d="m125.464 74.167.28 27.754 17.829 23.631 11.397-.815.026-4.328v-.01a50 50 0 0 0 .004-.612 50 50 0 0 0-29.536-45.62z" transform="matrix(1.17708 0 0 1.17708 -18.593 -70.107)"/><path style="opacity:.996626;fill:#abd784;fill-opacity:1;stroke:none;stroke-width:6.00001;stroke-linecap:round;stroke-linejoin:round;stroke-miterlimit:4;stroke-dasharray:none;paint-order:stroke markers fill" d="M114.94 70.785 94.42 92.297l11.538 19.087 8.655-.001 11.13-9.462-.279-27.754a50 50 0 0 0-10.524-3.382z" transform="matrix(1.17708 0 0 1.17708 -18.593 -70.107)"/><path style="opacity:.996945;fill:#95d27c;fill-opacity:1;stroke:none;stroke-width:6.00001;stroke-linecap:round;stroke-linejoin:round;stroke-miterlimit:4;stroke-dasharray:none;paint-order:stroke markers fill" d="M105 69.787A50 50 0 0 0 64.975 89.82l17.407 5.836 12.039-3.359 20.52-21.512a50 50 0 0 0-9.94-.998z" transform="matrix(1.17708 0 0 1.17708 -18.593 -70.107)"/></svg>