<svg xmlns="http://www.w3.org/2000/svg" width="134.555" height="141.731" xml:space="preserve"><path style="fill:#910001;fill-opacity:1" d="m37.36 107.382-.002-.005c.002.005.002.005.006.005V33.625c-.003.001 0-.004-.003.001l.003-.005s-2.044 1.773-12.727-8.268a4.749 4.749 0 1 0-2.629 2.557c8.379 9.957 5.838 15.964 5.051 17.338 0 0 .019-.033-.194.311v49.89s.352.561.195.313c.789 1.382 3.309 7.389-5.058 17.335a4.72 4.72 0 0 0-1.735-.332 4.749 4.749 0 1 0 4.37 2.891c10.683-10.044 12.723-8.274 12.723-8.274zm-14.147-19.15V52.775l.003-.006-13.724-4.956A4.746 4.746 0 0 0 0 47.919a4.749 4.749 0 0 0 8.152 3.309c10.847 5.419 11.784 13.425 11.727 16.396l.001-.011c-.058.956-.09 1.919-.09 2.89 0 1.118.04 2.226.116 3.323-.058 3.242-1.396 10.682-11.566 15.844a4.735 4.735 0 0 0-3.304-1.341 4.749 4.749 0 1 0 4.749 4.75l13.428-4.847c0-.001 0-.001 0 0zm22.696-76.015A4.727 4.727 0 0 0 47.43 8.74a4.749 4.749 0 1 0-9.497 0 4.747 4.747 0 0 0 4.619 4.742c3.955 12.743-.613 16.794-1.589 17.488.079-.053.162-.104.242-.156-.139.092-.28.18-.418.272v78.833c.108.073.221.143.33.215l-.215-.139c.783.553 5.148 4.317.88 17.181a4.749 4.749 0 1 0 4.8 4.746c0-1.347-.563-2.56-1.463-3.424 5.667-13.45 6.16-13.272 6.16-13.272l-.001-.002.007.002V25.78l.021-.008z"/><path d="M65.324 132.558V23.061a48.278 48.278 0 0 0-3.424.262v109.235a4.748 4.748 0 0 0-3.037 4.426 4.749 4.749 0 0 0 9.498 0 4.745 4.745 0 0 0-3.037-4.426zm-10.5-16.222c1.125.305 2.267.569 3.423.792V23.879a46.853 46.853 0 0 0-3.423.792zM129.802 88.339a4.73 4.73 0 0 0-3.427 1.467c-10.676-5.252-11.741-13.174-11.71-16.309.062-.99.097-1.987.097-2.994 0-1.131-.041-2.254-.119-3.365.057-3.238 1.4-10.732 11.761-15.899a4.726 4.726 0 0 0 3.402 1.44 4.749 4.749 0 1 0 0-9.498 4.744 4.744 0 0 0-4.743 4.642l-13.724 4.954.001.002-.002-.004v35.458l-.002.006 13.723 4.956a4.747 4.747 0 0 0 9.492-.106 4.75 4.75 0 0 0-4.749-4.75zm-25.54 11.943a47.704 47.704 0 0 0 3.425-4.834v-49.89a47.592 47.592 0 0 0-3.425-4.834z" style="font-variation-settings:normal;opacity:1;vector-effect:none;fill:#368647;fill-opacity:1;stroke-width:1;stroke-linecap:butt;stroke-linejoin:miter;stroke-miterlimit:4;stroke-dasharray:none;stroke-dashoffset:0;stroke-opacity:1;stop-color:#000;stop-opacity:1"/><path d="M111.842 115.085c-.599 0-1.169.115-1.696.317l-9.789-10.836.002-.002V36.442l9.789-10.836a4.729 4.729 0 0 0 1.696.318 4.749 4.749 0 1 0-4.748-4.749c0 .698.154 1.359.425 1.957-9.429 8.737-15.706 6.577-17.274 5.804.102.057.201.117.302.175-.229-.13-.456-.264-.688-.39v83.563c.237-.129.469-.266.704-.397-.106.06-.211.123-.317.183 1.568-.773 7.844-2.932 17.272 5.806a4.727 4.727 0 0 0-.426 1.957 4.749 4.749 0 1 0 4.748-4.748zm-25.407 13.109V27.045c.031.015-.36-.162 4.821-13.803a4.748 4.748 0 0 0-.014-9.497 4.749 4.749 0 0 0-4.749 4.749c0 1.393.603 2.641 1.558 3.509l-5.261 13.61-.006-.003v102.584a4.749 4.749 0 1 0 3.651 0zM79.239 24.538c-.852-.249-5.886-2.271-6.809-15.419a4.749 4.749 0 1 0-6.606-4.371 4.747 4.747 0 0 0 3.036 4.426V117.96a47.55 47.55 0 0 0 10.501-1.524V24.571a12.45 12.45 0 0 1-.122-.033Z" style="font-variation-settings:normal;opacity:1;vector-effect:none;fill:#1c4381;fill-opacity:1;stroke-width:1;stroke-linecap:butt;stroke-linejoin:miter;stroke-miterlimit:4;stroke-dasharray:none;stroke-dashoffset:0;stroke-opacity:1;stop-color:#000;stop-opacity:1"/></svg>