<svg xmlns="http://www.w3.org/2000/svg" width="291" height="79.46"><path style="fill:#fff;fill-opacity:1;fill-rule:nonzero;stroke:none;stroke-width:1.01883" d="M219.482 1.783c-3.092 0-5.597 2.445-5.597 5.461v65.324c0 3.017 2.505 5.463 5.597 5.463h64.57c3.094 0 5.6-2.446 5.6-5.463V7.244c0-3.016-2.507-5.46-5.6-5.46h-64.57zm11.723 12.799c3.914 0 6.324 2.57 6.399 5.95 0 3.303-2.484 5.947-6.475 5.947h-.074c-3.84 0-6.325-2.644-6.325-5.948 0-3.378 2.56-5.949 6.475-5.949zm-187.435.041c-3.916 0-6.475 2.57-6.475 5.947 0 3.306 2.483 5.951 6.324 5.951h.074c3.991 0 6.475-2.645 6.475-5.95-.074-3.378-2.484-5.948-6.398-5.948zM1.787 15.664V65.65h31.62V55.27H13.228V15.664H1.787zm92.574 0V65.65h11.446V54.488l2.859-3.6 8.959 14.762h14.078l-15.057-21.37 13.176-14.542h-13.777s-9.41 13.01-10.238 14.553V15.664H94.36zm96.57 0V32.97h-.15c-1.657-2.422-5.12-4.04-9.713-4.04-8.808 0-16.562 7.05-16.488 19.094 0 11.165 7.002 18.436 15.734 18.436 4.744 0 9.262-2.057 11.52-6.023h.227l.45 5.214h10.165c-.151-2.423-.303-6.608-.303-10.72V15.664h-11.441zm-44.66 13.191c-12.723 0-18.595 10.063-18.595 19.19 0 11.289 7.152 18.34 19.65 18.34 4.969 0 9.56-.733 13.326-2.276l-1.507-7.558c-3.087 1.024-6.248 1.535-10.163 1.535-5.345 0-10.013-2.193-10.39-6.87l23.715.071c.15-.885.377-2.58.377-4.496 0-8.9-4.518-17.936-16.413-17.936zm118.67 1.516c7.53 0 13.176 4.923 13.176 15.498v19.74h-11.443V47.191c0-4.628-1.655-7.787-5.797-7.787-3.161 0-5.046 2.13-5.873 4.186-.303.735-.377 1.764-.377 2.793v19.226h-11.443s.15-31.199 0-34.43h11.445v4.882c1.52-2.347 4.233-5.69 10.312-5.69zm-188.455.041c-6.08 0-8.795 3.343-10.314 5.69v.113h-.076c.023-.036.052-.077.076-.113V31.22H54.729c.15 3.23 0 34.43 0 34.43h11.443V46.423c0-1.03.074-2.058.377-2.793.826-2.055 2.711-4.184 5.873-4.184 4.141 0 5.797 3.158 5.797 7.783v18.42h11.443V45.908c0-10.575-5.647-15.496-13.176-15.496zm148.922.768h11.444v34.43h-11.444V31.18zm-187.437.04v34.43h11.443V31.22H37.971zm107.699 5.055c5.193 0 6.398 4.628 6.398 7.272h-13.55c.3-2.938 2.257-7.272 7.152-7.272zm38.41 1.248c3.538 0 6.023 2.423 6.701 5.434.15.662.15 1.396.15 2.057v4.7c0 .881-.075 1.763-.226 2.497-.676 3.158-3.387 5.361-6.7 5.361-4.743 0-7.83-3.82-7.83-9.842 0-5.654 2.636-10.207 7.905-10.207z"/></svg>