<svg xmlns="http://www.w3.org/2000/svg" width="80" height="80"><path style="fill:#fff;fill-opacity:1;fill-rule:nonzero;stroke:none;stroke-width:1.01883" d="M208.268 395.838c-3.093 0-5.6 2.447-5.6 5.463v65.324c0 3.017 2.507 5.461 5.6 5.461h64.568c3.092 0 5.6-2.444 5.6-5.46V401.3c0-3.016-2.508-5.463-5.6-5.463zm11.722 12.8c3.916 0 6.324 2.57 6.399 5.948 0 3.304-2.484 5.95-6.475 5.95h-.074c-3.84 0-6.324-2.646-6.324-5.95 0-3.378 2.56-5.949 6.474-5.949zm33.737 15.79c7.529 0 13.174 4.92 13.174 15.496v19.742h-11.444v-18.42c0-4.628-1.656-7.785-5.797-7.785-3.161 0-5.043 2.13-5.87 4.186-.303.735-.378 1.762-.378 2.79v19.23H231.97s.15-31.2 0-34.43h11.443v4.879c1.52-2.347 4.236-5.688 10.315-5.688zm-39.535.809h11.445v34.43h-11.445z" transform="translate(-200.552 -393.962)"/></svg>