<?xml version="1.0" encoding="UTF-8" standalone="no"?>
<!-- Created with Inkscape (http://www.inkscape.org/) -->

<svg
   width="210mm"
   height="210mm"
   viewBox="0 0 210 210"
   version="1.1"
   id="svg5"
   inkscape:version="1.1.2 (0a00cf5339, 2022-02-04)"
   sodipodi:docname="logo-rounded-rect.svg"
   inkscape:export-filename="/home/jacob/Documents/Vector Assets/Portfolio Assets/logo-rounded-rect-192.png"
   inkscape:export-xdpi="23.222857"
   inkscape:export-ydpi="23.222857"
   xmlns:inkscape="http://www.inkscape.org/namespaces/inkscape"
   xmlns:sodipodi="http://sodipodi.sourceforge.net/DTD/sodipodi-0.dtd"
   xmlns="http://www.w3.org/2000/svg"
   xmlns:svg="http://www.w3.org/2000/svg">
  <sodipodi:namedview
     id="namedview7"
     pagecolor="#ffffff"
     bordercolor="#666666"
     borderopacity="1.0"
     inkscape:pageshadow="2"
     inkscape:pageopacity="0.0"
     inkscape:pagecheckerboard="true"
     inkscape:document-units="mm"
     showgrid="false"
     inkscape:zoom="0.7130787"
     inkscape:cx="212.45902"
     inkscape:cy="442.44766"
     inkscape:window-width="1462"
     inkscape:window-height="800"
     inkscape:window-x="0"
     inkscape:window-y="0"
     inkscape:window-maximized="1"
     inkscape:current-layer="layer1"
     height="210mm" />
  <defs
     id="defs2">
    <inkscape:path-effect
       effect="fillet_chamfer"
       id="path-effect5424"
       is_visible="true"
       lpeversion="1"
       satellites_param="F,0,0,1,0,2.6458333,0,1 @ F,0,0,1,0,2.6458333,0,1 @ F,0,0,1,0,2.6458333,0,1 @ F,0,0,1,0,2.6458333,0,1 @ F,0,0,1,0,2.6458333,0,1 @ F,0,0,1,0,2.6458333,0,1 @ F,0,0,1,0,2.6458333,0,1 @ F,0,0,1,0,2.6458333,0,1 @ F,0,0,1,0,2.6458333,0,1 @ F,0,0,1,0,2.6458333,0,1 @ F,0,0,1,0,2.6458333,0,1 @ F,0,0,1,0,2.6458333,0,1 @ F,0,0,1,0,2.6458333,0,1 @ F,0,0,1,0,2.6458333,0,1 @ F,0,0,1,0,2.6458333,0,1 @ F,0,0,1,0,2.6458333,0,1 @ F,0,0,1,0,2.6458333,0,1 @ F,0,0,1,0,2.6458333,0,1 @ F,0,0,1,0,2.6458333,0,1"
       unit="px"
       method="auto"
       mode="F"
       radius="10"
       chamfer_steps="1"
       flexible="false"
       use_knot_distance="true"
       apply_no_radius="true"
       apply_with_radius="true"
       only_selected="false"
       hide_knots="false" />
    <inkscape:path-effect
       effect="bspline"
       id="path-effect5422"
       is_visible="true"
       lpeversion="1"
       weight="33.333333"
       steps="2"
       helper_size="0"
       apply_no_weight="true"
       apply_with_weight="true"
       only_selected="false" />
  </defs>
  <g
     inkscape:label="Layer 1"
     inkscape:groupmode="layer"
     id="layer1">
    <rect
       style="opacity:1;fill:#002847;fill-opacity:1;stroke-width:0.264583"
       id="rect57"
       width="190"
       height="190"
       x="10"
       y="10"
       rx="34.999878"
       ry="34.999878" />
    <path
       id="path3043"
       style="font-size:127px;line-height:1.25;letter-spacing:0px;word-spacing:0px;fill:#ffffff;stroke-width:0.358731"
       d="M 68.863381,27.645811 V 139.13805 c 0,1.46125 0.0043,3.83064 -0.03203,5.2914 -0.194275,7.81382 -1.272398,13.7153 -3.23437,17.70446 -0.644076,1.30956 -2.045025,3.24927 -3.124361,4.23067 -2.716684,2.47018 -6.543549,3.8864 -11.480599,4.24864 -1.457011,0.10691 -3.828175,0.0934 -5.289428,0.0934 h -0.0052 a 2.6458333,2.6458333 135 0 0 -2.645833,2.64583 v 9.00155 a 2.6458333,2.6458333 45 0 0 2.645833,2.64583 h 1.182317 c 1.461253,0 3.83098,0.006 5.290998,-0.0512 10.151726,-0.4012 17.889122,-3.15879 23.21219,-8.27276 1.053228,-1.01185 2.579644,-2.83378 3.40233,-4.04067 3.294508,-4.83305 5.432299,-11.32808 6.420028,-19.47575 0.175848,-1.45054 0.438691,-2.63144 0.641843,-2.63144 v -6.09825 -51.70778 a 1.0937819,1.0937819 157.5399 0 1 1.868279,-0.772342 l 56.547139,56.704882 a 6.3750456,6.3750456 22.539902 0 0 4.51411,1.87349 h 17.07301 a 1.0988635,1.0988635 112.55402 0 0 0.77847,-1.87441 L 103.6051,85.392453 a 2.5691167,2.5691167 90.950843 0 1 0.0612,-3.685822 l 58.44452,-54.895242 a 1.047729,1.047729 68.396827 0 0 -0.7173,-1.811411 h -16.56854 a 6.6685034,6.6685034 158.35852 0 0 -4.57194,1.813988 L 87.773177,76.239001 A 1.1426809,1.1426809 23.358521 0 1 85.847072,75.407156 V 27.645811 a 2.6458333,2.6458333 45 0 0 -2.645833,-2.645833 l -11.692025,0 a 2.6458333,2.6458333 135 0 0 -2.645833,2.645833 z"
       inkscape:path-effect="#path-effect5424"
       inkscape:original-d="M 68.863381,24.999978 V 141.78388 c 0,10.87405 -1.541425,18.41301 -4.624273,22.61689 -3.082849,4.20387 -8.379741,6.30583 -15.890679,6.30583 h -5.296896 v 14.29321 h 6.473983 c 12.723755,0 21.944272,-3.41916 27.661554,-10.25747 4.594249,-5.44174 7.353879,-13.51941 8.292166,-24.21438 h 0.367836 v -8.74408 -51.707783 l 60.283698,60.451863 h 22.36467 l -66.7577,-67.009918 62.30158,-58.518064 h -21.8602 L 85.847072,78.052989 V 24.999978 Z" />
  </g>
</svg>
