<?xml version="1.0" encoding="UTF-8" standalone="no"?>
<svg
   xmlns:dc="http://purl.org/dc/elements/1.1/"
   xmlns:cc="http://creativecommons.org/ns#"
   xmlns:rdf="http://www.w3.org/1999/02/22-rdf-syntax-ns#"
   xmlns:svg="http://www.w3.org/2000/svg"
   xmlns="http://www.w3.org/2000/svg"
   xmlns:sodipodi="http://sodipodi.sourceforge.net/DTD/sodipodi-0.dtd"
   xmlns:inkscape="http://www.inkscape.org/namespaces/inkscape"
   width="210mm"
   height="210mm"
   viewBox="0 0 210 210"
   version="1.1"
   id="svg5"
   inkscape:version="1.0.1 (3bc2e813f5, 2020-09-07)"
   sodipodi:docname="logo.svg">
  <metadata
     id="metadata34">
    <rdf:RDF>
      <cc:Work
         rdf:about="">
        <dc:format>image/svg+xml</dc:format>
        <dc:type
           rdf:resource="http://purl.org/dc/dcmitype/StillImage" />
      </cc:Work>
    </rdf:RDF>
  </metadata>
  <sodipodi:namedview
     id="namedview7"
     pagecolor="#002847"
     bordercolor="#666666"
     borderopacity="1.0"
     inkscape:pageshadow="2"
     inkscape:pageopacity="1"
     inkscape:pagecheckerboard="false"
     inkscape:document-units="mm"
     showgrid="false"
     inkscape:zoom="1.4261574"
     inkscape:cx="455.92582"
     inkscape:cy="377.06377"
     inkscape:window-width="1920"
     inkscape:window-height="1051"
     inkscape:window-x="-9"
     inkscape:window-y="-9"
     inkscape:window-maximized="1"
     inkscape:current-layer="layer1"
     height="210mm"
     inkscape:document-rotation="0" />
  <defs
     id="defs2">
    <inkscape:path-effect
       effect="fillet_chamfer"
       id="path-effect1117"
       is_visible="true"
       lpeversion="1"
       satellites_param="F,0,0,1,0,0.52916667,0,1 @ F,0,0,1,0,0.52916667,0,1 @ F,0,0,1,0,0.52916667,0,1 @ F,0,0,1,0,0.52916667,0,1 @ F,0,0,1,0,0.52916667,0,1 @ F,0,0,1,0,0.52916667,0,1 @ F,0,0,1,0,0.52916667,0,1 @ F,0,0,1,0,0.52916667,0,1 @ F,0,0,1,0,0.52916667,0,1 @ F,0,0,1,0,0.52916667,0,1 @ F,0,0,1,0,0.52916667,0,1 @ F,0,0,1,0,0.52916667,0,1 @ F,0,0,1,0,0.52916667,0,1 @ F,0,0,1,0,0.52916667,0,1 @ F,0,0,1,0,0.52916667,0,1 @ F,0,0,1,0,0.52916667,0,1 @ F,0,0,1,0,0.52916667,0,1 @ F,0,0,1,0,0.52916667,0,1 @ F,0,0,1,0,0.52916667,0,1 @ F,0,0,1,0,0.52916667,0,1 @ F,0,0,1,0,0.52916667,0,1 @ F,0,0,1,0,0.52916667,0,1 @ F,0,0,1,0,0.52916667,0,1 @ F,0,0,1,0,0.52916667,0,1 @ F,0,0,1,0,0.52916667,0,1 @ F,0,0,1,0,0.52916667,0,1 @ F,0,0,1,0,0.52916667,0,1 @ F,0,0,1,0,0.52916667,0,1 | F,0,0,1,0,0.52916667,0,1 @ F,0,0,1,0,0.52916667,0,1 @ F,0,0,1,0,0.52916667,0,1 @ F,0,0,1,0,0.52916667,0,1 @ F,0,0,1,0,0.52916667,0,1 @ F,0,0,1,0,0.52916667,0,1 @ F,0,0,1,0,0.52916667,0,1 @ F,0,0,1,0,0.52916667,0,1 @ F,0,0,1,0,0.52916667,0,1 @ F,0,0,1,0,0.52916667,0,1 @ F,0,0,1,0,0.52916667,0,1 @ F,0,0,1,0,0.52916667,0,1 @ F,0,0,1,0,0.52916667,0,1 @ F,0,0,1,0,0.52916667,0,1 | F,0,0,1,0,0.52916667,0,1 @ F,0,0,1,0,0.52916667,0,1 @ F,0,0,1,0,0.52916667,0,1 @ F,0,0,1,0,0.52916667,0,1 @ F,0,0,1,0,0.52916667,0,1 @ F,0,0,1,0,0.52916667,0,1 @ F,0,0,1,0,0.52916667,0,1 @ F,0,0,1,0,0.52916667,0,1 | F,0,0,1,0,0.52916667,0,1 @ F,0,0,1,0,0.52916667,0,1 @ F,0,0,1,0,0.52916667,0,1 @ F,0,0,1,0,0.52916667,0,1 @ F,0,0,1,0,0.52916667,0,1 @ F,0,0,1,0,0.52916667,0,1 @ F,0,0,1,0,0.52916667,0,1 @ F,0,0,1,0,0.52916667,0,1 @ F,0,0,1,0,0.52916667,0,1 @ F,0,0,1,0,0.52916667,0,1 @ F,0,0,1,0,0.52916667,0,1 @ F,0,0,1,0,0.52916667,0,1 @ F,0,0,1,0,0.52916667,0,1 @ F,0,0,1,0,0.52916667,0,1 @ F,0,0,1,0,0.52916667,0,1 @ F,0,0,1,0,0.52916667,0,1 @ F,0,0,1,0,0.52916667,0,1 @ F,0,0,1,0,0.52916667,0,1 | F,0,0,1,0,0.52916667,0,1 @ F,0,0,1,0,0.52916667,0,1 @ F,0,0,1,0,0.52916667,0,1 @ F,0,0,1,0,0.52916667,0,1 @ F,0,0,1,0,0.52916667,0,1 @ F,0,0,1,0,0.52916667,0,1 @ F,0,0,1,0,0.52916667,0,1 @ F,0,0,1,0,0.52916667,0,1 @ F,0,0,1,0,0.52916667,0,1 @ F,0,0,1,0,0.52916667,0,1 @ F,0,0,1,0,0.52916667,0,1 @ F,0,0,1,0,0.52916667,0,1 @ F,0,0,1,0,0.52916667,0,1 @ F,0,0,1,0,0.52916667,0,1 @ F,0,0,1,0,0.52916667,0,1 @ F,0,0,1,0,0.52916667,0,1 @ F,0,0,1,0,0.52916667,0,1 @ F,0,0,1,0,0.52916667,0,1 @ F,0,0,1,0,0.52916667,0,1 @ F,0,0,1,0,0.52916667,0,1 @ F,0,0,1,0,0.52916667,0,1 @ F,0,0,1,0,0.52916667,0,1 @ F,0,0,1,0,0.52916667,0,1 @ F,0,0,1,0,0.52916667,0,1 | F,0,0,1,0,0.52916667,0,1 @ F,0,0,1,0,0.52916667,0,1 @ F,0,0,1,0,0.52916667,0,1 @ F,0,0,1,0,0.52916667,0,1 @ F,0,0,1,0,0.52916667,0,1 @ F,0,0,1,0,0.52916667,0,1 @ F,0,0,1,0,0.52916667,0,1 @ F,0,0,1,0,0.52916667,0,1 @ F,0,0,1,0,0.52916667,0,1 @ F,0,0,1,0,0.52916667,0,1 @ F,0,0,1,0,0.52916667,0,1 @ F,0,0,1,0,0.52916667,0,1 @ F,0,0,1,0,0.52916667,0,1 @ F,0,0,1,0,0.52916667,0,1 @ F,0,0,1,0,0.52916667,0,1 | F,0,0,1,0,0.52916667,0,1 @ F,0,0,1,0,0.52916667,0,1 @ F,0,0,1,0,0.52916667,0,1 @ F,0,0,1,0,0.52916667,0,1 @ F,0,0,1,0,0.52916667,0,1 @ F,0,0,1,0,0.52916667,0,1 @ F,0,0,1,0,0.52916667,0,1 | F,0,0,1,0,0.52916667,0,1 @ F,0,0,1,0,0.52916667,0,1 @ F,0,0,1,0,0.52916667,0,1 | F,0,0,1,0,0.52916667,0,1 @ F,0,0,1,0,0.52916667,0,1 @ F,0,0,1,0,0.52916667,0,1 @ F,0,0,1,0,0.52916667,0,1 @ F,0,0,1,0,0.52916667,0,1 @ F,0,0,1,0,0.52916667,0,1 @ F,0,0,1,0,0.52916667,0,1 @ F,0,0,1,0,0.52916667,0,1 @ F,0,0,1,0,0.52916667,0,1 | F,0,0,1,0,0.52916667,0,1 @ F,0,0,1,0,0.52916667,0,1 @ F,0,0,1,0,0.52916667,0,1 @ F,0,0,1,0,0.52916667,0,1 @ F,0,0,1,0,0.52916667,0,1 @ F,0,0,1,0,0.52916667,0,1 @ F,0,0,1,0,0.52916667,0,1 @ F,0,0,1,0,0.52916667,0,1 @ F,0,0,1,0,0.52916667,0,1 @ F,0,0,1,0,0.52916667,0,1 @ F,0,0,1,0,0.52916667,0,1 @ F,0,0,1,0,0.52916667,0,1 @ F,0,0,1,0,0.52916667,0,1 @ F,0,0,1,0,0.52916667,0,1 @ F,0,0,1,0,0.52916667,0,1 @ F,0,0,1,0,0.52916667,0,1 @ F,0,0,1,0,0.52916667,0,1 @ F,0,0,1,0,0.52916667,0,1 @ F,0,0,1,0,0.52916667,0,1 @ F,0,0,1,0,0.52916667,0,1 @ F,0,0,1,0,0.52916667,0,1 @ F,0,0,1,0,0.52916667,0,1 @ F,0,0,1,0,0.52916667,0,1 @ F,0,0,1,0,0.52916667,0,1 @ F,0,0,1,0,0.52916667,0,1 @ F,0,0,1,0,0.52916667,0,1 @ F,0,0,1,0,0.52916667,0,1 @ F,0,0,1,0,0.52916667,0,1 | F,0,0,1,0,0.52916667,0,1 @ F,0,0,1,0,0.52916667,0,1 @ F,0,0,1,0,0.52916667,0,1 @ F,0,0,1,0,0.52916667,0,1 @ F,0,0,1,0,0.52916667,0,1 @ F,0,0,1,0,0.52916667,0,1 @ F,0,0,1,0,0.52916667,0,1 | F,0,0,1,0,0.52916667,0,1 @ F,0,0,1,0,0.52916667,0,1 @ F,0,0,1,0,0.52916667,0,1 @ F,0,0,1,0,0.52916667,0,1 | F,0,0,1,0,0.52916667,0,1 @ F,0,0,1,0,0.52916667,0,1 @ F,0,0,1,0,0.52916667,0,1 @ F,0,0,1,0,0.52916667,0,1 @ F,0,0,1,0,0.52916667,0,1 @ F,0,0,1,0,0.52916667,0,1 @ F,0,0,1,0,0.52916667,0,1 @ F,0,0,1,0,0.52916667,0,1 @ F,0,0,1,0,0.52916667,0,1 @ F,0,0,1,0,0.52916667,0,1 @ F,0,0,1,0,0.52916667,0,1 @ F,0,0,1,0,0.52916667,0,1 @ F,0,0,1,0,0.52916667,0,1 | F,0,0,1,0,0.52916667,0,1 @ F,0,0,1,0,0.52916667,0,1 @ F,0,0,1,0,0.52916667,0,1 @ F,0,0,1,0,0.52916667,0,1 @ F,0,0,1,0,0.52916667,0,1 @ F,0,0,1,0,0.52916667,0,1 @ F,0,0,1,0,0.52916667,0,1 @ F,0,0,1,0,0.52916667,0,1 @ F,0,0,1,0,0.52916667,0,1 @ F,0,0,1,0,0.52916667,0,1 | F,0,0,1,0,0.52916667,0,1 @ F,0,0,1,0,0.52916667,0,1 @ F,0,0,1,0,0.52916667,0,1 @ F,0,0,1,0,0.52916667,0,1 @ F,0,0,1,0,0.52916667,0,1 @ F,0,0,1,0,0.52916667,0,1 @ F,0,0,1,0,0.52916667,0,1 @ F,0,0,1,0,0.52916667,0,1 | F,0,0,1,0,0.52916667,0,1 @ F,0,0,1,0,0.52916667,0,1 @ F,0,0,1,0,0.52916667,0,1 @ F,0,0,1,0,0.52916667,0,1 @ F,0,0,1,0,0.52916667,0,1 @ F,0,0,1,0,0.52916667,0,1 @ F,0,0,1,0,0.52916667,0,1 @ F,0,0,1,0,0.52916667,0,1 @ F,0,0,1,0,0.52916667,0,1 @ F,0,0,1,0,0.52916667,0,1 @ F,0,0,1,0,0.52916667,0,1 @ F,0,0,1,0,0.52916667,0,1 | F,0,0,1,0,0.52916667,0,1 @ F,0,0,1,0,0.52916667,0,1 @ F,0,0,1,0,0.52916667,0,1"
       unit="px"
       method="auto"
       mode="F"
       radius="2"
       chamfer_steps="1"
       flexible="false"
       use_knot_distance="true"
       apply_no_radius="true"
       apply_with_radius="true"
       only_selected="false"
       hide_knots="false" />
    <inkscape:path-effect
       effect="fillet_chamfer"
       id="path-effect12085"
       is_visible="true"
       lpeversion="1"
       satellites_param="F,0,0,1,0,1.0583333,0,1 @ F,0,0,1,0,1.0583333,0,1 @ F,0,0,1,0,1.0583333,0,1 @ F,0,0,1,0,1.0583333,0,1 @ F,0,0,1,0,1.0583333,0,1 @ F,0,0,1,0,1.0583333,0,1 @ F,0,0,1,0,1.0583333,0,1 @ F,0,0,1,0,1.0583333,0,1 | F,0,0,1,0,1.0583333,0,1 @ F,0,0,1,0,1.0583333,0,1 @ F,0,0,1,0,1.0583333,0,1 @ F,0,0,1,0,1.0583333,0,1 @ F,0,0,1,0,1.0583333,0,1 @ F,0,0,1,0,1.0583333,0,1 @ F,0,0,1,0,1.0583333,0,1 @ F,0,0,1,0,1.0583333,0,1 @ F,0,0,1,0,1.0583333,0,1 @ F,0,0,1,0,1.0583333,0,1 @ F,0,0,1,0,1.0583333,0,1 @ F,0,0,1,0,1.0583333,0,1 @ F,0,0,1,0,1.0583333,0,1"
       unit="px"
       method="auto"
       mode="F"
       radius="4"
       chamfer_steps="1"
       flexible="false"
       use_knot_distance="true"
       apply_no_radius="true"
       apply_with_radius="true"
       only_selected="false"
       hide_knots="false" />
    <inkscape:path-effect
       effect="fillet_chamfer"
       id="path-effect12083"
       is_visible="true"
       lpeversion="1"
       satellites_param="F,0,0,1,0,1.0583333,0,1 @ F,0,0,1,0,1.0583333,0,1 @ F,0,0,1,0,1.0583333,0,1 @ F,0,0,1,0,1.0583333,0,1 @ F,0,0,1,0,1.0583333,0,1 @ F,0,0,1,0,1.0583333,0,1 @ F,0,0,1,0,1.0583333,0,1 @ F,0,0,1,0,1.0583333,0,1 | F,0,0,1,0,1.0583333,0,1 @ F,0,0,1,0,1.0583333,0,1 @ F,0,0,1,0,1.0583333,0,1 @ F,0,0,1,0,1.0583333,0,1 @ F,0,0,1,0,1.0583333,0,1 @ F,0,0,1,0,1.0583333,0,1 @ F,0,0,1,0,1.0583333,0,1 @ F,0,0,1,0,1.0583333,0,1"
       unit="px"
       method="auto"
       mode="F"
       radius="4"
       chamfer_steps="1"
       flexible="false"
       use_knot_distance="true"
       apply_no_radius="true"
       apply_with_radius="true"
       only_selected="false"
       hide_knots="false" />
    <inkscape:path-effect
       effect="fillet_chamfer"
       id="path-effect12081"
       is_visible="true"
       lpeversion="1"
       satellites_param="F,0,0,1,0,1.0583333,0,1 @ F,0,0,1,0,1.0583333,0,1 @ F,0,0,1,0,1.0583333,0,1 @ F,0,0,1,0,1.0583333,0,1 @ F,0,0,1,0,1.0583333,0,1 @ F,0,0,1,0,1.0583333,0,1 @ F,0,0,1,0,1.0583333,0,1 @ F,0,0,1,0,1.0583333,0,1 @ F,0,0,1,0,1.0583333,0,1 @ F,0,0,1,0,1.0583333,0,1 @ F,0,0,1,0,1.0583333,0,1 @ F,0,0,1,0,1.0583333,0,1 @ F,0,0,1,0,1.0583333,0,1 @ F,0,0,1,0,1.0583333,0,1 @ F,0,0,1,0,1.0583333,0,1 @ F,0,0,1,0,1.0583333,0,1 @ F,0,0,1,0,1.0583333,0,1 @ F,0,0,1,0,1.0583333,0,1"
       unit="px"
       method="auto"
       mode="F"
       radius="4"
       chamfer_steps="1"
       flexible="false"
       use_knot_distance="true"
       apply_no_radius="true"
       apply_with_radius="true"
       only_selected="false"
       hide_knots="false" />
    <inkscape:path-effect
       effect="fillet_chamfer"
       id="path-effect12079"
       is_visible="true"
       lpeversion="1"
       satellites_param="F,0,0,1,0,1.0583333,0,1 @ F,0,0,1,0,1.0583333,0,1 @ F,0,0,1,0,1.0583333,0,1 @ F,0,0,1,0,1.0583333,0,1 @ F,0,0,1,0,1.0583333,0,1 @ F,0,0,1,0,1.0583333,0,1 @ F,0,0,1,0,1.0583333,0,1 @ F,0,0,1,0,1.0583333,0,1 | F,0,0,1,0,1.0583333,0,1 @ F,0,0,1,0,1.0583333,0,1 @ F,0,0,1,0,1.0583333,0,1 @ F,0,0,1,0,1.0583333,0,1 @ F,0,0,1,0,1.0583333,0,1 @ F,0,0,1,0,1.0583333,0,1 @ F,0,0,1,0,1.0583333,0,1 @ F,0,0,1,0,1.0583333,0,1 @ F,0,0,1,0,1.0583333,0,1 @ F,0,0,1,0,1.0583333,0,1 @ F,0,0,1,0,1.0583333,0,1 @ F,0,0,1,0,1.0583333,0,1 @ F,0,0,1,0,1.0583333,0,1 @ F,0,0,1,0,1.0583333,0,1 @ F,0,0,1,0,1.0583333,0,1 @ F,0,0,1,0,1.0583333,0,1 @ F,0,0,1,0,1.0583333,0,1 @ F,0,0,1,0,1.0583333,0,1 @ F,0,0,1,0,1.0583333,0,1 @ F,0,0,1,0,1.0583333,0,1"
       unit="px"
       method="auto"
       mode="F"
       radius="4"
       chamfer_steps="1"
       flexible="false"
       use_knot_distance="true"
       apply_no_radius="true"
       apply_with_radius="true"
       only_selected="false"
       hide_knots="false" />
    <inkscape:path-effect
       effect="fillet_chamfer"
       id="path-effect12046"
       is_visible="true"
       lpeversion="1"
       satellites_param="F,0,0,1,0,1.0583333,0,1 @ F,0,0,1,0,1.0583333,0,1 @ F,0,0,1,0,1.0583333,0,1 @ F,0,0,1,0,1.0583333,0,1 @ F,0,0,1,0,1.0583333,0,1 @ F,0,0,1,0,1.0583333,0,1 @ F,0,0,1,0,1.0583333,0,1 @ F,0,0,1,0,1.0583333,0,1 @ F,0,0,1,0,1.0583333,0,1 @ F,0,0,1,0,1.0583333,0,1 @ F,0,0,1,0,1.0583333,0,1"
       unit="px"
       method="auto"
       mode="F"
       radius="4"
       chamfer_steps="1"
       flexible="false"
       use_knot_distance="true"
       apply_no_radius="true"
       apply_with_radius="true"
       only_selected="false"
       hide_knots="false" />
    <inkscape:path-effect
       effect="fillet_chamfer"
       id="path-effect12044"
       is_visible="true"
       lpeversion="1"
       satellites_param="F,0,0,1,0,1.0583333,0,1 @ F,0,0,1,0,1.0583333,0,1 @ F,0,0,1,0,1.0583333,0,1 @ F,0,0,1,0,1.0583333,0,1 @ F,0,0,1,0,1.0583333,0,1 @ F,0,0,1,0,1.0583333,0,1 @ F,0,0,1,0,1.0583333,0,1 @ F,0,0,1,0,1.0583333,0,1 | F,0,0,1,0,1.0583333,0,1 @ F,0,0,1,0,1.0583333,0,1 @ F,0,0,1,0,1.0583333,0,1 @ F,0,0,1,0,1.0583333,0,1 @ F,0,0,1,0,1.0583333,0,1 @ F,0,0,1,0,1.0583333,0,1 @ F,0,0,1,0,1.0583333,0,1 @ F,0,0,1,0,1.0583333,0,1 @ F,0,0,1,0,1.0583333,0,1 @ F,0,0,1,0,1.0583333,0,1 @ F,0,0,1,0,1.0583333,0,1 @ F,0,0,1,0,1.0583333,0,1 @ F,0,0,1,0,1.0583333,0,1 @ F,0,0,1,0,1.0583333,0,1 @ F,0,0,1,0,1.0583333,0,1 @ F,0,0,1,0,1.0583333,0,1 @ F,0,0,1,0,1.0583333,0,1 @ F,0,0,1,0,1.0583333,0,1 @ F,0,0,1,0,1.0583333,0,1 @ F,0,0,1,0,1.0583333,0,1"
       unit="px"
       method="auto"
       mode="F"
       radius="4"
       chamfer_steps="1"
       flexible="false"
       use_knot_distance="true"
       apply_no_radius="true"
       apply_with_radius="true"
       only_selected="false"
       hide_knots="false" />
    <inkscape:path-effect
       effect="fillet_chamfer"
       id="path-effect12042"
       is_visible="true"
       lpeversion="1"
       satellites_param="F,0,0,1,0,1.0583333,0,1 @ F,0,0,1,0,1.0583333,0,1 @ F,0,0,1,0,1.0583333,0,1 @ F,0,0,1,0,1.0583333,0,1 @ F,0,0,1,0,1.0583333,0,1 @ F,0,0,1,0,1.0583333,0,1 @ F,0,0,1,0,1.0583333,0,1 @ F,0,0,1,0,1.0583333,0,1 @ F,0,0,1,0,1.0583333,0,1 @ F,0,0,1,0,1.0583333,0,1"
       unit="px"
       method="auto"
       mode="F"
       radius="4"
       chamfer_steps="1"
       flexible="false"
       use_knot_distance="true"
       apply_no_radius="true"
       apply_with_radius="true"
       only_selected="false"
       hide_knots="false" />
    <inkscape:path-effect
       effect="fillet_chamfer"
       id="path-effect12040"
       is_visible="true"
       lpeversion="1"
       satellites_param="F,0,0,1,0,1.0583333,0,1 @ F,0,0,1,0,1.0583333,0,1 @ F,0,0,1,0,1.0583333,0,1 @ F,0,0,1,0,1.0583333,0,1 @ F,0,0,1,0,1.0583333,0,1 @ F,0,0,1,0,1.0583333,0,1 @ F,0,0,1,0,1.0583333,0,1 @ F,0,0,1,0,1.0583333,0,1 @ F,0,0,1,0,1.0583333,0,1 @ F,0,0,1,0,1.0583333,0,1 @ F,0,0,1,0,1.0583333,0,1 @ F,0,0,1,0,1.0583333,0,1 @ F,0,0,1,0,1.0583333,0,1 @ F,0,0,1,0,1.0583333,0,1 @ F,0,0,1,0,1.0583333,0,1 @ F,0,0,1,0,1.0583333,0,1 @ F,0,0,1,0,1.0583333,0,1 @ F,0,0,1,0,1.0583333,0,1"
       unit="px"
       method="auto"
       mode="F"
       radius="4"
       chamfer_steps="1"
       flexible="false"
       use_knot_distance="true"
       apply_no_radius="true"
       apply_with_radius="true"
       only_selected="false"
       hide_knots="false" />
    <inkscape:path-effect
       effect="fillet_chamfer"
       id="path-effect12038"
       is_visible="true"
       lpeversion="1"
       satellites_param="F,0,0,1,0,1.0583333,0,1 @ F,0,0,1,0,1.0583333,0,1 @ F,0,0,1,0,1.0583333,0,1 @ F,0,0,1,0,1.0583333,0,1 @ F,0,0,1,0,1.0583333,0,1 @ F,0,0,1,0,1.0583333,0,1 @ F,0,0,1,0,1.0583333,0,1 @ F,0,0,1,0,1.0583333,0,1 @ F,0,0,1,0,1.0583333,0,1 @ F,0,0,1,0,1.0583333,0,1 @ F,0,0,1,0,1.0583333,0,1 @ F,0,0,1,0,1.0583333,0,1 @ F,0,0,1,0,1.0583333,0,1 @ F,0,0,1,0,1.0583333,0,1 @ F,0,0,1,0,1.0583333,0,1 @ F,0,0,1,0,1.0583333,0,1 @ F,0,0,1,0,1.0583333,0,1 @ F,0,0,1,0,1.0583333,0,1 @ F,0,0,1,0,1.0583333,0,1 @ F,0,0,1,0,1.0583333,0,1 @ F,0,0,1,0,1.0583333,0,1 @ F,0,0,1,0,1.0583333,0,1 @ F,0,0,1,0,1.0583333,0,1 @ F,0,0,1,0,1.0583333,0,1 @ F,0,0,1,0,1.0583333,0,1 @ F,0,0,1,0,1.0583333,0,1 @ F,0,0,1,0,1.0583333,0,1"
       unit="px"
       method="auto"
       mode="F"
       radius="4"
       chamfer_steps="1"
       flexible="false"
       use_knot_distance="true"
       apply_no_radius="true"
       apply_with_radius="true"
       only_selected="false"
       hide_knots="false" />
    <inkscape:path-effect
       effect="fillet_chamfer"
       id="path-effect12036"
       is_visible="true"
       lpeversion="1"
       satellites_param="F,0,0,1,0,1.0583333,0,1 @ F,0,0,1,0,1.0583333,0,1 @ F,0,0,1,0,1.0583333,0,1 @ F,0,0,1,0,1.0583333,0,1 | F,0,0,1,0,1.0583333,0,1 @ F,0,0,1,0,1.0583333,0,1 @ F,0,0,1,0,1.0583333,0,1 @ F,0,0,1,0,1.0583333,0,1"
       unit="px"
       method="auto"
       mode="F"
       radius="4"
       chamfer_steps="1"
       flexible="false"
       use_knot_distance="true"
       apply_no_radius="true"
       apply_with_radius="true"
       only_selected="false"
       hide_knots="false" />
    <inkscape:path-effect
       effect="fillet_chamfer"
       id="path-effect12034"
       is_visible="true"
       lpeversion="1"
       satellites_param="F,0,0,1,0,1.0583333,0,1 @ F,0,0,1,0,1.0583333,0,1 @ F,0,0,1,0,1.0583333,0,1 @ F,0,0,1,0,1.0583333,0,1"
       unit="px"
       method="auto"
       mode="F"
       radius="4"
       chamfer_steps="1"
       flexible="false"
       use_knot_distance="true"
       apply_no_radius="true"
       apply_with_radius="true"
       only_selected="false"
       hide_knots="false" />
    <inkscape:path-effect
       effect="fillet_chamfer"
       id="path-effect5424"
       is_visible="true"
       lpeversion="1"
       satellites_param="F,0,0,1,0,2.6458333,0,1 @ F,0,0,1,0,2.6458333,0,1 @ F,0,0,1,0,2.6458333,0,1 @ F,0,0,1,0,2.6458333,0,1 @ F,0,0,1,0,2.6458333,0,1 @ F,0,0,1,0,2.6458333,0,1 @ F,0,0,1,0,2.6458333,0,1 @ F,0,0,1,0,2.6458333,0,1 @ F,0,0,1,0,2.6458333,0,1 @ F,0,0,1,0,2.6458333,0,1 @ F,0,0,1,0,2.6458333,0,1 @ F,0,0,1,0,2.6458333,0,1 @ F,0,0,1,0,2.6458333,0,1 @ F,0,0,1,0,2.6458333,0,1 @ F,0,0,1,0,2.6458333,0,1 @ F,0,0,1,0,2.6458333,0,1 @ F,0,0,1,0,2.6458333,0,1 @ F,0,0,1,0,2.6458333,0,1 @ F,0,0,1,0,2.6458333,0,1"
       unit="px"
       method="auto"
       mode="F"
       radius="10"
       chamfer_steps="1"
       flexible="false"
       use_knot_distance="true"
       apply_no_radius="true"
       apply_with_radius="true"
       only_selected="false"
       hide_knots="false" />
    <inkscape:path-effect
       effect="bspline"
       id="path-effect5422"
       is_visible="true"
       lpeversion="1"
       weight="33.333333"
       steps="2"
       helper_size="0"
       apply_no_weight="true"
       apply_with_weight="true"
       only_selected="false" />
  </defs>
  <g
     inkscape:label="Layer 1"
     inkscape:groupmode="layer"
     id="layer1">
    <g
       id="text6558"
       style="font-style:normal;font-weight:normal;font-size:10.5833px;line-height:1.25;font-family:sans-serif;letter-spacing:0px;word-spacing:0px;fill:#000000;fill-opacity:1;stroke:none;stroke-width:0.264583" />
    <g
       id="g1119"
       style="opacity:1">
      <path
         style="color:#000000;font-style:normal;font-variant:normal;font-weight:300;font-stretch:normal;font-size:70.5556px;line-height:1.25;font-family:Bahnschrift;-inkscape-font-specification:'Bahnschrift Light';font-variant-ligatures:normal;font-variant-position:normal;font-variant-caps:normal;font-variant-numeric:normal;font-variant-alternates:normal;font-variant-east-asian:normal;font-feature-settings:normal;font-variation-settings:normal;text-indent:0;text-align:start;text-decoration:none;text-decoration-line:none;text-decoration-style:solid;text-decoration-color:#000000;letter-spacing:normal;word-spacing:normal;text-transform:none;writing-mode:lr-tb;direction:ltr;text-orientation:mixed;dominant-baseline:auto;baseline-shift:baseline;text-anchor:start;white-space:normal;shape-padding:0;shape-margin:0;inline-size:0;clip-rule:nonzero;display:inline;overflow:visible;visibility:visible;isolation:auto;mix-blend-mode:normal;color-interpolation:sRGB;color-interpolation-filters:linearRGB;solid-color:#000000;solid-opacity:1;vector-effect:none;fill:#ffffff;fill-opacity:1;fill-rule:nonzero;stroke-width:0.143619;stroke-linecap:butt;stroke-linejoin:miter;stroke-miterlimit:4;stroke-dasharray:none;stroke-dashoffset:0;stroke-opacity:1.0;color-rendering:auto;image-rendering:auto;shape-rendering:auto;text-rendering:auto;enable-background:accumulate;stop-color:#000000;stop-opacity:1;stroke:none;"
         d="m 116.38785,64.921743 c -1.47063,0.06422 -2.79785,0.399322 -3.98177,1.005116 -0.26013,0.133105 -0.6688,0.373929 -0.91123,0.53707 -1.06739,0.718308 -1.93687,1.653842 -2.60843,2.806787 -0.14708,0.252506 -0.36312,0.674684 -0.48203,0.941611 -0.57098,1.281718 -0.88453,2.722794 -0.94065,4.323228 -0.0102,0.292056 -0.009,0.765976 -0.009,1.058227 v 6.403108 c 0,0.292251 -0.001,0.766171 0.009,1.058227 0.0561,1.600435 0.36967,3.041509 0.94065,4.323227 0.11891,0.266927 0.33495,0.689103 0.48203,0.941609 0.67156,1.152991 1.54104,2.088709 2.60843,2.807063 0.24242,0.163149 0.65189,0.402644 0.91284,0.534133 1.18351,0.596358 2.51019,0.926202 3.98015,0.989437 0.29196,0.01256 0.76609,0.01268 1.05797,-0.0014 1.15943,-0.05586 2.24986,-0.297011 3.27123,-0.723462 0.26966,-0.112589 0.69629,-0.319779 0.95163,-0.461867 0.95105,-0.529218 1.78079,-1.208228 2.48932,-2.037029 0.18988,-0.222119 0.47666,-0.599869 0.63956,-0.842462 0.62517,-0.931002 1.08209,-1.968113 1.37077,-3.111252 0.0716,-0.283335 -0.11952,-0.515939 -0.41177,-0.515939 h -1.63451 c -0.29225,0 -0.59099,0.229044 -0.688,0.504665 -0.24205,0.68765 -0.5709,1.310888 -0.9865,1.869771 -0.17435,0.234459 -0.48487,0.593387 -0.69046,0.801007 -0.46433,0.468906 -0.9787,0.858716 -1.54321,1.16943 -0.25597,0.140888 -0.6885,0.336343 -0.9628,0.437007 -0.58911,0.216195 -1.19098,0.348268 -1.80558,0.396222 -0.29129,0.02273 -0.76585,0.02251 -1.05746,0.004 -0.93759,-0.05965 -1.79134,-0.280553 -2.56118,-0.662787 -0.26168,-0.129927 -0.66605,-0.378913 -0.90031,-0.553502 -0.67993,-0.506733 -1.2427,-1.143192 -1.68843,-1.909446 -0.14692,-0.252566 -0.35414,-0.679475 -0.46287,-0.950685 -0.36158,-0.90192 -0.56698,-1.904563 -0.6162,-3.007776 -0.013,-0.291939 -0.0116,-0.765916 -0.0116,-1.058167 v -6.403108 c 0,-0.292251 -0.001,-0.766226 0.0117,-1.058162 0.0492,-1.100296 0.25402,-2.096723 0.61455,-2.989438 0.10942,-0.270928 0.31668,-0.69781 0.46235,-0.951094 0.44611,-0.775653 1.00966,-1.417929 1.69077,-1.926828 0.23405,-0.174872 0.63731,-0.425652 0.89789,-0.557762 0.77043,-0.390592 1.62492,-0.616344 2.56342,-0.677257 0.29159,-0.01893 0.76621,-0.01923 1.05738,0.0048 0.61615,0.05096 1.21951,0.191573 1.81005,0.421877 0.27221,0.106163 0.70011,0.311515 0.95362,0.456777 0.56662,0.324661 1.08276,0.723596 1.54854,1.196856 0.20497,0.208253 0.51548,0.567086 0.69091,0.800741 0.41099,0.54738 0.73709,1.146832 0.97824,1.798304 0.10143,0.274024 0.40301,0.502318 0.69526,0.502318 h 1.63451 c 0.29225,0 0.48333,-0.232604 0.41171,-0.515915 -0.28838,-1.140773 -0.74464,-2.17206 -1.36878,-3.093864 -0.16383,-0.241967 -0.4493,-0.620681 -0.63678,-0.844824 -0.70034,-0.837312 -1.5256,-1.521253 -2.47568,-2.051743 -0.25514,-0.142457 -0.6818,-0.349615 -0.95149,-0.462104 -1.02374,-0.427002 -2.12028,-0.668253 -3.2897,-0.723751 -0.2919,-0.01385 -0.76603,-0.01377 -1.05798,-0.001 z m 41.71696,-0.0022 c -1.58252,0.05587 -2.97561,0.365718 -4.17919,0.929545 -0.26461,0.123957 -0.68038,0.352425 -0.92643,0.510037 -1.05648,0.676756 -1.90606,1.571909 -2.54875,2.685461 -0.14606,0.253084 -0.35791,0.677475 -0.4731,0.94602 -0.5432,1.26634 -0.84036,2.737809 -0.89147,4.41421 -0.009,0.292103 -0.008,0.766001 -0.008,1.058252 v 6.646024 c 0,0.292251 -9.4e-4,0.76615 0.008,1.058253 0.0511,1.676401 0.34827,3.147869 0.89147,4.414209 0.11519,0.268545 0.32703,0.692932 0.4731,0.946013 0.64268,1.113552 1.49226,2.008706 2.54874,2.685463 0.24605,0.157613 0.66183,0.386084 0.92644,0.510041 1.20358,0.563828 2.59667,0.873676 4.17919,0.929546 0.29206,0.01031 0.76607,0.01031 1.05812,-5e-6 1.58022,-0.05584 2.96726,-0.365201 4.16114,-0.928097 0.2643,-0.124611 0.68005,-0.353103 0.92675,-0.509698 1.0665,-0.676984 1.92178,-1.57276 2.56605,-2.68733 0.14624,-0.252985 0.35807,-0.677389 0.47326,-0.945934 0.5432,-1.266341 0.84036,-2.737809 0.89147,-4.414209 0.009,-0.292103 0.008,-0.766001 0.008,-1.058252 v -6.646024 c 0,-0.292251 9.4e-4,-0.76615 -0.008,-1.058253 -0.0511,-1.676402 -0.34827,-3.14787 -0.89147,-4.41421 -0.11519,-0.268545 -0.32702,-0.692945 -0.47326,-0.945927 -0.64426,-1.114571 -1.49955,-2.010348 -2.56604,-2.687333 -0.2467,-0.156598 -0.66246,-0.385092 -0.92676,-0.509703 -1.19388,-0.562894 -2.58092,-0.872258 -4.16114,-0.928094 -0.29206,-0.01032 -0.76607,-0.01032 -1.05812,-5e-6 z m -86.902888,0.767792 -9.65724,26.197488 c -0.08879,0.240854 0.08944,0.496506 0.346139,0.496506 h 1.933815 c 0.317237,0 0.600123,-0.199698 0.706337,-0.498626 l 1.991246,-5.604159 c 0.106214,-0.298928 0.3891,-0.498626 0.706337,-0.498626 h 11.566928 c 0.317237,0 0.600123,0.199698 0.706337,0.498626 l 1.991245,5.604159 c 0.106214,0.298928 0.3891,0.498626 0.706337,0.498626 h 1.933816 c 0.256697,0 0.434922,-0.255652 0.346134,-0.496504 L 74.821844,65.687333 C 74.711866,65.389 74.427603,65.190829 74.109644,65.190829 h -2.195527 c -0.317958,0 -0.60222,0.198173 -0.712195,0.496506 z m 119.779818,0.03266 v 26.132166 c 0,0.292252 0.23692,0.529169 0.52917,0.529167 h 1.63451 8.34055 c 0.29225,0 0.76622,0.0014 1.05817,-0.01133 1.18731,-0.05158 2.25956,-0.279262 3.2169,-0.68297 0.26923,-0.113535 0.69294,-0.327159 0.94378,-0.477009 0.83001,-0.495842 1.51018,-1.1283 2.04037,-1.897303 0.16585,-0.240545 0.40315,-0.651682 0.52933,-0.915209 0.41564,-0.868069 0.65263,-1.832221 0.71111,-2.892614 0.0161,-0.291771 0.0144,-0.554022 0.0144,-0.585005 -0.064,-1.219464 -0.20262,-1.877647 -0.43344,-2.503269 -0.10114,-0.274119 -0.29905,-0.705641 -0.4426,-0.960114 -0.317,-0.561974 -0.71247,-1.058605 -1.1863,-1.489893 -0.21606,-0.196667 -0.59168,-0.487347 -0.83791,-0.644559 -0.56424,-0.360248 -1.19436,-0.618894 -1.89041,-0.775938 -0.28502,-0.06431 -0.28634,-0.136917 -0.003,-0.208343 0.67738,-0.170762 1.27789,-0.4237 1.80152,-0.758817 0.24604,-0.157468 0.61885,-0.451925 0.83273,-0.65096 0.41316,-0.384484 0.75392,-0.811009 1.02234,-1.279534 0.14522,-0.253482 0.33711,-0.688038 0.43229,-0.964265 0.17702,-0.513694 0.28686,-1.045906 0.32945,-1.596681 0.0225,-0.291312 0.0217,-0.765729 0.008,-1.057631 -0.0512,-1.09038 -0.2635,-2.06431 -0.63668,-2.921792 -0.11659,-0.267901 -0.33979,-0.687005 -0.49979,-0.931453 -0.48487,-0.740794 -1.12569,-1.351596 -1.92261,-1.832338 -0.25019,-0.150925 -0.67406,-0.364509 -0.94414,-0.475977 -0.96585,-0.398626 -2.10036,-0.621344 -3.40336,-0.668154 -0.29204,-0.01049 -0.76597,-0.0093 -1.05822,-0.0093 h -6.96411 -2.69285 c -0.29225,-2e-6 -0.52917,0.236915 -0.52917,0.529167 z m -159.14439,0.01964 v 55.538925 c 0,0.29225 4.52e-4,0.7661 -0.004,1.05832 -0.07475,4.89399 -1.194399,8.75623 -3.359237,11.58659 -0.177508,0.23208 -0.480305,0.5968 -0.67629,0.81356 -2.306921,2.55153 -5.459195,3.88081 -9.456548,3.9877 -0.292178,0.008 -0.766135,0.008 -1.058294,6.5e-4 -2.405453,-0.0581 -4.623289,-0.51486 -6.653636,-1.37007 -0.269321,-0.11345 -0.6989429,-0.31366 -0.9588856,-0.4472 -1.9278815,-0.9904 -3.5341916,-2.31385 -4.8189323,-3.97035 -0.1790987,-0.23092 -0.4815409,-0.25392 -0.6850229,-0.0442 l -3.79805744,3.91552 c -0.203482,0.20977 -0.22843069,0.57102 -0.0483063,0.80115 1.69143884,2.16102 3.82620344,3.89101 6.40416934,5.19013 0.2609803,0.13152 0.6901608,0.33252 0.958255,0.44885 2.6761972,1.1612 5.5646852,1.77286 8.6654752,1.83512 0.292188,0.006 0.766066,0.006 1.058279,0.001 4.139465,-0.064 7.719238,-0.88258 10.739475,-2.45618 0.25917,-0.13503 0.672263,-0.36736 0.922319,-0.51861 2.871086,-1.73662 5.102095,-4.13921 6.692753,-7.20748 0.134507,-0.25946 0.342563,-0.68527 0.46477,-0.95074 0.90302,-1.96157 1.543812,-4.13753 1.924783,-6.52623 0.04603,-0.2886 0.08244,-0.52326 0.08692,-0.52326 v -0.06 c 0.223651,-1.7805 0.310857,-3.09153 0.328686,-4.45935 0.0038,-0.29222 0.0034,-0.76607 0.0034,-1.05832 v -2.18767 c 0,-0.34212 0.118832,-0.67362 0.336182,-0.93782 l 3.430306,-4.1698 c 0.16365,-0.19895 0.475091,-0.17534 0.606885,0.046 l 7.366038,12.37228 c 0.167858,0.28193 0.471747,0.45468 0.79987,0.45468 h 3.616567 c 0.233321,0 0.377764,-0.25417 0.258363,-0.45462 L 45.652019,110.7824 c -0.162463,-0.27275 -0.136307,-0.61811 0.06538,-0.86327 l 8.060323,-9.79786 c 0.134133,-0.163049 0.01815,-0.408656 -0.192983,-0.408656 h -3.635642 c -0.33412,0 -0.649771,0.153292 -0.856367,0.415886 l -10.19607,12.95953 c -0.107549,0.1367 -0.327205,0.0606 -0.3272,-0.11329 V 65.739632 c 0,-0.292244 -0.236906,-0.529158 -0.52915,-0.529167 l -5.673793,5e-6 c -0.292251,0 -0.529167,0.236916 -0.529167,0.529167 z M 159.1628,67.42991 c 1.01317,0.05289 1.91429,0.260596 2.70339,0.623208 0.26546,0.121988 0.67943,0.354801 0.92083,0.519358 0.67576,0.460663 1.22788,1.054232 1.65638,1.780707 0.14843,0.251657 0.35529,0.678953 0.46265,0.950689 0.34097,0.863001 0.53425,1.853006 0.58002,2.970017 0.012,0.291983 0.0106,0.765934 0.0106,1.058185 v 6.908016 c 0,0.292251 0.001,0.766204 -0.0106,1.05819 -0.0458,1.120001 -0.23967,2.11605 -0.58169,2.988072 -0.10668,0.272005 -0.31354,0.699298 -0.46308,0.95029 -0.42864,0.719398 -0.98075,1.312224 -1.65636,1.77848 -0.24045,0.165945 -0.65441,0.398797 -0.9209,0.518524 -0.78859,0.354282 -1.689,0.557201 -2.70124,0.608899 -0.29184,0.01491 -0.76604,0.0149 -1.05788,1.5e-5 -1.01529,-0.05177 -1.92167,-0.255317 -2.71908,-0.610797 -0.26684,-0.118958 -0.68081,-0.351778 -0.92026,-0.519155 -0.66644,-0.465835 -1.2129,-1.057765 -1.63945,-1.775791 -0.14922,-0.251192 -0.3561,-0.678461 -0.4628,-0.950462 -0.34207,-0.872026 -0.53608,-1.868078 -0.58194,-2.988083 -0.012,-0.291984 -0.0106,-0.765935 -0.0106,-1.058186 V 75.33207 c 0,-0.292251 -0.001,-0.766204 0.0107,-1.058189 0.0458,-1.117014 0.23926,-2.10702 0.58027,-2.970022 0.10738,-0.271729 0.31426,-0.698994 0.46237,-0.950842 0.42641,-0.725077 0.97286,-1.31775 1.63944,-1.778024 0.24041,-0.165999 0.65443,-0.398772 0.92026,-0.519979 0.79791,-0.363821 1.705,-0.572171 2.72119,-0.625124 0.29182,-0.01521 0.52893,-0.01353 0.52893,-0.01353 z m 35.04096,0.266956 h 6.3658 c 0.29225,0 0.7662,-0.0013 1.0582,0.01018 1.43698,0.05663 2.58212,0.34964 3.43533,0.879188 0.24812,0.153996 0.61722,0.455252 0.81428,0.670732 0.62231,0.680471 0.97435,1.586202 1.05612,2.717116 0.0211,0.291403 0.0211,0.765985 -1e-5,1.05741 -0.0773,1.068643 -0.39617,1.93267 -0.9566,2.592008 -0.18908,0.222459 -0.54732,0.536969 -0.79107,0.697739 -0.76218,0.502687 -1.77366,0.784155 -3.03445,0.844404 -0.29187,0.01395 -0.76585,0.01231 -1.0581,0.01231 h -6.8895 c -0.29225,2e-6 -0.52917,-0.236915 -0.52917,-0.529167 V 68.22604 c 0,-0.292252 0.23692,-0.529169 0.52917,-0.529167 z m -121.014704,0.816436 5.067815,14.262241 c 0.08641,0.243173 -0.09392,0.498625 -0.351991,0.498624 h -9.786001 c -0.258068,0 -0.438397,-0.255451 -0.35199,-0.498624 l 5.067814,-14.262241 c 0.05926,-0.166764 0.295097,-0.166764 0.354353,0 z M 194.20376,79.6837 h 6.8895 c 0.29225,0 0.76624,-0.0016 1.05816,0.01192 0.85279,0.03944 1.59329,0.176793 2.22155,0.411988 0.27355,0.102408 0.70015,0.312455 0.94694,0.468712 0.45694,0.289318 0.83035,0.64409 1.12022,1.064356 0.1658,0.24038 0.3801,0.665432 0.48455,0.938219 0.20132,0.525756 0.32314,1.111138 0.36552,1.756098 0.0191,0.291571 0.017,0.553919 0.017,0.584902 -0.11305,1.652904 -0.50646,2.578486 -1.20146,3.30551 -0.20185,0.211147 -0.57012,0.512779 -0.81812,0.666987 -0.95951,0.596611 -2.31665,0.92162 -4.07125,0.975031 -0.2921,0.0089 -0.76601,0.0079 -1.05826,0.0079 h -5.9543 c -0.29225,2e-6 -0.52917,-0.236915 -0.52917,-0.529167 v -9.133263 c 0,-0.292252 0.23692,-0.529169 0.52917,-0.529167 z m -64.11575,19.760102 c -1.47064,0.06418 -2.79786,0.399097 -3.98177,1.004848 -0.26013,0.1331 -0.66881,0.37392 -0.91122,0.53707 -1.0674,0.71835 -1.93688,1.65407 -2.60845,2.80706 -0.14707,0.25251 -0.36312,0.67469 -0.48203,0.94161 -0.57097,1.28172 -0.88452,2.72279 -0.94064,4.32323 -0.0102,0.29206 -0.009,0.76598 -0.009,1.05823 v 6.4031 c 0,0.29225 -0.001,0.76617 0.009,1.05823 0.0561,1.60044 0.36967,3.04151 0.94064,4.32323 0.11891,0.26692 0.33496,0.6891 0.48203,0.9416 0.67157,1.15295 1.54104,2.08849 2.60844,2.8068 0.24242,0.16314 0.65189,0.40263 0.91284,0.53412 1.1835,0.59636 2.51019,0.92621 3.98015,0.98944 0.29196,0.0126 0.7661,0.0127 1.05796,-0.002 1.16067,-0.0581 2.25221,-0.30912 3.27452,-0.75317 0.26802,-0.11642 0.69062,-0.33176 0.94255,-0.47981 0.9584,-0.56323 1.79373,-1.28573 2.5061,-2.16735 0.18366,-0.22729 0.46183,-0.61137 0.62035,-0.85686 0.63353,-0.98114 1.09509,-2.07812 1.38469,-3.29103 0.0679,-0.28424 -0.12521,-0.51721 -0.41746,-0.51721 h -2.84994 c -0.29225,0 -0.58657,0.23033 -0.68215,0.50643 -0.18094,0.52263 -0.42139,0.9995 -0.72132,1.4306 -0.16685,0.23982 -0.47218,0.60371 -0.67821,0.81084 -0.3397,0.34153 -0.71243,0.62932 -1.11823,0.86341 -0.25305,0.14597 -0.68577,0.34222 -0.96159,0.43853 -0.42152,0.14719 -0.85481,0.24149 -1.29984,0.28292 -0.29089,0.0271 -0.76579,0.0269 -1.05705,0.004 -0.7015,-0.0559 -1.34351,-0.22533 -1.92604,-0.50835 -0.26274,-0.12765 -0.6642,-0.38232 -0.89242,-0.56467 -0.503,-0.40192 -0.92585,-0.89726 -1.2686,-1.48613 -0.14697,-0.25251 -0.34992,-0.68176 -0.45328,-0.95504 -0.26887,-0.71091 -0.42599,-1.49434 -0.47128,-2.35028 -0.0154,-0.29181 -0.0138,-0.76585 -0.0138,-1.0581 v -6.4031 c 0,-0.29225 -0.002,-0.76628 0.0135,-1.0581 0.0449,-0.86217 0.20153,-1.64584 0.46986,-2.351 0.1039,-0.27306 0.30797,-0.70179 0.45493,-0.95431 0.34275,-0.58894 0.76561,-1.08442 1.26862,-1.4864 0.2282,-0.18236 0.62827,-0.43921 0.88972,-0.56947 0.58325,-0.29058 1.22617,-0.46456 1.92876,-0.52188 0.2912,-0.0238 0.76625,-0.024 1.05686,0.006 0.44269,0.0452 0.8775,0.14774 1.30441,0.30742 0.27363,0.10235 0.70131,0.30923 0.95108,0.46075 0.40994,0.24869 0.78619,0.54998 1.12877,0.90391 0.2032,0.20993 0.5068,0.57502 0.67555,0.81351 0.29324,0.41444 0.52953,0.86175 0.70885,1.34191 0.10221,0.27371 0.40059,0.50306 0.69284,0.50306 h 2.84994 c 0.29225,0 0.48533,-0.23296 0.41747,-0.5172 -0.2896,-1.21296 -0.75117,-2.31013 -1.3847,-3.29131 -0.15851,-0.2455 -0.43535,-0.63054 -0.61791,-0.85872 -0.70317,-0.87887 -1.53264,-1.59532 -2.48833,-2.14954 -0.25278,-0.14659 -0.67539,-0.36189 -0.94263,-0.4801 -1.02515,-0.453487 -2.12334,-0.709657 -3.29465,-0.768512 -0.29185,-0.01467 -0.766,-0.0145 -1.05795,-0.0018 z m -70.719347,0.798258 v 26.13188 c -2e-6,0.29225 0.236915,0.52917 0.529167,0.52917 h 2.756538 13.651351 c 0.292252,0 0.529169,-0.23692 0.529167,-0.52917 v -2.56943 c 2e-6,-0.29225 -0.236915,-0.52917 -0.529167,-0.52917 H 63.712702 c -0.292252,0 -0.529169,-0.23692 -0.529167,-0.52917 v -22.50411 c -10e-7,-0.29225 -0.236917,-0.529164 -0.529167,-0.529164 H 59.89783 c -0.29225,0 -0.529166,0.236914 -0.529167,0.529164 z m 21.954308,0 v 26.13188 c -2e-6,0.29225 0.236915,0.52917 0.529167,0.52917 h 2.756538 c 0.292252,0 0.529169,-0.23692 0.529167,-0.52917 v -26.13188 c -10e-7,-0.29225 -0.236917,-0.529164 -0.529167,-0.529164 h -2.756538 c -0.29225,0 -0.529166,0.236914 -0.529167,0.529164 z m 10.546998,0 v 26.13188 c -2e-6,0.29225 0.236915,0.52917 0.529167,0.52917 h 2.66285 c 0.292252,0 0.529169,-0.23692 0.529167,-0.52917 v -17.31643 c -4.9e-5,-0.12159 0.165962,-0.15695 0.21547,-0.0459 l 6.076787,13.63059 c 0.13106,0.29396 0.42279,0.48331 0.74464,0.48331 h 1.5972 c 0.32133,0 0.61207,-0.19058 0.74025,-0.48524 l 6.08556,-13.98971 c 0.0476,-0.10948 0.21105,-0.0755 0.21108,0.0439 v 17.67941 c 0,0.29225 0.23692,0.52917 0.52917,0.52917 h 2.66313 c 0.29225,0 0.52917,-0.23692 0.52917,-0.52917 v -26.13188 c 0,-0.292251 -0.23692,-0.529166 -0.52917,-0.529164 h -2.51362 c -0.3218,-2e-6 -0.61344,0.189464 -0.74422,0.483494 l -7.55476,16.98534 c -0.0829,0.18629 -0.34725,0.18629 -0.43011,0 L 95.6567,100.19639 c -0.130784,-0.294029 -0.422421,-0.483494 -0.744224,-0.483494 h -2.51334 c -0.29225,0 -0.529166,0.236914 -0.529167,0.529164 z m 50.883661,0 v 2.56944 c 0,0.29225 0.23692,0.52917 0.52917,0.52917 h 10.53578 c 0.23404,0 0.37947,0.25434 0.26076,0.45604 l -11.39391,19.35919 c -0.17574,0.29859 -0.26841,0.63875 -0.26841,0.98521 v 2.23283 c 0,0.29225 0.23692,0.52917 0.52917,0.52917 h 15.84687 c 0.29225,0 0.52917,-0.23692 0.52917,-0.52917 v -2.56943 c 0,-0.29225 -0.23692,-0.52917 -0.52917,-0.52917 h -11.15317 c -0.23451,0 -0.38059,-0.25444 -0.26233,-0.45696 l 11.30364,-19.35735 c 0.17475,-0.29926 0.26684,-0.63958 0.26684,-0.98613 v -2.23284 c 0,-0.292251 -0.23692,-0.529166 -0.52917,-0.529164 H 143.2828 c -0.29225,-2e-6 -0.52917,0.236913 -0.52917,0.529164 z m 28.84001,-0.0327 -9.65752,26.19721 c -0.0888,0.24085 0.0894,0.4965 0.34614,0.4965 h 3.05583 c 0.31659,0 0.59825,-0.20104 0.70112,-0.50045 l 1.70576,-4.9646 c 0.10287,-0.29941 0.38453,-0.50045 0.70112,-0.50045 h 9.91502 c 0.31659,0 0.59824,0.20105 0.7011,0.50046 l 1.70552,4.96458 c 0.10286,0.29941 0.38451,0.50046 0.7011,0.50046 h 3.05583 c 0.2567,0 0.43493,-0.25565 0.34614,-0.49651 l -9.65724,-26.1972 c -0.10998,-0.298333 -0.39424,-0.496505 -0.7122,-0.496503 l -2.19552,-10e-7 c -0.31796,0 -0.60222,0.198172 -0.7122,0.496504 z m 17.57436,0.0327 v 26.13188 c 0,0.29225 0.23692,0.52917 0.52917,0.52917 h 2.75653 c 0.29225,0 0.52917,-0.23692 0.52917,-0.52917 v -6.83255 c 0,-0.34212 0.11883,-0.67362 0.33618,-0.93782 l 3.76242,-4.57345 c 0.16365,-0.19894 0.47508,-0.17533 0.60688,0.046 l 7.36604,12.37228 c 0.16786,0.28194 0.47175,0.45468 0.79987,0.45468 h 3.61657 c 0.23332,0 0.37777,-0.25416 0.25837,-0.45462 l -9.33163,-15.66581 c -0.16246,-0.27275 -0.13629,-0.61811 0.0654,-0.86327 l 8.06033,-9.79786 c 0.13413,-0.163049 0.0181,-0.40866 -0.19299,-0.408654 h -3.63563 c -0.33412,-1e-6 -0.64977,0.153291 -0.85637,0.415884 l -10.52822,13.38172 c -0.10755,0.1367 -0.32721,0.0606 -0.3272,-0.11329 v -13.15515 c 0,-0.292251 -0.23692,-0.529166 -0.52917,-0.529164 h -2.75653 c -0.29225,-2e-6 -0.52917,0.236913 -0.52917,0.529164 z m -15.59247,5.226 3.89626,11.34131 c 0.0842,0.24522 -0.098,0.50046 -0.35724,0.50046 h -7.42218 c -0.25928,0 -0.44147,-0.25524 -0.35723,-0.50045 l 3.89652,-11.34133 c 0.0562,-0.16364 0.28766,-0.16363 0.34387,10e-6 z"
         id="path1121" />
      <path
         style="color:#000000;font-style:normal;font-variant:normal;font-weight:300;font-stretch:normal;font-size:70.5556px;line-height:1.25;font-family:Bahnschrift;-inkscape-font-specification:'Bahnschrift Light';font-variant-ligatures:normal;font-variant-position:normal;font-variant-caps:normal;font-variant-numeric:normal;font-variant-alternates:normal;font-variant-east-asian:normal;font-feature-settings:normal;font-variation-settings:normal;text-indent:0;text-align:start;text-decoration:none;text-decoration-line:none;text-decoration-style:solid;text-decoration-color:#000000;letter-spacing:normal;word-spacing:normal;text-transform:none;writing-mode:lr-tb;direction:ltr;text-orientation:mixed;dominant-baseline:auto;baseline-shift:baseline;text-anchor:start;white-space:normal;shape-padding:0;shape-margin:0;inline-size:0;clip-rule:nonzero;display:inline;overflow:visible;visibility:visible;isolation:auto;mix-blend-mode:normal;color-interpolation:sRGB;color-interpolation-filters:linearRGB;solid-color:#000000;solid-opacity:1;vector-effect:none;fill-opacity:1;fill-rule:nonzero;stroke-width:0.143619;stroke-linecap:butt;stroke-linejoin:miter;stroke-miterlimit:4;stroke-dasharray:none;stroke-dashoffset:0;stroke-opacity:1.0;color-rendering:auto;image-rendering:auto;shape-rendering:auto;text-rendering:auto;enable-background:accumulate;stop-color:#000000;stop-opacity:1;stroke:none;"
         d="M 158.10156 64.847656 C 156.51117 64.903804 155.10824 65.214633 153.89453 65.783203 C 153.62539 65.909281 153.21139 66.138399 152.96094 66.298828 C 151.89496 66.981666 151.03673 67.884961 150.38867 69.007812 C 150.24027 69.264961 150.02907 69.690221 149.91211 69.962891 C 149.3647 71.239032 149.065 72.718748 149.01367 74.402344 C 149.00459 74.697 149.00586 75.170803 149.00586 75.462891 L 149.00586 82.109375 C 149.00586 82.401472 149.00465 82.875291 149.01367 83.169922 C 149.06499 84.853518 149.36471 86.333234 149.91211 87.609375 C 150.02907 87.882044 150.24025 88.305351 150.38867 88.5625 C 151.03672 89.685352 151.89496 90.590599 152.96094 91.273438 C 153.21139 91.433868 153.62539 91.662985 153.89453 91.789062 C 155.10824 92.357633 156.51117 92.668462 158.10156 92.724609 C 158.39636 92.735016 158.87123 92.735021 159.16602 92.724609 C 160.75411 92.668491 162.15136 92.35678 163.35547 91.789062 C 163.62412 91.662399 164.03823 91.43461 164.28906 91.275391 C 165.36509 90.592356 166.2292 89.686477 166.87891 88.5625 C 167.02752 88.305401 167.23851 87.882042 167.35547 87.609375 C 167.90287 86.333232 168.20258 84.853517 168.25391 83.169922 C 168.26298 82.875266 168.26172 82.401462 168.26172 82.109375 L 168.26172 75.462891 C 168.26172 75.170794 168.26292 74.696974 168.25391 74.402344 C 168.20259 72.718746 167.90287 71.239032 167.35547 69.962891 C 167.23851 69.690224 167.02752 69.264908 166.87891 69.007812 C 166.22921 67.883834 165.36508 66.979911 164.28906 66.296875 C 164.03823 66.137652 163.62412 65.909866 163.35547 65.783203 C 162.15136 65.215488 160.75411 64.90377 159.16602 64.847656 C 158.87122 64.837239 158.39635 64.837245 158.10156 64.847656 z M 116.38281 64.849609 C 114.90399 64.914442 113.56623 65.252745 112.37305 65.863281 C 112.1088 65.998493 111.70136 66.238562 111.45508 66.404297 C 110.37871 67.128644 109.50084 68.072735 108.82422 69.234375 C 108.67501 69.490535 108.4585 69.912843 108.33789 70.183594 C 107.76275 71.474661 107.44897 72.924916 107.39258 74.533203 C 107.38228 74.828164 107.38281 75.301696 107.38281 75.59375 L 107.38281 81.996094 C 107.38281 82.288181 107.38248 82.761766 107.39258 83.056641 L 107.39258 83.058594 C 107.44895 84.666883 107.76275 86.117136 108.33789 87.408203 C 108.4585 87.678954 108.67501 88.099309 108.82422 88.355469 C 109.50084 89.517152 110.37871 90.463104 111.45508 91.1875 C 111.70157 91.353387 112.10972 91.590937 112.375 91.724609 C 113.56827 92.325883 114.90595 92.65904 116.38477 92.722656 C 116.68004 92.735359 117.15358 92.734964 117.44922 92.720703 C 118.61641 92.664469 119.71488 92.421932 120.74414 91.992188 C 121.01786 91.877906 121.44401 91.671535 121.70312 91.527344 C 122.66147 90.994065 123.49896 90.30778 124.21289 89.472656 C 124.4057 89.247116 124.69201 88.871333 124.85742 88.625 C 125.48732 87.686951 125.94772 86.640817 126.23828 85.490234 C 126.27894 85.329327 126.24406 85.175907 126.1543 85.064453 C 126.06453 84.952999 125.92104 84.884766 125.75586 84.884766 L 124.12109 84.884766 C 123.79132 84.884766 123.47539 85.130081 123.36719 85.4375 C 123.12739 86.118754 122.80179 86.736137 122.39062 87.289062 C 122.2197 87.51892 121.90699 87.878126 121.70508 88.082031 C 121.2454 88.546235 120.73811 88.930916 120.17969 89.238281 C 119.92908 89.37622 119.49556 89.573157 119.22656 89.671875 C 118.64342 89.885879 118.04748 90.017012 117.43945 90.064453 C 117.15423 90.08671 116.67931 90.08656 116.39258 90.068359 C 115.46344 90.009247 114.62014 89.78984 113.85938 89.412109 C 113.60403 89.285329 113.19749 89.035711 112.96875 88.865234 C 112.2967 88.364372 111.74199 87.735047 111.30078 86.976562 C 111.15679 86.72903 110.94849 86.303228 110.8418 86.037109 C 110.48356 85.143532 110.27938 84.148996 110.23047 83.052734 C 110.21763 82.764475 110.21875 82.288574 110.21875 81.996094 L 110.21875 75.59375 C 110.21875 75.301335 110.21792 74.827463 110.23047 74.539062 C 110.27936 73.445719 110.48273 72.456533 110.83984 71.572266 C 110.94728 71.306247 111.15587 70.879434 111.29883 70.630859 C 111.74045 69.863012 112.29759 69.229489 112.9707 68.726562 C 113.19944 68.55566 113.60288 68.302876 113.85742 68.173828 C 114.61871 67.787873 115.46271 67.566212 116.39258 67.505859 C 116.67919 67.487253 117.15471 67.486266 117.43945 67.509766 C 118.04863 67.560149 118.64418 67.699851 119.22852 67.927734 C 119.49525 68.031764 119.92523 68.23646 120.17383 68.378906 C 120.73475 68.700304 121.2457 69.095716 121.70703 69.564453 C 121.90851 69.769155 122.21843 70.128073 122.39062 70.357422 C 122.79745 70.899257 123.12056 71.491563 123.35938 72.136719 C 123.47238 72.442023 123.7934 72.6875 124.12305 72.6875 L 125.75586 72.6875 C 125.92104 72.6875 126.06454 72.619266 126.1543 72.507812 C 126.24405 72.396359 126.27895 72.242925 126.23828 72.082031 C 125.94801 70.93378 125.48835 69.893784 124.85938 68.964844 C 124.69334 68.719613 124.40875 68.342394 124.21875 68.115234 C 123.51295 67.271389 122.68022 66.579591 121.72266 66.044922 C 121.46364 65.900298 121.03744 65.694267 120.76367 65.580078 C 119.73199 65.149762 118.62636 64.907427 117.44922 64.851562 C 117.15363 64.837537 116.68009 64.836692 116.38477 64.849609 L 116.38281 64.849609 z M 158.10742 64.992188 C 158.39673 64.981969 158.87084 64.981964 159.16016 64.992188 C 160.7325 65.047745 162.10931 65.354037 163.29297 65.912109 C 163.55292 66.034668 163.97033 66.263996 164.21289 66.417969 C 165.26985 67.088903 166.11508 67.974914 166.75391 69.080078 C 166.89777 69.328946 167.11119 69.755108 167.22461 70.019531 C 167.76361 71.27607 168.05849 72.737043 168.10938 74.40625 C 168.11824 74.695825 168.11719 75.170486 168.11719 75.462891 L 168.11719 82.109375 C 168.11719 82.40179 168.1183 82.876466 168.10938 83.166016 C 168.05848 84.835221 167.7636 86.296195 167.22461 87.552734 C 167.11119 87.817158 166.89777 88.243316 166.75391 88.492188 C 166.11507 89.597351 165.26986 90.483364 164.21289 91.154297 C 163.97033 91.308267 163.55292 91.537598 163.29297 91.660156 C 162.10931 92.218231 160.7325 92.524516 159.16016 92.580078 C 158.87085 92.590296 158.39674 92.590291 158.10742 92.580078 C 156.53277 92.524486 155.15049 92.217288 153.95703 91.658203 C 153.69695 91.536367 153.27876 91.307139 153.03711 91.152344 C 151.99012 90.481669 151.14903 89.59644 150.51172 88.492188 C 150.368 88.243175 150.15639 87.817155 150.04297 87.552734 C 149.50397 86.296196 149.20908 84.835221 149.1582 83.166016 C 149.14934 82.87644 149.15039 82.40178 149.15039 82.109375 L 149.15039 75.462891 C 149.15039 75.170476 149.14928 74.6958 149.1582 74.40625 C 149.20909 72.737044 149.50397 71.27607 150.04297 70.019531 C 150.15639 69.755111 150.368 69.329097 150.51172 69.080078 C 151.14904 67.975825 151.99012 67.090596 153.03711 66.419922 C 153.27876 66.265127 153.69695 66.035899 153.95703 65.914062 C 155.15049 65.354978 156.53277 65.04778 158.10742 64.992188 z M 116.39062 64.994141 C 116.6792 64.981518 117.15515 64.980466 117.44336 64.994141 C 118.60506 65.049272 119.69124 65.289203 120.70703 65.712891 C 120.97265 65.82368 121.40108 66.031584 121.65234 66.171875 C 122.59494 66.698186 123.41255 67.376253 124.10742 68.207031 C 124.29238 68.428157 124.57861 68.806218 124.74023 69.044922 C 125.35954 69.95959 125.81312 70.983893 126.09961 72.117188 C 126.13056 72.239604 126.10391 72.342293 126.04297 72.417969 C 125.98203 72.493645 125.88293 72.542969 125.75586 72.542969 L 124.12305 72.542969 C 123.86819 72.542969 123.58399 72.330634 123.49414 72.087891 C 123.25065 71.430103 122.92101 70.82441 122.50586 70.271484 C 122.3272 70.033523 122.01706 69.674694 121.80859 69.462891 C 121.33836 68.985107 120.81646 68.581831 120.24414 68.253906 C 119.98572 68.105829 119.55893 67.901265 119.28125 67.792969 C 118.6845 67.560244 118.0743 67.418724 117.45117 67.367188 C 117.15358 67.342627 116.67938 67.342075 116.38281 67.361328 C 115.43568 67.422801 114.57255 67.651646 113.79297 68.046875 C 113.52635 68.182047 113.12413 68.432487 112.88477 68.611328 C 112.19566 69.126199 111.62443 69.775135 111.17383 70.558594 C 111.02545 70.816587 110.81843 71.243693 110.70703 71.519531 C 110.34309 72.420694 110.1374 73.425955 110.08789 74.533203 C 110.07504 74.828674 110.07617 75.301663 110.07617 75.59375 L 110.07617 81.996094 C 110.07617 82.288115 110.07473 82.762975 110.08789 83.058594 C 110.13742 84.168758 110.34406 85.179581 110.70898 86.089844 C 110.81976 86.366145 111.02593 86.791229 111.17578 87.048828 C 111.62603 87.822851 112.195 88.467865 112.88281 88.980469 C 113.12259 89.15917 113.5269 89.407942 113.79492 89.541016 C 114.57383 89.927753 115.43677 90.15075 116.38281 90.210938 C 116.6793 90.229757 117.15382 90.230235 117.45117 90.207031 C 118.07234 90.158565 118.68031 90.025027 119.27539 89.806641 C 119.55499 89.704031 119.98672 89.509072 120.24805 89.365234 C 120.81864 89.051172 121.33961 88.657202 121.80859 88.183594 C 122.01786 87.972259 122.32809 87.61406 122.50586 87.375 C 122.92589 86.810159 123.25765 86.180375 123.50195 85.486328 C 123.58777 85.242505 123.86636 85.029297 124.12109 85.029297 L 125.75586 85.029297 C 125.88293 85.029297 125.98201 85.078615 126.04297 85.154297 C 126.10392 85.229978 126.13055 85.33265 126.09961 85.455078 C 125.81281 86.590773 125.35872 87.620967 124.73828 88.544922 C 124.57789 88.783775 124.29047 89.162161 124.10352 89.380859 C 123.40039 90.203337 122.57656 90.875234 121.63281 91.400391 C 121.38125 91.540375 120.95506 91.748479 120.68945 91.859375 C 119.67597 92.282533 118.59308 92.522639 117.44141 92.578125 C 117.15328 92.592024 116.67927 92.590542 116.39062 92.578125 C 114.92952 92.515271 113.61321 92.189098 112.43945 91.597656 C 112.18284 91.468351 111.77351 91.22877 111.53516 91.068359 C 110.47674 90.356047 109.61572 89.427502 108.94922 88.283203 C 108.80427 88.034351 108.58791 87.612713 108.4707 87.349609 C 107.90389 86.07724 107.59098 84.645315 107.53516 83.052734 C 107.52525 82.763497 107.52734 82.288509 107.52734 81.996094 L 107.52734 75.59375 C 107.52734 75.301302 107.52506 74.826261 107.53516 74.537109 C 107.591 72.944528 107.90389 71.514556 108.4707 70.242188 C 108.58791 69.979084 108.80427 69.555493 108.94922 69.306641 C 109.61571 68.162391 110.47674 67.235706 111.53516 66.523438 C 111.77373 66.362891 112.18344 66.121232 112.43945 65.990234 C 113.61356 65.389462 114.92899 65.057968 116.39062 64.994141 z M 71.914062 65.119141 C 71.566267 65.119141 71.255061 65.33578 71.134766 65.662109 L 61.476562 91.859375 C 61.371285 92.144965 61.586249 92.453125 61.890625 92.453125 L 63.824219 92.453125 C 64.171591 92.453125 64.483306 92.233574 64.599609 91.90625 L 66.589844 86.302734 C 66.685968 86.032203 66.941415 85.851562 67.228516 85.851562 L 78.794922 85.851562 C 79.082023 85.851562 79.33747 86.032203 79.433594 86.302734 L 81.425781 91.90625 C 81.542085 92.233574 81.851846 92.453125 82.199219 92.453125 L 84.132812 92.453125 C 84.437187 92.453125 84.652154 92.144963 84.546875 91.859375 L 74.888672 65.662109 C 74.768373 65.335781 74.457171 65.11914 74.109375 65.119141 L 71.914062 65.119141 z M 191.51172 65.119141 C 191.23225 65.119139 191.07065 65.367854 191.00391 65.626953 L 190.91016 65.496094 L 190.91016 65.720703 L 190.91016 91.851562 C 190.91016 92.182624 191.18066 92.453127 191.51172 92.453125 L 193.14453 92.453125 L 201.48633 92.453125 C 201.77835 92.453125 202.25132 92.454294 202.54688 92.441406 C 203.74147 92.38951 204.82294 92.161318 205.78906 91.753906 C 206.06315 91.638321 206.48658 91.424183 206.74219 91.271484 C 207.58045 90.770713 208.26865 90.130999 208.80469 89.353516 C 208.97407 89.107843 209.21108 88.696652 209.33984 88.427734 C 209.75984 87.550575 209.99771 86.57842 210.05664 85.509766 C 210.07289 85.215353 210.07227 84.948278 210.07227 84.919922 L 210.07227 84.917969 L 210.07227 84.916016 C 210.00805 83.692483 209.86802 83.024785 209.63477 82.392578 C 209.53157 82.112879 209.33424 81.682005 209.1875 81.421875 C 208.86684 80.853409 208.46574 80.350434 207.98633 79.914062 C 207.76568 79.713217 207.39082 79.422711 207.13867 79.261719 C 206.56713 78.896811 205.9281 78.635284 205.22461 78.476562 C 205.17377 78.465091 205.14587 78.453979 205.11719 78.443359 C 205.14553 78.432025 205.17401 78.42096 205.22461 78.408203 C 205.90853 78.235792 206.51607 77.978382 207.04688 77.638672 C 207.29941 77.477048 207.67018 77.183792 207.88867 76.980469 C 208.30681 76.591356 208.65367 76.158554 208.92578 75.683594 C 209.07503 75.423071 209.26597 74.989432 209.36328 74.707031 C 209.5423 74.187544 209.65422 73.650442 209.69727 73.09375 C 209.72024 72.79634 209.71894 72.322755 209.70508 72.027344 C 209.65354 70.929675 209.43964 69.946666 209.0625 69.080078 C 208.94346 68.806556 208.72048 68.387031 208.55664 68.136719 C 208.0658 67.386801 207.4167 66.769046 206.61133 66.283203 C 206.35608 66.129226 205.93174 65.916435 205.65625 65.802734 C 204.68079 65.400141 203.53819 65.175956 202.22852 65.128906 C 201.9335 65.118309 201.46002 65.119141 201.16797 65.119141 L 194.20312 65.119141 L 191.51172 65.119141 z M 32.367188 65.138672 C 32.036128 65.138672 31.765625 65.409175 31.765625 65.740234 L 31.765625 121.2793 C 31.765625 121.57162 31.766152 122.04497 31.761719 122.33594 C 31.687127 127.21956 30.570914 131.0641 28.417969 133.87891 C 28.242346 134.10852 27.937928 134.47512 27.744141 134.68945 C 25.450723 137.22605 22.322303 138.54585 18.339844 138.65234 C 18.04979 138.66029 17.575363 138.6616 17.285156 138.6543 C 14.88772 138.59639 12.677786 138.14056 10.65625 137.28906 C 10.389605 137.17674 9.9604108 136.97593 9.703125 136.84375 C 7.7839508 135.85782 6.1865308 134.54276 4.9082031 132.89453 C 4.7065259 132.6345 4.3453068 132.60662 4.1152344 132.84375 L 0.31640625 136.75977 C 0.086278758 136.997 0.059082541 137.39291 0.26367188 137.6543 C 1.9617208 139.82376 4.1047884 141.56175 6.6914062 142.86523 C 6.9543831 142.99776 7.3841662 143.19724 7.6542969 143.31445 C 10.339356 144.4795 13.23637 145.09382 16.345703 145.15625 C 16.639484 145.16228 17.114662 145.16127 17.408203 145.15625 C 21.556492 145.09211 25.14788 144.27299 28.179688 142.69336 C 28.441061 142.55718 28.85331 142.3244 29.105469 142.17188 C 31.987555 140.4286 34.227983 138.01458 35.824219 134.93555 C 35.959575 134.67445 36.16806 134.24952 36.291016 133.98242 C 37.197075 132.01425 37.838828 129.83187 38.220703 127.4375 C 38.243731 127.29312 38.265887 127.16277 38.28125 127.06836 C 38.288516 127.02371 38.292331 126.98845 38.296875 126.96289 L 38.308594 126.97461 L 38.308594 126.85156 L 38.308594 126.84375 C 38.531637 125.06594 38.620842 123.75266 38.638672 122.38477 C 38.642486 122.09147 38.640625 121.6164 38.640625 121.32422 L 38.640625 119.13672 C 38.640625 118.81123 38.754152 118.49746 38.960938 118.24609 L 42.390625 114.07617 C 42.524109 113.9139 42.77336 113.93274 42.880859 114.11328 L 50.248047 126.48438 C 50.428798 126.78797 50.756049 126.97461 51.109375 126.97461 L 54.724609 126.97461 C 55.01008 126.97461 55.19101 126.65737 55.044922 126.41211 L 45.712891 110.74609 C 45.565801 110.49916 45.590835 110.18681 45.773438 109.96484 L 53.833984 100.16602 C 54.003498 99.959961 53.850805 99.640625 53.583984 99.640625 L 49.949219 99.640625 C 49.593135 99.640625 49.257286 99.804131 49.037109 100.08398 L 38.839844 113.04297 C 38.804761 113.08756 38.759457 113.09485 38.716797 113.08008 C 38.674137 113.06531 38.640623 113.03135 38.640625 112.97461 L 38.640625 65.740234 C 38.640625 65.409182 38.372068 65.138682 38.041016 65.138672 L 32.367188 65.138672 z M 71.914062 65.261719 L 74.109375 65.261719 C 74.397496 65.261718 74.654248 65.442554 74.753906 65.712891 L 84.412109 91.910156 C 84.484406 92.106273 84.341831 92.308594 84.132812 92.308594 L 82.199219 92.308594 C 81.912118 92.308594 81.656671 92.129906 81.560547 91.859375 L 79.570312 86.253906 C 79.454009 85.926582 79.142294 85.708984 78.794922 85.708984 L 67.228516 85.708984 C 66.881143 85.708984 66.571382 85.926582 66.455078 86.253906 L 64.462891 91.859375 C 64.366767 92.129906 64.11132 92.308594 63.824219 92.308594 L 61.890625 92.308594 C 61.681605 92.308594 61.539032 92.106276 61.611328 91.910156 L 71.269531 65.712891 C 71.369186 65.442554 71.625942 65.261719 71.914062 65.261719 z M 191.51172 65.261719 L 194.20312 65.261719 L 201.16797 65.261719 C 201.46041 65.261719 201.9336 65.261101 202.22266 65.271484 C 203.51898 65.318055 204.64532 65.540888 205.60156 65.935547 C 205.86623 66.044782 206.29198 66.258377 206.53711 66.40625 C 207.32557 66.881891 207.95665 67.485127 208.43555 68.216797 C 208.59171 68.455381 208.81554 68.874439 208.92969 69.136719 C 209.2989 69.985095 209.50969 70.950112 209.56055 72.033203 C 209.57408 72.321596 209.57476 72.796818 209.55273 73.082031 C 209.5106 73.626889 209.40159 74.152256 209.22656 74.660156 C 209.13351 74.930209 208.94197 75.36684 208.80078 75.613281 C 208.53605 76.075371 208.1992 76.495145 207.79102 76.875 C 207.58174 77.069747 207.2083 77.364266 206.96875 77.517578 C 206.4523 77.848102 205.86029 78.098466 205.18945 78.267578 C 205.11581 78.286143 205.0595 78.305913 205.01562 78.328125 C 204.99369 78.339231 204.97424 78.349731 204.95703 78.367188 C 204.93982 78.384644 204.92332 78.412325 204.92383 78.445312 C 204.92434 78.4783 204.94133 78.506492 204.95898 78.523438 C 204.97664 78.540383 204.99535 78.550007 205.01758 78.560547 C 205.06203 78.581626 205.11929 78.598521 205.19336 78.615234 C 205.88197 78.770601 206.50361 79.027224 207.06055 79.382812 C 207.30086 79.536245 207.6772 79.827043 207.88867 80.019531 C 208.35692 80.445736 208.74721 80.936705 209.06055 81.492188 C 209.20091 81.741003 209.40092 82.172867 209.5 82.441406 C 209.72839 83.060443 209.86395 83.708433 209.92773 84.923828 C 209.92776 84.960207 209.92991 85.212816 209.91406 85.5 C 209.85604 86.552132 209.62027 87.508209 209.20898 88.367188 C 209.08539 88.625324 208.84786 89.036067 208.68555 89.271484 C 208.1612 90.032007 207.48973 90.657525 206.66797 91.148438 C 206.4219 91.295438 205.99679 91.509609 205.73242 91.621094 C 204.78386 92.021098 203.72104 92.247564 202.54102 92.298828 C 202.25267 92.311401 201.77881 92.308594 201.48633 92.308594 L 193.14453 92.308594 L 191.51172 92.308594 C 191.25828 92.308595 191.05273 92.105006 191.05273 91.851562 L 191.05273 65.943359 L 191.05273 65.720703 C 191.05273 65.46726 191.25828 65.261717 191.51172 65.261719 z M 32.367188 65.283203 L 38.041016 65.283203 C 38.294452 65.283211 38.498047 65.486798 38.498047 65.740234 L 38.498047 112.97461 C 38.498044 113.09181 38.575868 113.18228 38.669922 113.21484 C 38.763976 113.24741 38.880659 113.22492 38.953125 113.13281 L 49.148438 100.17383 C 49.341453 99.928498 49.637062 99.785157 49.949219 99.785156 L 53.583984 99.785156 C 53.739424 99.785156 53.821408 99.956133 53.722656 100.07617 L 45.662109 109.87305 C 45.441338 110.14141 45.412008 110.51981 45.589844 110.81836 L 54.921875 126.48438 C 55.014589 126.64003 54.905781 126.83008 54.724609 126.83008 L 51.109375 126.83008 C 50.806456 126.83008 50.526058 126.67239 50.371094 126.41211 L 43.003906 114.03906 C 42.847819 113.77692 42.475066 113.74876 42.28125 113.98438 L 38.849609 118.1543 C 38.621696 118.43134 38.498047 118.77797 38.498047 119.13672 L 38.498047 121.32422 C 38.498047 121.61653 38.497927 122.09167 38.494141 122.38281 C 38.476344 123.74818 38.389411 125.05552 38.166016 126.83398 L 38.166016 126.83789 L 38.166016 126.89062 C 38.165433 126.89298 38.164595 126.89598 38.164062 126.89844 C 38.162182 126.9071 38.160659 126.91797 38.158203 126.93164 C 38.153292 126.95898 38.146407 126.99739 38.138672 127.04492 C 38.123202 127.13999 38.10308 127.26984 38.080078 127.41406 C 37.700011 129.79709 37.060137 131.96691 36.160156 133.92188 C 36.038698 134.18572 35.830923 134.61132 35.697266 134.86914 C 34.112185 137.92665 31.891335 140.31886 29.03125 142.04883 C 28.783297 142.19881 28.370247 142.43252 28.113281 142.56641 C 25.104615 144.13398 21.534938 144.94981 17.404297 145.01367 C 17.113412 145.01865 16.640204 145.01769 16.349609 145.01172 C 13.257362 144.94963 10.378273 144.34095 7.7109375 143.18359 C 7.4448797 143.06815 7.0148431 142.86684 6.7558594 142.73633 C 4.1865454 141.44157 2.0617818 139.71898 0.37695312 137.56641 C 0.22129368 137.36753 0.24308537 137.04168 0.41992188 136.85938 L 4.21875 132.94336 C 4.3956415 132.76104 4.6384017 132.78061 4.7949219 132.98242 C 6.0860756 134.64719 7.70013 135.97778 9.6367188 136.97266 C 9.8993183 137.10756 10.329566 137.3073 10.601562 137.42188 C 12.640721 138.2808 14.86778 138.73858 17.28125 138.79688 C 17.575361 138.80427 18.049448 138.80493 18.34375 138.79688 C 22.355997 138.68959 25.531138 137.35162 27.851562 134.78516 C 28.049745 134.56597 28.351857 134.20134 28.53125 133.9668 C 30.707981 131.12089 31.829388 127.24225 31.904297 122.33789 C 31.908768 122.04441 31.908203 121.57147 31.908203 121.2793 L 31.908203 65.740234 C 31.908203 65.486792 32.113745 65.283203 32.367188 65.283203 z M 158.63477 67.34375 C 158.63477 67.34375 158.39568 67.342092 158.10156 67.357422 C 157.07781 67.410769 156.1607 67.622184 155.35352 67.990234 C 155.08172 68.114163 154.66818 68.345558 154.42188 68.515625 C 153.74668 68.98185 153.19305 69.58296 152.76172 70.316406 C 152.61043 70.573659 152.40443 71.000224 152.29492 71.277344 C 151.95043 72.149169 151.75505 73.147935 151.70898 74.271484 C 151.69715 74.566739 151.69922 75.039944 151.69922 75.332031 L 151.69922 82.240234 C 151.69922 82.532256 151.69684 83.005383 151.70898 83.300781 C 151.75511 84.427319 151.95139 85.431761 152.29688 86.3125 C 152.40576 86.590077 152.61107 87.016561 152.76367 87.273438 C 153.19513 87.999718 153.74908 88.600626 154.42383 89.072266 C 154.6695 89.243994 155.08398 89.475757 155.35742 89.597656 C 156.164 89.957225 157.07888 90.162697 158.10156 90.214844 C 158.39735 90.22993 158.87022 90.229956 159.16602 90.214844 C 160.18565 90.162768 161.0947 89.958064 161.89258 89.599609 C 162.16546 89.477011 162.57986 89.244211 162.82617 89.074219 C 163.51015 88.602188 164.07027 88.001226 164.50391 87.273438 C 164.65688 87.016675 164.86184 86.590082 164.9707 86.3125 C 165.31614 85.431761 165.51253 84.427312 165.55859 83.300781 C 165.57032 83.005552 165.56836 82.532322 165.56836 82.240234 L 165.56836 75.332031 C 165.56836 75.04001 165.57073 74.566882 165.55859 74.271484 C 165.51256 73.147945 165.31711 72.149175 164.97266 71.277344 C 164.86317 71.000216 164.65753 70.573554 164.50586 70.316406 C 164.07234 69.581425 163.51256 68.980252 162.82812 68.513672 C 162.5812 68.345349 162.16771 68.112917 161.89648 67.988281 C 161.09799 67.621353 160.18675 67.410707 159.16602 67.357422 L 159.16406 67.357422 L 158.63477 67.34375 z M 158.63281 67.488281 L 159.16016 67.501953 C 160.16491 67.554625 161.05677 67.761093 161.83594 68.119141 C 162.09564 68.238481 162.51022 68.470068 162.74609 68.630859 C 163.41317 69.085605 163.95738 69.672657 164.38086 70.390625 C 164.52605 70.636792 164.73461 71.063733 164.83984 71.330078 C 165.17733 72.184249 165.36856 73.166861 165.41406 74.277344 C 165.42592 74.565912 165.42578 75.039551 165.42578 75.332031 L 165.42578 82.240234 C 165.42578 82.532649 165.42553 83.006179 165.41406 83.294922 C 165.36853 84.408394 165.17649 85.396461 164.83789 86.259766 C 164.7334 86.526193 164.52501 86.953997 164.37891 87.199219 C 163.95527 87.910226 163.41138 88.494596 162.74414 88.955078 C 162.50956 89.116975 162.09408 89.351894 161.83398 89.46875 C 161.05468 89.818859 160.16305 90.018992 159.1582 90.070312 C 158.87032 90.08502 158.39726 90.084996 158.10938 90.070312 C 157.10147 90.018919 156.20425 89.818188 155.41602 89.466797 C 155.15577 89.35078 154.73908 89.116151 154.50586 88.953125 C 153.84772 88.493095 153.31032 87.90899 152.88867 87.199219 C 152.74283 86.953712 152.5342 86.52619 152.42969 86.259766 C 152.09104 85.396452 151.89911 84.408394 151.85352 83.294922 C 151.84166 83.006352 151.8418 82.532715 151.8418 82.240234 L 151.8418 75.332031 C 151.8418 75.039616 151.84195 74.566059 151.85352 74.277344 C 151.89905 73.166865 152.09021 72.184256 152.42773 71.330078 C 152.53298 71.06374 152.74179 70.635115 152.88672 70.388672 C 153.30821 69.671964 153.84594 69.089089 154.50391 68.634766 C 154.73842 68.472835 155.1542 68.239579 155.41406 68.121094 C 156.2027 67.761502 157.10074 67.554512 158.10938 67.501953 C 158.3989 67.486863 158.63281 67.488281 158.63281 67.488281 z M 194.20312 67.625 C 193.87206 67.624998 193.60352 67.895501 193.60352 68.226562 L 193.60352 76.648438 C 193.60352 76.979499 193.87206 77.250002 194.20312 77.25 L 201.09375 77.25 C 201.38573 77.25 201.85846 77.252421 202.1543 77.238281 C 203.42391 77.177611 204.44834 76.89284 205.22461 76.380859 C 205.4773 76.214195 205.83481 75.901036 206.03125 75.669922 C 206.60302 74.997237 206.92774 74.117148 207.00586 73.037109 C 207.02738 72.740081 207.02736 72.265754 207.00586 71.96875 C 206.92322 70.8258 206.56431 69.90292 205.92969 69.208984 C 205.72499 68.985148 205.35822 68.684688 205.10156 68.525391 C 204.23398 67.98692 203.07608 67.69172 201.63086 67.634766 C 201.3356 67.623157 200.86235 67.625 200.57031 67.625 L 194.20312 67.625 z M 194.20312 67.769531 L 200.57031 67.769531 C 200.86278 67.769531 201.33626 67.767945 201.625 67.779297 C 203.05374 67.835602 204.18656 68.125859 205.02539 68.646484 C 205.26497 68.795179 205.6348 69.097564 205.82422 69.304688 C 206.43421 69.971694 206.78043 70.859637 206.86133 71.978516 C 206.88202 72.264317 206.88203 72.739569 206.86133 73.025391 C 206.78485 74.082638 206.47096 74.93018 205.92188 75.576172 C 205.74015 75.789975 205.3813 76.106843 205.14648 76.261719 C 204.3984 76.755112 203.40041 77.033923 202.14844 77.09375 C 201.86054 77.10751 201.38627 77.105469 201.09375 77.105469 L 194.20312 77.105469 C 193.94968 77.10547 193.74609 76.901881 193.74609 76.648438 L 193.74609 68.226562 C 193.74609 67.973119 193.94968 67.76953 194.20312 67.769531 z M 73.011719 68.316406 C 72.910891 68.316406 72.80727 68.378531 72.767578 68.490234 L 67.699219 82.751953 C 67.596945 83.039778 67.813685 83.345703 68.119141 83.345703 L 77.904297 83.345703 C 78.209753 83.345704 78.426492 83.039779 78.324219 82.751953 L 73.255859 68.490234 C 73.216168 68.378531 73.112547 68.316406 73.011719 68.316406 z M 73.011719 68.460938 C 73.058439 68.460938 73.101529 68.482049 73.121094 68.537109 L 78.189453 82.798828 C 78.259994 82.997349 78.114978 83.203125 77.904297 83.203125 L 68.119141 83.203125 C 67.90846 83.203125 67.763444 82.997349 67.833984 82.798828 L 72.902344 68.537109 C 72.921908 68.482049 72.964998 68.460937 73.011719 68.460938 z M 194.20312 79.611328 C 193.87206 79.611326 193.60352 79.88183 193.60352 80.212891 L 193.60352 89.345703 C 193.60352 89.676764 193.87206 89.947268 194.20312 89.947266 L 200.1582 89.947266 C 200.45029 89.947266 200.92412 89.94843 201.21875 89.939453 C 202.98108 89.885807 204.35081 89.559594 205.32617 88.953125 C 205.58276 88.793577 205.94981 88.493381 206.1582 88.275391 C 206.86489 87.536145 207.26521 86.586226 207.37891 84.923828 L 207.37891 84.921875 L 207.37891 84.919922 C 207.37891 84.892184 207.38063 84.624795 207.36133 84.330078 C 207.31854 83.678971 207.19641 83.086079 206.99219 82.552734 C 206.88492 82.272579 206.67184 81.848752 206.5 81.599609 C 206.20449 81.171165 205.82184 80.809678 205.35742 80.515625 C 205.10361 80.354919 204.67922 80.146133 204.39844 80.041016 C 203.76142 79.802543 203.01286 79.662754 202.1543 79.623047 C 201.85853 79.609349 201.38574 79.611328 201.09375 79.611328 L 194.20312 79.611328 z M 194.20312 79.755859 L 201.09375 79.755859 C 201.38626 79.755859 201.86037 79.754236 202.14844 79.767578 C 202.99546 79.806751 203.72815 79.943863 204.34766 80.175781 C 204.61397 80.27548 205.04149 80.484911 205.28125 80.636719 C 205.73071 80.921302 206.09663 81.269553 206.38086 81.681641 C 206.54062 81.913258 206.75579 82.34005 206.85742 82.605469 C 207.05584 83.123636 207.17677 83.701031 207.21875 84.339844 C 207.23764 84.628269 207.23633 84.885694 207.23633 84.919922 C 207.12331 86.558875 206.73703 87.461999 206.05469 88.175781 C 205.85938 88.380085 205.48941 88.683163 205.25 88.832031 C 204.30634 89.418784 202.96171 89.741746 201.21484 89.794922 C 200.92527 89.803745 200.45062 89.802734 200.1582 89.802734 L 194.20312 89.802734 C 193.94968 89.802736 193.74609 89.599146 193.74609 89.345703 L 193.74609 80.212891 C 193.74609 79.959447 193.94968 79.755858 194.20312 79.755859 z M 130.17188 99.369141 L 130.08398 99.371094 C 128.60435 99.435666 127.26795 99.773991 126.07422 100.38477 C 125.80997 100.51997 125.40057 100.76003 125.1543 100.92578 C 124.07792 101.65017 123.20202 102.59418 122.52539 103.75586 C 122.37619 104.01202 122.15968 104.43433 122.03906 104.70508 C 121.46393 105.99615 121.14819 107.44639 121.0918 109.05469 C 121.0815 109.34965 121.08398 109.82318 121.08398 110.11523 L 121.08398 116.51953 C 121.08398 116.81162 121.0817 117.2852 121.0918 117.58008 C 121.14817 119.18837 121.46393 120.63862 122.03906 121.92969 C 122.15968 122.20043 122.37619 122.62275 122.52539 122.87891 C 123.20202 124.04055 124.07792 124.98463 125.1543 125.70898 C 125.40078 125.87486 125.81089 126.11242 126.07617 126.24609 C 127.26943 126.84737 128.60517 127.18053 130.08398 127.24414 C 130.37927 127.25688 130.85461 127.25708 131.15039 127.24219 C 132.31913 127.18368 133.41885 126.92997 134.44922 126.48242 C 134.72162 126.3641 135.14249 126.15041 135.39844 126 C 136.36425 125.43241 137.20822 124.7025 137.92578 123.81445 C 138.11202 123.58397 138.39001 123.20015 138.55078 122.95117 C 139.18892 121.96289 139.65203 120.85883 139.94336 119.63867 C 139.98191 119.47728 139.94612 119.32232 139.85547 119.21094 C 139.76481 119.09956 139.62224 119.0332 139.45703 119.0332 L 136.60742 119.0332 C 136.27744 119.0332 135.96387 119.28039 135.85742 119.58789 C 135.6785 120.1047 135.44056 120.57451 135.14453 121 C 134.98169 121.23406 134.676 121.60027 134.47461 121.80273 C 134.13921 122.13994 133.77131 122.42343 133.37109 122.6543 C 133.12461 122.79648 132.6911 122.99388 132.42188 123.08789 C 132.0058 123.23318 131.57797 123.32434 131.13867 123.36523 C 130.855 123.39166 130.37896 123.39157 130.09375 123.36914 C 129.40024 123.31388 128.76737 123.14802 128.19336 122.86914 C 127.93852 122.74533 127.53606 122.48957 127.31445 122.3125 C 126.8186 121.91629 126.40114 121.42751 126.0625 120.8457 C 125.91887 120.59893 125.71639 120.1698 125.61523 119.90234 C 125.34926 119.1991 125.19339 118.42372 125.14844 117.57422 C 125.13327 117.28676 125.13477 116.81204 125.13477 116.51953 L 125.13477 110.11523 C 125.13477 109.82266 125.13317 109.34988 125.14844 109.0625 C 125.193 108.20673 125.34794 107.42974 125.61328 106.73242 C 125.71495 106.46522 125.91878 106.03602 126.0625 105.78906 C 126.40114 105.20718 126.81859 104.71853 127.31445 104.32227 C 127.53637 104.14493 127.93751 103.88822 128.19141 103.76172 C 128.76604 103.47543 129.39936 103.30274 130.09375 103.24609 C 130.37866 103.22281 130.85605 103.22278 131.13867 103.25195 C 131.57517 103.29652 132.00246 103.39708 132.42383 103.55469 C 132.69071 103.65452 133.11981 103.86207 133.36328 104.00977 C 133.76789 104.25522 134.14005 104.55266 134.47852 104.90234 C 134.67764 105.10806 134.98123 105.47348 135.14648 105.70703 C 135.43616 106.11643 135.6685 106.55872 135.8457 107.0332 C 135.95934 107.3375 136.2776 107.58398 136.60742 107.58398 L 139.45703 107.58398 C 139.62224 107.58398 139.76482 107.51568 139.85547 107.4043 C 139.94612 107.29292 139.98189 107.13795 139.94336 106.97656 C 139.65203 105.75635 139.18697 104.65238 138.54883 103.66406 C 138.38821 103.4153 138.11279 103.03013 137.92773 102.79883 C 137.21925 101.91331 136.38325 101.19146 135.41992 100.63281 C 135.16349 100.48411 134.73988 100.26837 134.46875 100.14844 C 133.4354 99.691322 132.32988 99.434266 131.15039 99.375 C 130.87899 99.361358 130.46758 99.363188 130.17188 99.373047 L 130.17188 99.369141 z M 130.0918 99.515625 C 130.3804 99.50307 130.85465 99.503105 131.14258 99.517578 C 132.3057 99.576022 133.39516 99.829438 134.41211 100.2793 C 134.67546 100.39579 135.09853 100.61139 135.34766 100.75586 C 136.29571 101.30565 137.11855 102.01645 137.81641 102.88867 C 137.99647 103.11373 138.27329 103.49995 138.42969 103.74219 C 139.05861 104.71623 139.51682 105.80601 139.80469 107.01172 C 139.83402 107.13457 139.80613 107.23829 139.74414 107.31445 C 139.68215 107.39061 139.58408 107.43945 139.45703 107.43945 L 136.60742 107.43945 C 136.35274 107.43945 136.07126 107.22554 135.98047 106.98242 C 135.79903 106.49659 135.56048 106.04448 135.26367 105.625 C 135.09142 105.38157 134.78931 105.01688 134.58203 104.80273 C 134.23534 104.44456 133.85277 104.13864 133.4375 103.88672 C 133.18143 103.73138 132.75498 103.52675 132.47461 103.42188 C 132.04216 103.26012 131.60122 103.15521 131.15234 103.10938 C 130.85375 103.07855 130.37952 103.0792 130.08203 103.10352 C 129.37124 103.1615 128.71882 103.33794 128.12695 103.63281 C 127.85795 103.76684 127.4591 104.02355 127.22461 104.21094 C 126.71445 104.61863 126.28631 105.1208 125.93945 105.7168 C 125.78926 105.97488 125.58465 106.40272 125.47852 106.68164 C 125.2072 107.39465 125.04914 108.18611 125.00391 109.05469 C 124.98817 109.35095 124.99023 109.82331 124.99023 110.11523 L 124.99023 116.51953 C 124.99023 116.81152 124.99023 117.28392 125.00586 117.58008 C 125.05149 118.44246 125.2087 119.23455 125.48047 119.95312 C 125.58603 120.23222 125.78914 120.65972 125.93945 120.91797 C 126.28631 121.5139 126.71446 122.0162 127.22461 122.42383 C 127.45944 122.61146 127.86021 122.86656 128.13086 122.99805 C 128.72191 123.28521 129.37254 123.45713 130.08203 123.51367 C 130.37934 123.53705 130.85423 123.53754 131.15234 123.50977 C 131.6031 123.4678 132.04178 123.37175 132.46875 123.22266 C 132.75117 123.12404 133.18375 122.92905 133.44336 122.7793 C 133.85474 122.54199 134.23217 122.25015 134.57617 121.9043 C 134.78684 121.6925 135.09086 121.32761 135.26172 121.08203 C 135.56555 120.64532 135.80923 120.16322 135.99219 119.63477 C 136.0769 119.39006 136.3529 119.17578 136.60742 119.17578 L 139.45703 119.17578 C 139.58408 119.17578 139.68215 119.22657 139.74414 119.30273 C 139.80613 119.3789 139.83403 119.48262 139.80469 119.60547 C 139.51682 120.81113 139.05861 121.901 138.42969 122.875 C 138.27342 123.117 137.99358 123.50051 137.8125 123.72461 C 137.10532 124.5998 136.27716 125.31613 135.32617 125.875 C 135.07826 126.02069 134.65622 126.23704 134.39258 126.35156 C 133.37833 126.79211 132.29518 127.04191 131.14258 127.09961 C 130.85464 127.11411 130.38043 127.11402 130.0918 127.10156 C 128.6307 127.03871 127.31437 126.71058 126.14062 126.11914 C 125.88401 125.98983 125.47273 125.75025 125.23438 125.58984 C 124.17595 124.87757 123.31494 123.9509 122.64844 122.80664 C 122.50349 122.55779 122.28713 122.13419 122.16992 121.87109 C 121.60312 120.59872 121.29215 119.1668 121.23633 117.57422 C 121.22642 117.28498 121.22656 116.81195 121.22656 116.51953 L 121.22656 110.11523 C 121.22656 109.82279 121.22623 109.3497 121.23633 109.06055 C 121.29217 107.46796 121.60312 106.03604 122.16992 104.76367 C 122.28713 104.50058 122.50349 104.07698 122.64844 103.82812 C 123.31494 102.68383 124.17595 101.75723 125.23438 101.04492 C 125.47292 100.88437 125.88266 100.64271 126.13867 100.51172 C 127.31276 99.910991 128.63015 99.579413 130.0918 99.515625 z M 59.898438 99.640625 C 59.567379 99.640625 59.296877 99.911129 59.296875 100.24219 L 59.296875 126.37305 C 59.296873 126.70411 59.567376 126.97461 59.898438 126.97461 L 62.654297 126.97461 L 76.306641 126.97461 C 76.637702 126.97461 76.906252 126.70411 76.90625 126.37305 L 76.90625 123.80469 C 76.906252 123.47363 76.637702 123.20312 76.306641 123.20312 L 63.712891 123.20312 C 63.459447 123.20313 63.255858 122.99954 63.255859 122.74609 L 63.255859 100.24219 C 63.255858 99.911129 62.985355 99.640625 62.654297 99.640625 L 59.898438 99.640625 z M 81.851562 99.640625 C 81.520504 99.640625 81.251955 99.911129 81.251953 100.24219 L 81.251953 126.37305 C 81.251951 126.70411 81.520501 126.97461 81.851562 126.97461 L 84.609375 126.97461 C 84.940436 126.97461 85.208986 126.70411 85.208984 126.37305 L 85.208984 100.24219 C 85.208983 99.911129 84.940433 99.640625 84.609375 99.640625 L 81.851562 99.640625 z M 92.398438 99.640625 C 92.067379 99.640625 91.79883 99.911129 91.798828 100.24219 L 91.798828 126.37305 C 91.798826 126.70411 92.067376 126.97461 92.398438 126.97461 L 95.0625 126.97461 C 95.393561 126.97461 95.662111 126.70411 95.662109 126.37305 L 95.662109 109.05664 C 95.662098 109.02853 95.676181 109.02165 95.695312 109.01758 C 95.714444 109.0135 95.728789 109.01534 95.740234 109.04102 L 101.81836 122.67188 C 101.96088 122.99156 102.27889 123.19727 102.62891 123.19727 L 104.22461 123.19727 C 104.57434 123.19727 104.89174 122.98867 105.03125 122.66797 L 111.11719 108.67969 C 111.12793 108.65499 111.14199 108.65247 111.16016 108.65625 C 111.17832 108.66003 111.18945 108.66838 111.18945 108.69531 L 111.18945 126.37305 C 111.18945 126.70411 111.45995 126.97461 111.79102 126.97461 L 114.45508 126.97461 C 114.78614 126.97461 115.05469 126.70411 115.05469 126.37305 L 115.05469 100.24219 C 115.05469 99.911128 114.78614 99.640623 114.45508 99.640625 L 111.94141 99.640625 C 111.59142 99.640623 111.2731 99.848186 111.13086 100.16797 L 103.57617 117.15234 C 103.54627 117.21957 103.48887 117.25 103.42773 117.25 C 103.3666 117.25 103.30725 117.21957 103.27734 117.15234 L 95.722656 100.16797 C 95.580417 99.848187 95.262099 99.640625 94.912109 99.640625 L 92.398438 99.640625 z M 143.2832 99.640625 C 142.95214 99.640623 142.68164 99.911128 142.68164 100.24219 L 142.68164 102.81055 C 142.68164 103.14161 142.95214 103.41211 143.2832 103.41211 L 153.81836 103.41211 C 154.00038 103.41211 154.1099 103.6029 154.01758 103.75977 L 142.62305 123.11914 C 142.44082 123.42876 142.3457 123.78136 142.3457 124.14062 L 142.3457 126.37305 C 142.3457 126.70411 142.61425 126.97461 142.94531 126.97461 L 158.79297 126.97461 C 159.12403 126.97461 159.39453 126.70411 159.39453 126.37305 L 159.39453 123.80469 C 159.39453 123.47363 159.12403 123.20312 158.79297 123.20312 L 147.64062 123.20312 C 147.45805 123.20313 147.34739 123.01313 147.43945 122.85547 L 158.74414 103.49805 C 158.92531 103.1878 159.01953 102.83388 159.01953 102.47461 L 159.01953 100.24219 C 159.01953 99.911128 158.74903 99.640623 158.41797 99.640625 L 143.2832 99.640625 z M 172.30664 99.640625 C 171.95884 99.640625 171.64569 99.857266 171.52539 100.18359 L 161.86914 126.38086 C 161.76386 126.66645 161.97883 126.97461 162.2832 126.97461 L 165.33789 126.97461 C 165.68488 126.97461 165.99467 126.75394 166.10742 126.42578 L 167.8125 121.46094 C 167.9055 121.19028 168.15912 121.00976 168.44531 121.00977 L 178.36133 121.00977 C 178.64752 121.00976 178.90116 121.19028 178.99414 121.46094 L 180.69922 126.42578 C 180.81196 126.75395 181.12176 126.97461 181.46875 126.97461 L 184.52539 126.97461 C 184.82977 126.97461 185.04278 126.66645 184.9375 126.38086 L 175.28125 100.18359 C 175.16095 99.857265 174.84975 99.640623 174.50195 99.640625 L 172.30664 99.640625 z M 189.69727 99.640625 C 189.36621 99.640623 189.0957 99.911128 189.0957 100.24219 L 189.0957 126.37305 C 189.0957 126.70411 189.3662 126.97461 189.69727 126.97461 L 192.45312 126.97461 C 192.78419 126.97461 193.05469 126.70411 193.05469 126.37305 L 193.05469 119.54102 C 193.05469 119.21553 193.16821 118.8998 193.375 118.64844 L 197.13672 114.07617 C 197.2702 113.9139 197.51945 113.93275 197.62695 114.11328 L 204.99219 126.48438 C 205.17294 126.78797 205.50019 126.97461 205.85352 126.97461 L 209.4707 126.97461 C 209.75618 126.97462 209.93711 126.65737 209.79102 126.41211 L 200.45898 110.74609 C 200.3119 110.49915 200.33497 110.18681 200.51758 109.96484 L 208.57812 100.16797 C 208.74764 99.961911 208.5969 99.640617 208.33008 99.640625 L 204.69531 99.640625 C 204.33923 99.640624 204.00143 99.80413 203.78125 100.08398 L 193.25391 113.4668 C 193.21882 113.51139 193.17157 113.51672 193.12891 113.50195 C 193.08625 113.48718 193.05469 113.45322 193.05469 113.39648 L 193.05469 100.24219 C 193.05469 99.911128 192.78418 99.640623 192.45312 99.640625 L 189.69727 99.640625 z M 189.0957 100.24219 L 189.10742 100.20312 L 189.0957 100.2207 L 189.0957 100.24219 z M 59.898438 99.785156 L 62.654297 99.785156 C 62.907738 99.785156 63.111327 99.988746 63.111328 100.24219 L 63.111328 122.74609 C 63.111326 123.07715 63.38183 123.34766 63.712891 123.34766 L 76.306641 123.34766 C 76.560084 123.34766 76.763673 123.55124 76.763672 123.80469 L 76.763672 126.37305 C 76.763673 126.62649 76.560084 126.83203 76.306641 126.83203 L 62.654297 126.83203 L 59.898438 126.83203 C 59.644994 126.83203 59.441405 126.62649 59.441406 126.37305 L 59.441406 100.24219 C 59.441408 99.988746 59.644996 99.785156 59.898438 99.785156 z M 81.851562 99.785156 L 84.609375 99.785156 C 84.862816 99.785156 85.066405 99.988746 85.066406 100.24219 L 85.066406 126.37305 C 85.066408 126.62649 84.862818 126.83203 84.609375 126.83203 L 81.851562 126.83203 C 81.598119 126.83203 81.39453 126.62649 81.394531 126.37305 L 81.394531 100.24219 C 81.394533 99.988746 81.598121 99.785156 81.851562 99.785156 z M 92.398438 99.785156 L 94.912109 99.785156 C 95.205727 99.785156 95.472468 99.956334 95.591797 100.22461 L 103.14648 117.21094 C 103.19944 117.33 103.31524 117.39258 103.42773 117.39258 C 103.54023 117.39258 103.65408 117.33 103.70703 117.21094 L 111.26172 100.22461 C 111.38104 99.956333 111.64779 99.785155 111.94141 99.785156 L 114.45508 99.785156 C 114.70852 99.785155 114.91211 99.988745 114.91211 100.24219 L 114.91211 126.37305 C 114.91211 126.62649 114.70852 126.83203 114.45508 126.83203 L 111.79102 126.83203 C 111.53757 126.83203 111.33398 126.62649 111.33398 126.37305 L 111.33398 108.69531 C 111.33396 108.60286 111.26491 108.53132 111.18945 108.51562 C 111.114 108.49993 111.02126 108.53631 110.98438 108.62109 L 104.90039 122.61133 C 104.78354 122.87995 104.51755 123.05274 104.22461 123.05273 L 102.62891 123.05273 C 102.33522 123.05274 102.06881 122.88152 101.94922 122.61328 L 95.873047 108.98242 C 95.834984 108.89704 95.742254 108.86071 95.666016 108.87695 C 95.589777 108.89319 95.519494 108.96316 95.519531 109.05664 L 95.519531 126.37305 C 95.519533 126.62649 95.315943 126.83203 95.0625 126.83203 L 92.398438 126.83203 C 92.144994 126.83203 91.941405 126.62649 91.941406 126.37305 L 91.941406 100.24219 C 91.941408 99.988746 92.144996 99.785156 92.398438 99.785156 z M 143.2832 99.785156 L 158.41797 99.785156 C 158.67141 99.785155 158.87695 99.988745 158.87695 100.24219 L 158.87695 102.47461 C 158.87695 102.80843 158.78748 103.13751 158.61914 103.42578 L 147.31641 122.78125 C 147.17196 123.02862 147.35417 123.34766 147.64062 123.34766 L 158.79297 123.34766 C 159.04641 123.34765 159.25 123.55124 159.25 123.80469 L 159.25 126.37305 C 159.25 126.62649 159.04641 126.83203 158.79297 126.83203 L 142.94531 126.83203 C 142.69187 126.83203 142.48828 126.62649 142.48828 126.37305 L 142.48828 124.14062 C 142.48828 123.80697 142.57881 123.47896 142.74805 123.19141 L 154.14062 103.83398 C 154.28572 103.58745 154.10443 103.26953 153.81836 103.26953 L 143.2832 103.26953 C 143.02976 103.26953 142.82617 103.06399 142.82617 102.81055 L 142.82617 100.24219 C 142.82617 99.988745 143.02976 99.785155 143.2832 99.785156 z M 172.30664 99.785156 L 174.50195 99.785156 C 174.79007 99.785155 175.04683 99.964038 175.14648 100.23438 L 184.80273 126.43164 C 184.87503 126.62776 184.73441 126.83203 184.52539 126.83203 L 181.46875 126.83203 C 181.18256 126.83203 180.92892 126.64957 180.83594 126.37891 L 179.13086 121.41406 C 179.01812 121.0859 178.70832 120.86523 178.36133 120.86523 L 168.44531 120.86523 C 168.09832 120.86523 167.79049 121.0859 167.67773 121.41406 L 165.9707 126.37891 C 165.87771 126.64957 165.62408 126.83203 165.33789 126.83203 L 162.2832 126.83203 C 162.07418 126.83203 161.93161 126.62776 162.00391 126.43164 L 171.66016 100.23438 C 171.75981 99.964038 172.01852 99.785157 172.30664 99.785156 z M 189.69727 99.785156 L 192.45312 99.785156 C 192.70657 99.785155 192.91015 99.988745 192.91016 100.24219 L 192.91016 113.39648 C 192.91015 113.51368 192.98798 113.60611 193.08203 113.63867 C 193.17609 113.67124 193.29472 113.64679 193.36719 113.55469 L 203.89453 100.17383 C 204.08755 99.928497 204.38315 99.785156 204.69531 99.785156 L 208.33008 99.785156 C 208.48552 99.785152 208.5675 99.956131 208.46875 100.07617 L 200.4082 109.87305 C 200.18742 110.14141 200.15811 110.52175 200.33594 110.82031 L 209.66797 126.48438 C 209.76068 126.64003 209.65188 126.83203 209.4707 126.83203 L 205.85352 126.83203 C 205.5506 126.83203 205.2702 126.67239 205.11523 126.41211 L 197.75 114.03906 C 197.59391 113.77693 197.21921 113.74877 197.02539 113.98438 L 193.26367 118.55859 C 193.03576 118.83564 192.91015 119.18227 192.91016 119.54102 L 192.91016 126.37305 C 192.91016 126.62649 192.70657 126.83203 192.45312 126.83203 L 189.69727 126.83203 C 189.44382 126.83203 189.24023 126.62649 189.24023 126.37305 L 189.24023 100.26367 L 189.24023 100.24219 C 189.24024 99.988745 189.44382 99.785155 189.69727 99.785156 z M 173.4043 105.27344 C 173.30515 105.27343 173.20201 105.33486 173.16406 105.44531 L 169.26758 116.78516 C 169.16802 117.07494 169.385 117.38086 169.69141 117.38086 L 177.11523 117.38086 C 177.42165 117.38086 177.63862 117.07494 177.53906 116.78516 L 173.64258 105.44531 C 173.60463 105.33486 173.50344 105.27344 173.4043 105.27344 z M 173.4043 105.41797 C 173.44898 105.41797 173.48954 105.439 173.50781 105.49219 L 177.4043 116.83203 C 177.47323 117.03268 177.32739 117.23828 177.11523 117.23828 L 169.69141 117.23828 C 169.47926 117.23828 169.33341 117.03267 169.40234 116.83203 L 173.29883 105.49219 C 173.3171 105.439 173.35962 105.41797 173.4043 105.41797 z M 38.238281 126.83008 C 38.238281 126.83008 38.236328 126.90234 38.236328 126.90234 C 38.236328 126.90234 38.238281 126.90234 38.238281 126.90234 L 38.287109 126.95312 C 38.2834 126.95679 38.279277 126.96095 38.279297 126.96094 C 38.279297 126.96094 38.236328 126.90234 38.236328 126.90234 C 38.236301 126.90236 38.214149 126.88371 38.197266 126.87109 L 38.238281 126.83008 z "
         id="path1123" />
    </g>
    <g
       id="text913"
       style="font-size:10.5833px;line-height:1.25;font-family:Open;-inkscape-font-specification:Open;stroke-width:0.264583" />
  </g>
</svg>
