<?xml version="1.0" encoding="UTF-8" standalone="no"?>
<!-- Created with Inkscape (http://www.inkscape.org/) -->

<svg
   width="210mm"
   height="210mm"
   viewBox="0 0 210 210"
   version="1.1"
   id="svg5"
   inkscape:version="1.1.2 (0a00cf5339, 2022-02-04)"
   sodipodi:docname="logo.svg"
   xmlns:inkscape="http://www.inkscape.org/namespaces/inkscape"
   xmlns:sodipodi="http://sodipodi.sourceforge.net/DTD/sodipodi-0.dtd"
   xmlns="http://www.w3.org/2000/svg"
   xmlns:svg="http://www.w3.org/2000/svg">
  <sodipodi:namedview
     id="namedview7"
     pagecolor="#002847"
     bordercolor="#666666"
     borderopacity="1.0"
     inkscape:pageshadow="2"
     inkscape:pageopacity="1"
     inkscape:pagecheckerboard="false"
     inkscape:document-units="mm"
     showgrid="false"
     inkscape:zoom="0.35653935"
     inkscape:cx="215.96494"
     inkscape:cy="346.38533"
     inkscape:window-width="1462"
     inkscape:window-height="800"
     inkscape:window-x="0"
     inkscape:window-y="0"
     inkscape:window-maximized="1"
     inkscape:current-layer="layer1"
     height="210mm" />
  <defs
     id="defs2">
    <inkscape:path-effect
       effect="fillet_chamfer"
       id="path-effect12085"
       is_visible="true"
       lpeversion="1"
       satellites_param="F,0,0,1,0,1.0583333,0,1 @ F,0,0,1,0,1.0583333,0,1 @ F,0,0,1,0,1.0583333,0,1 @ F,0,0,1,0,1.0583333,0,1 @ F,0,0,1,0,1.0583333,0,1 @ F,0,0,1,0,1.0583333,0,1 @ F,0,0,1,0,1.0583333,0,1 @ F,0,0,1,0,1.0583333,0,1 | F,0,0,1,0,1.0583333,0,1 @ F,0,0,1,0,1.0583333,0,1 @ F,0,0,1,0,1.0583333,0,1 @ F,0,0,1,0,1.0583333,0,1 @ F,0,0,1,0,1.0583333,0,1 @ F,0,0,1,0,1.0583333,0,1 @ F,0,0,1,0,1.0583333,0,1 @ F,0,0,1,0,1.0583333,0,1 @ F,0,0,1,0,1.0583333,0,1 @ F,0,0,1,0,1.0583333,0,1 @ F,0,0,1,0,1.0583333,0,1 @ F,0,0,1,0,1.0583333,0,1 @ F,0,0,1,0,1.0583333,0,1"
       unit="px"
       method="auto"
       mode="F"
       radius="4"
       chamfer_steps="1"
       flexible="false"
       use_knot_distance="true"
       apply_no_radius="true"
       apply_with_radius="true"
       only_selected="false"
       hide_knots="false" />
    <inkscape:path-effect
       effect="fillet_chamfer"
       id="path-effect12083"
       is_visible="true"
       lpeversion="1"
       satellites_param="F,0,0,1,0,1.0583333,0,1 @ F,0,0,1,0,1.0583333,0,1 @ F,0,0,1,0,1.0583333,0,1 @ F,0,0,1,0,1.0583333,0,1 @ F,0,0,1,0,1.0583333,0,1 @ F,0,0,1,0,1.0583333,0,1 @ F,0,0,1,0,1.0583333,0,1 @ F,0,0,1,0,1.0583333,0,1 | F,0,0,1,0,1.0583333,0,1 @ F,0,0,1,0,1.0583333,0,1 @ F,0,0,1,0,1.0583333,0,1 @ F,0,0,1,0,1.0583333,0,1 @ F,0,0,1,0,1.0583333,0,1 @ F,0,0,1,0,1.0583333,0,1 @ F,0,0,1,0,1.0583333,0,1 @ F,0,0,1,0,1.0583333,0,1"
       unit="px"
       method="auto"
       mode="F"
       radius="4"
       chamfer_steps="1"
       flexible="false"
       use_knot_distance="true"
       apply_no_radius="true"
       apply_with_radius="true"
       only_selected="false"
       hide_knots="false" />
    <inkscape:path-effect
       effect="fillet_chamfer"
       id="path-effect12081"
       is_visible="true"
       lpeversion="1"
       satellites_param="F,0,0,1,0,1.0583333,0,1 @ F,0,0,1,0,1.0583333,0,1 @ F,0,0,1,0,1.0583333,0,1 @ F,0,0,1,0,1.0583333,0,1 @ F,0,0,1,0,1.0583333,0,1 @ F,0,0,1,0,1.0583333,0,1 @ F,0,0,1,0,1.0583333,0,1 @ F,0,0,1,0,1.0583333,0,1 @ F,0,0,1,0,1.0583333,0,1 @ F,0,0,1,0,1.0583333,0,1 @ F,0,0,1,0,1.0583333,0,1 @ F,0,0,1,0,1.0583333,0,1 @ F,0,0,1,0,1.0583333,0,1 @ F,0,0,1,0,1.0583333,0,1 @ F,0,0,1,0,1.0583333,0,1 @ F,0,0,1,0,1.0583333,0,1 @ F,0,0,1,0,1.0583333,0,1 @ F,0,0,1,0,1.0583333,0,1"
       unit="px"
       method="auto"
       mode="F"
       radius="4"
       chamfer_steps="1"
       flexible="false"
       use_knot_distance="true"
       apply_no_radius="true"
       apply_with_radius="true"
       only_selected="false"
       hide_knots="false" />
    <inkscape:path-effect
       effect="fillet_chamfer"
       id="path-effect12079"
       is_visible="true"
       lpeversion="1"
       satellites_param="F,0,0,1,0,1.0583333,0,1 @ F,0,0,1,0,1.0583333,0,1 @ F,0,0,1,0,1.0583333,0,1 @ F,0,0,1,0,1.0583333,0,1 @ F,0,0,1,0,1.0583333,0,1 @ F,0,0,1,0,1.0583333,0,1 @ F,0,0,1,0,1.0583333,0,1 @ F,0,0,1,0,1.0583333,0,1 | F,0,0,1,0,1.0583333,0,1 @ F,0,0,1,0,1.0583333,0,1 @ F,0,0,1,0,1.0583333,0,1 @ F,0,0,1,0,1.0583333,0,1 @ F,0,0,1,0,1.0583333,0,1 @ F,0,0,1,0,1.0583333,0,1 @ F,0,0,1,0,1.0583333,0,1 @ F,0,0,1,0,1.0583333,0,1 @ F,0,0,1,0,1.0583333,0,1 @ F,0,0,1,0,1.0583333,0,1 @ F,0,0,1,0,1.0583333,0,1 @ F,0,0,1,0,1.0583333,0,1 @ F,0,0,1,0,1.0583333,0,1 @ F,0,0,1,0,1.0583333,0,1 @ F,0,0,1,0,1.0583333,0,1 @ F,0,0,1,0,1.0583333,0,1 @ F,0,0,1,0,1.0583333,0,1 @ F,0,0,1,0,1.0583333,0,1 @ F,0,0,1,0,1.0583333,0,1 @ F,0,0,1,0,1.0583333,0,1"
       unit="px"
       method="auto"
       mode="F"
       radius="4"
       chamfer_steps="1"
       flexible="false"
       use_knot_distance="true"
       apply_no_radius="true"
       apply_with_radius="true"
       only_selected="false"
       hide_knots="false" />
    <inkscape:path-effect
       effect="fillet_chamfer"
       id="path-effect12046"
       is_visible="true"
       lpeversion="1"
       satellites_param="F,0,0,1,0,1.0583333,0,1 @ F,0,0,1,0,1.0583333,0,1 @ F,0,0,1,0,1.0583333,0,1 @ F,0,0,1,0,1.0583333,0,1 @ F,0,0,1,0,1.0583333,0,1 @ F,0,0,1,0,1.0583333,0,1 @ F,0,0,1,0,1.0583333,0,1 @ F,0,0,1,0,1.0583333,0,1 @ F,0,0,1,0,1.0583333,0,1 @ F,0,0,1,0,1.0583333,0,1 @ F,0,0,1,0,1.0583333,0,1"
       unit="px"
       method="auto"
       mode="F"
       radius="4"
       chamfer_steps="1"
       flexible="false"
       use_knot_distance="true"
       apply_no_radius="true"
       apply_with_radius="true"
       only_selected="false"
       hide_knots="false" />
    <inkscape:path-effect
       effect="fillet_chamfer"
       id="path-effect12044"
       is_visible="true"
       lpeversion="1"
       satellites_param="F,0,0,1,0,1.0583333,0,1 @ F,0,0,1,0,1.0583333,0,1 @ F,0,0,1,0,1.0583333,0,1 @ F,0,0,1,0,1.0583333,0,1 @ F,0,0,1,0,1.0583333,0,1 @ F,0,0,1,0,1.0583333,0,1 @ F,0,0,1,0,1.0583333,0,1 @ F,0,0,1,0,1.0583333,0,1 | F,0,0,1,0,1.0583333,0,1 @ F,0,0,1,0,1.0583333,0,1 @ F,0,0,1,0,1.0583333,0,1 @ F,0,0,1,0,1.0583333,0,1 @ F,0,0,1,0,1.0583333,0,1 @ F,0,0,1,0,1.0583333,0,1 @ F,0,0,1,0,1.0583333,0,1 @ F,0,0,1,0,1.0583333,0,1 @ F,0,0,1,0,1.0583333,0,1 @ F,0,0,1,0,1.0583333,0,1 @ F,0,0,1,0,1.0583333,0,1 @ F,0,0,1,0,1.0583333,0,1 @ F,0,0,1,0,1.0583333,0,1 @ F,0,0,1,0,1.0583333,0,1 @ F,0,0,1,0,1.0583333,0,1 @ F,0,0,1,0,1.0583333,0,1 @ F,0,0,1,0,1.0583333,0,1 @ F,0,0,1,0,1.0583333,0,1 @ F,0,0,1,0,1.0583333,0,1 @ F,0,0,1,0,1.0583333,0,1"
       unit="px"
       method="auto"
       mode="F"
       radius="4"
       chamfer_steps="1"
       flexible="false"
       use_knot_distance="true"
       apply_no_radius="true"
       apply_with_radius="true"
       only_selected="false"
       hide_knots="false" />
    <inkscape:path-effect
       effect="fillet_chamfer"
       id="path-effect12042"
       is_visible="true"
       lpeversion="1"
       satellites_param="F,0,0,1,0,1.0583333,0,1 @ F,0,0,1,0,1.0583333,0,1 @ F,0,0,1,0,1.0583333,0,1 @ F,0,0,1,0,1.0583333,0,1 @ F,0,0,1,0,1.0583333,0,1 @ F,0,0,1,0,1.0583333,0,1 @ F,0,0,1,0,1.0583333,0,1 @ F,0,0,1,0,1.0583333,0,1 @ F,0,0,1,0,1.0583333,0,1 @ F,0,0,1,0,1.0583333,0,1"
       unit="px"
       method="auto"
       mode="F"
       radius="4"
       chamfer_steps="1"
       flexible="false"
       use_knot_distance="true"
       apply_no_radius="true"
       apply_with_radius="true"
       only_selected="false"
       hide_knots="false" />
    <inkscape:path-effect
       effect="fillet_chamfer"
       id="path-effect12040"
       is_visible="true"
       lpeversion="1"
       satellites_param="F,0,0,1,0,1.0583333,0,1 @ F,0,0,1,0,1.0583333,0,1 @ F,0,0,1,0,1.0583333,0,1 @ F,0,0,1,0,1.0583333,0,1 @ F,0,0,1,0,1.0583333,0,1 @ F,0,0,1,0,1.0583333,0,1 @ F,0,0,1,0,1.0583333,0,1 @ F,0,0,1,0,1.0583333,0,1 @ F,0,0,1,0,1.0583333,0,1 @ F,0,0,1,0,1.0583333,0,1 @ F,0,0,1,0,1.0583333,0,1 @ F,0,0,1,0,1.0583333,0,1 @ F,0,0,1,0,1.0583333,0,1 @ F,0,0,1,0,1.0583333,0,1 @ F,0,0,1,0,1.0583333,0,1 @ F,0,0,1,0,1.0583333,0,1 @ F,0,0,1,0,1.0583333,0,1 @ F,0,0,1,0,1.0583333,0,1"
       unit="px"
       method="auto"
       mode="F"
       radius="4"
       chamfer_steps="1"
       flexible="false"
       use_knot_distance="true"
       apply_no_radius="true"
       apply_with_radius="true"
       only_selected="false"
       hide_knots="false" />
    <inkscape:path-effect
       effect="fillet_chamfer"
       id="path-effect12038"
       is_visible="true"
       lpeversion="1"
       satellites_param="F,0,0,1,0,1.0583333,0,1 @ F,0,0,1,0,1.0583333,0,1 @ F,0,0,1,0,1.0583333,0,1 @ F,0,0,1,0,1.0583333,0,1 @ F,0,0,1,0,1.0583333,0,1 @ F,0,0,1,0,1.0583333,0,1 @ F,0,0,1,0,1.0583333,0,1 @ F,0,0,1,0,1.0583333,0,1 @ F,0,0,1,0,1.0583333,0,1 @ F,0,0,1,0,1.0583333,0,1 @ F,0,0,1,0,1.0583333,0,1 @ F,0,0,1,0,1.0583333,0,1 @ F,0,0,1,0,1.0583333,0,1 @ F,0,0,1,0,1.0583333,0,1 @ F,0,0,1,0,1.0583333,0,1 @ F,0,0,1,0,1.0583333,0,1 @ F,0,0,1,0,1.0583333,0,1 @ F,0,0,1,0,1.0583333,0,1 @ F,0,0,1,0,1.0583333,0,1 @ F,0,0,1,0,1.0583333,0,1 @ F,0,0,1,0,1.0583333,0,1 @ F,0,0,1,0,1.0583333,0,1 @ F,0,0,1,0,1.0583333,0,1 @ F,0,0,1,0,1.0583333,0,1 @ F,0,0,1,0,1.0583333,0,1 @ F,0,0,1,0,1.0583333,0,1 @ F,0,0,1,0,1.0583333,0,1"
       unit="px"
       method="auto"
       mode="F"
       radius="4"
       chamfer_steps="1"
       flexible="false"
       use_knot_distance="true"
       apply_no_radius="true"
       apply_with_radius="true"
       only_selected="false"
       hide_knots="false" />
    <inkscape:path-effect
       effect="fillet_chamfer"
       id="path-effect12036"
       is_visible="true"
       lpeversion="1"
       satellites_param="F,0,0,1,0,1.0583333,0,1 @ F,0,0,1,0,1.0583333,0,1 @ F,0,0,1,0,1.0583333,0,1 @ F,0,0,1,0,1.0583333,0,1 | F,0,0,1,0,1.0583333,0,1 @ F,0,0,1,0,1.0583333,0,1 @ F,0,0,1,0,1.0583333,0,1 @ F,0,0,1,0,1.0583333,0,1"
       unit="px"
       method="auto"
       mode="F"
       radius="4"
       chamfer_steps="1"
       flexible="false"
       use_knot_distance="true"
       apply_no_radius="true"
       apply_with_radius="true"
       only_selected="false"
       hide_knots="false" />
    <inkscape:path-effect
       effect="fillet_chamfer"
       id="path-effect12034"
       is_visible="true"
       lpeversion="1"
       satellites_param="F,0,0,1,0,1.0583333,0,1 @ F,0,0,1,0,1.0583333,0,1 @ F,0,0,1,0,1.0583333,0,1 @ F,0,0,1,0,1.0583333,0,1"
       unit="px"
       method="auto"
       mode="F"
       radius="4"
       chamfer_steps="1"
       flexible="false"
       use_knot_distance="true"
       apply_no_radius="true"
       apply_with_radius="true"
       only_selected="false"
       hide_knots="false" />
    <inkscape:path-effect
       effect="fillet_chamfer"
       id="path-effect5424"
       is_visible="true"
       lpeversion="1"
       satellites_param="F,0,0,1,0,2.6458333,0,1 @ F,0,0,1,0,2.6458333,0,1 @ F,0,0,1,0,2.6458333,0,1 @ F,0,0,1,0,2.6458333,0,1 @ F,0,0,1,0,2.6458333,0,1 @ F,0,0,1,0,2.6458333,0,1 @ F,0,0,1,0,2.6458333,0,1 @ F,0,0,1,0,2.6458333,0,1 @ F,0,0,1,0,2.6458333,0,1 @ F,0,0,1,0,2.6458333,0,1 @ F,0,0,1,0,2.6458333,0,1 @ F,0,0,1,0,2.6458333,0,1 @ F,0,0,1,0,2.6458333,0,1 @ F,0,0,1,0,2.6458333,0,1 @ F,0,0,1,0,2.6458333,0,1 @ F,0,0,1,0,2.6458333,0,1 @ F,0,0,1,0,2.6458333,0,1 @ F,0,0,1,0,2.6458333,0,1 @ F,0,0,1,0,2.6458333,0,1"
       unit="px"
       method="auto"
       mode="F"
       radius="10"
       chamfer_steps="1"
       flexible="false"
       use_knot_distance="true"
       apply_no_radius="true"
       apply_with_radius="true"
       only_selected="false"
       hide_knots="false" />
    <inkscape:path-effect
       effect="bspline"
       id="path-effect5422"
       is_visible="true"
       lpeversion="1"
       weight="33.333333"
       steps="2"
       helper_size="0"
       apply_no_weight="true"
       apply_with_weight="true"
       only_selected="false" />
  </defs>
  <g
     inkscape:label="Layer 1"
     inkscape:groupmode="layer"
     id="layer1">
    <text
       xml:space="preserve"
       style="font-style:normal;font-weight:normal;font-size:10.5833px;line-height:1.25;font-family:sans-serif;letter-spacing:0px;word-spacing:0px;fill:#000000;fill-opacity:1;stroke:none;stroke-width:0.264583"
       x="123.38959"
       y="97.150787"
       id="text6558"><tspan
         sodipodi:role="line"
         id="tspan6556"
         style="stroke-width:0.264583"
         x="123.38959"
         y="97.150787" /></text>
    <g
       id="g12130"
       transform="matrix(0.62239663,0,0,0.62239663,-8.4768788,-13.320953)">
      <path
         id="path3043"
         style="fill:#ffffff;stroke-width:0.146994"
         d="m 31.634964,22.486835 v 45.685183 c 0,0.598765 0.0018,1.569648 -0.01312,2.168212 -0.07961,3.201799 -0.521379,5.619998 -1.325319,7.254601 -0.263917,0.536606 -0.837971,1.331421 -1.280241,1.733561 -1.113192,1.012184 -2.681293,1.592497 -4.704303,1.740931 -0.597027,0.04381 -1.568638,0.03826 -2.167403,0.03826 h -0.0021 a 1.0841596,1.0841596 0 0 0 -1.08416,1.08416 v 3.688482 a 1.0841596,1.0841596 0 0 0 1.08416,1.08416 h 0.484467 c 0.598765,0 1.569787,0.0027 2.168045,-0.02099 4.159783,-0.164397 7.330267,-1.294349 9.511453,-3.389854 0.431572,-0.414619 1.057038,-1.161175 1.394143,-1.655709 1.349961,-1.980399 2.225945,-4.64181 2.630678,-7.980405 0.07206,-0.594376 0.179758,-1.078263 0.263002,-1.078263 V 70.34034 49.1525 a 0.44818931,0.44818931 0 0 1 0.765548,-0.316476 l 23.17082,23.235456 a 2.6122459,2.6122459 0 0 0 1.849708,0.767684 h 6.995807 a 0.45027154,0.45027154 0 0 0 0.31899,-0.768063 L 45.870768,46.149163 a 1.0527241,1.0527241 0 0 1 0.02507,-1.510306 L 69.844127,22.144921 a 0.42931861,0.42931861 0 0 0 -0.293923,-0.742246 h -6.789141 a 2.7324935,2.7324935 0 0 0 -1.873402,0.743302 L 39.383463,42.398435 A 0.46822621,0.46822621 0 0 1 38.59422,42.057577 V 22.486835 a 1.0841596,1.0841596 0 0 0 -1.084159,-1.08416 h -4.790938 a 1.0841596,1.0841596 0 0 0 -1.084159,1.08416 z" />
      <path
         d="m 32.503722,120.23379 c -3.851687,0.0648 -6.731355,0.49147 -8.639004,1.27998 -0.539709,0.22309 -1.365248,0.7025 -1.807761,1.08322 -1.186375,1.02072 -1.870814,2.46165 -2.053317,4.32282 -0.05702,0.58148 -0.05773,1.53245 0.0079,2.11294 0.156267,1.38159 0.629985,2.56478 1.421155,3.54956 0.365711,0.45521 1.079454,1.08895 1.571139,1.40399 1.142721,0.73216 2.529708,1.16165 4.160963,1.28845 0.58258,0.0453 1.531939,0.0447 2.114651,8.4e-4 2.654864,-0.20004 4.875125,-1.16955 6.660783,-2.90852 0.418649,-0.4077 1.034256,-1.13132 1.373124,-1.60734 1.536628,-2.15854 2.379637,-4.84662 2.529027,-8.06423 0.0271,-0.5838 0.02413,-1.53176 0.02413,-2.11626 a 0.78914395,0.78914395 18.50211 0 0 -1.058333,-0.35416 h -4.187863 c -0.584501,0 -1.532206,-0.001 -2.116618,0.009 z m 13.701794,-1.56866 v 19.89752 a 1.0583333,1.0583333 135 0 1 -1.058333,1.05833 h -4.222314 a 1.0583333,1.0583333 45 0 1 -1.058333,-1.05833 v -3.74001 c 0,-0.5845 -0.246025,-0.65274 -0.582705,-0.17505 -1.11602,1.58342 -2.419108,2.84701 -3.909262,3.79078 -0.493652,0.31265 -1.337849,0.7475 -1.878357,0.96953 -1.703075,0.6996 -3.671134,1.09637 -5.904177,1.1903 -0.58394,0.0246 -1.532261,0.0253 -2.115884,-0.005 -3.039212,-0.1602 -5.565348,-1.02405 -7.578407,-2.59154 -0.460999,-0.35896 -1.149837,-1.01346 -1.531312,-1.45602 -1.635031,-1.89688 -2.541381,-4.26271 -2.719051,-7.09749 -0.03656,-0.58328 -0.03627,-1.532 -0.0026,-2.11546 0.196504,-3.40977 1.363385,-6.10332 3.500642,-8.08063 0.428885,-0.39679 1.186658,-0.96982 1.681978,-1.27978 2.686384,-1.68112 6.383925,-2.57941 11.092624,-2.69487 0.584297,-0.0143 1.532036,-0.0128 2.116537,-0.0128 h 6.771686 a 0.86735754,0.86735754 149.63225 0 0 1.058333,-0.62012 c -0.220338,-3.07127 -0.912977,-4.72849 -2.122649,-6.02871 -0.397859,-0.42764 -1.131083,-1.03525 -1.620821,-1.35362 -1.605759,-1.04388 -3.657128,-1.62904 -6.154108,-1.75549 -0.583655,-0.0296 -1.531877,-0.0284 -2.115902,-0.006 -1.477266,0.0573 -2.928319,0.23523 -4.353161,0.53372 -0.572044,0.11983 -1.491299,0.35211 -2.051433,0.51897 -1.393477,0.4151 -2.750304,0.95063 -4.070479,1.60658 -0.523414,0.26007 -0.938112,0.0159 -0.938112,-0.56856 v -3.74001 c 0,-0.5845 0.441611,-1.23027 0.991396,-1.42868 1.609213,-0.58072 3.184697,-1.04902 4.726452,-1.40488 0.569504,-0.13145 1.497969,-0.32236 2.073355,-0.42505 1.451349,-0.25902 2.87686,-0.4147 4.276535,-0.46703 0.584059,-0.0218 1.532088,-0.0221 2.116214,-0.002 4.575902,0.15755 8.13738,1.35427 10.684434,3.59016 0.439119,0.38547 1.094013,1.07348 1.458032,1.53055 2.139642,2.68655 3.280934,6.45465 3.423877,11.3043 0.01722,0.58422 0.01535,1.53201 0.01535,2.11651 z"
         id="path12048"
         style="font-size:70.5556px;line-height:1.25;letter-spacing:0px;word-spacing:0px;fill:#ffffff;stroke-width:0.264583"
         inkscape:path-effect="#path-effect12079"
         inkscape:original-d="m 33.562007,120.22508 q -7.682568,0 -10.645352,1.757 -2.962784,1.757 -2.962784,5.99447 0,3.37619 2.204862,5.37435 2.239314,1.9637 6.063373,1.9637 5.270999,0 8.440489,-3.7207 3.203941,-3.75516 3.203941,-9.95633 v -1.41249 z m 12.643509,-2.61828 v 22.01418 h -6.33898 v -5.85667 q -2.170411,3.514 -5.408803,5.2021 -3.238392,1.65364 -7.923725,1.65364 -5.925569,0 -9.439568,-3.30729 -3.479549,-3.34174 -3.479549,-8.9228 0,-6.51124 4.340823,-9.81853 4.375274,-3.30729 13.02247,-3.30729 h 8.888352 v -0.62012 q 0,-4.37528 -2.893882,-6.75239 -2.859431,-2.41157 -8.061529,-2.41157 -3.307294,0 -6.442333,0.79237 -3.135039,0.79237 -6.028921,2.37712 v -5.85667 q 3.479549,-1.34359 6.752392,-1.99816 3.272843,-0.68902 6.373431,-0.68902 8.371587,0 12.505705,4.34083 4.134117,4.34082 4.134117,13.16027 z" />
      <path
         d="m 44.687637,157.23119 v 3.80891 c 0,0.5845 -0.414006,0.8274 -0.936542,0.56557 -1.147477,-0.57497 -2.299645,-1.04674 -3.456502,-1.41532 -0.556864,-0.17742 -1.471359,-0.42836 -2.041265,-0.55787 -1.111219,-0.25253 -2.231189,-0.40879 -3.35991,-0.46879 -0.58361,-0.031 -1.532158,-0.0318 -2.115598,0.002 -3.198918,0.18546 -5.795431,1.22935 -7.78954,3.13166 -0.422781,0.40332 -1.046705,1.11979 -1.390125,1.59252 -1.678124,2.30996 -2.588386,5.3335 -2.730788,9.0706 -0.02225,0.58399 -0.02225,1.53203 -4e-6,2.11607 0.142476,3.7409 1.053774,6.7751 2.733894,9.10261 0.341962,0.47372 0.965814,1.19022 1.390529,1.59148 1.993639,1.88352 4.588975,2.91714 7.786006,3.10087 0.583468,0.0335 1.53198,0.0326 2.115668,0.003 1.127755,-0.0572 2.246774,-0.20618 3.357057,-0.44687 0.571176,-0.12382 1.485705,-0.37471 2.040918,-0.55724 1.158063,-0.38074 2.311425,-0.86017 3.460087,-1.43831 0.522069,-0.26277 0.936115,-0.0198 0.936115,0.56474 v 3.74001 c 0,0.5845 -0.428483,1.26116 -0.967484,1.48716 -1.143707,0.47953 -2.315435,0.87501 -3.515184,1.18642 -0.565716,0.14684 -1.49208,0.34886 -2.06775,0.44983 -1.257194,0.2205 -2.568032,0.35321 -3.932515,0.39814 -0.584158,0.0192 -1.532202,0.0197 -2.116207,-0.003 -4.913763,-0.19475 -8.928626,-1.76379 -12.04459,-4.7071 -0.424864,-0.40133 -1.073468,-1.09371 -1.446692,-1.54342 -2.772386,-3.34058 -4.244433,-7.64987 -4.41614,-12.92787 -0.019,-0.58413 -0.01896,-1.53207 -3.7e-4,-2.11625 0.170513,-5.35677 1.651894,-9.69107 4.444144,-13.00289 0.376672,-0.44676 1.033126,-1.13171 1.463598,-1.52696 3.173545,-2.91391 7.311357,-4.46394 12.413435,-4.6501 0.584073,-0.0213 1.532133,-0.0213 2.116159,0.001 1.226179,0.0475 2.433923,0.178 3.623232,0.39143 0.57527,0.10323 1.50201,0.30337 2.068471,0.44729 1.158748,0.29441 2.294699,0.67088 3.407855,1.12942 0.540408,0.22261 0.970038,0.89685 0.970038,1.48135 z"
         id="path12050"
         style="font-size:70.5556px;line-height:1.25;letter-spacing:0px;word-spacing:0px;fill:#ffffff;stroke-width:0.264583"
         inkscape:path-effect="#path-effect12081"
         inkscape:original-d="m 44.687637,156.17286 v 5.92557 q -2.687177,-1.4814 -5.408804,-2.20487 -2.687176,-0.75792 -5.443254,-0.75792 -6.166726,0 -9.577372,3.92741 -3.410647,3.89296 -3.410647,10.95541 0,7.06245 3.410647,10.98987 3.410646,3.89296 9.577372,3.89296 2.756078,0 5.443254,-0.72347 2.721627,-0.75793 5.408804,-2.23932 v 5.85667 q -2.652726,1.24023 -5.512157,1.86035 -2.82498,0.62012 -6.028921,0.62012 -8.716097,0 -13.849293,-5.47771 -5.133196,-5.4777 -5.133196,-14.77947 0,-9.43956 5.167647,-14.84837 5.202097,-5.4088 14.228254,-5.4088 2.928333,0 5.718862,0.62012 2.790529,0.58566 5.408804,1.79145 z" />
      <path
         d="m 30.814825,212.83612 c -2.551381,0.22185 -4.663487,1.26557 -6.33632,3.13115 -0.390071,0.43502 -0.956099,1.19793 -1.263743,1.69469 -1.440968,2.3268 -2.224075,5.31147 -2.349319,8.954 -0.02008,0.5841 -0.02005,1.53208 -2.13e-4,2.11621 0.1238,3.6449 0.898131,6.63926 2.322994,8.98309 0.303521,0.49928 0.867334,1.26388 1.259735,1.69679 1.675738,1.84872 3.798007,2.88234 6.36681,3.10087 0.582224,0.0495 1.532059,0.0497 2.114117,-0.002 2.532088,-0.22312 4.6328,-1.26657 6.302134,-3.13034 0.389831,-0.43523 0.954226,-1.19931 1.260681,-1.69682 1.44212,-2.3412 2.226113,-5.32522 2.35198,-8.95206 0.02027,-0.58409 0.02029,-1.53209 -1.82e-4,-2.1162 -0.126435,-3.60709 -0.910318,-6.57966 -2.351652,-8.91772 -0.30662,-0.49738 -0.869426,-1.26254 -1.257178,-1.69964 -1.669926,-1.88242 -3.771861,-2.93623 -6.305805,-3.16144 -0.582016,-0.0517 -1.531917,-0.0516 -2.114039,-0.001 z m 2.115057,-5.39663 c 4.611276,0.20004 8.346668,1.72667 11.206177,4.57988 0.413686,0.41278 1.039537,1.12598 1.395934,1.58913 2.534302,3.29339 3.878537,7.62917 4.032704,13.00735 0.01675,0.58424 0.01676,1.53214 -1.05e-4,2.11638 -0.15472,5.36037 -1.499679,9.69557 -4.034876,13.0056 -0.355315,0.46391 -0.97997,1.17809 -1.393656,1.59087 -2.859508,2.85321 -6.594901,4.37984 -11.206177,4.57988 -0.583907,0.0253 -1.532108,0.0253 -2.116024,1.9e-4 -4.631799,-0.19929 -8.378641,-1.72601 -11.240525,-4.58017 -0.413789,-0.41267 -1.037179,-1.12804 -1.390797,-1.59331 -2.515459,-3.30973 -3.849958,-7.64411 -4.003496,-13.00316 -0.01674,-0.58419 -0.01673,-1.53204 -1.02e-4,-2.11628 0.153004,-5.37683 1.486798,-9.71179 4.001381,-13.00488 0.354668,-0.46447 0.979225,-1.17883 1.393013,-1.5915 2.861884,-2.85416 6.608726,-4.38088 11.240524,-4.58017 0.583917,-0.0251 1.532118,-0.0251 2.116025,1.9e-4 z"
         id="path12052"
         style="font-size:70.5556px;line-height:1.25;letter-spacing:0px;word-spacing:0px;fill:#ffffff;stroke-width:0.264583"
         inkscape:path-effect="#path-effect12083"
         inkscape:original-d="m 31.871873,212.79121 q -5.098745,0 -8.061529,3.99632 -2.962784,3.96186 -2.962784,10.88651 0,6.92464 2.928333,10.92096 2.962784,3.96186 8.09598,3.96186 5.064294,0 8.027078,-3.99631 2.962784,-3.99632 2.962784,-10.88651 0,-6.85575 -2.962784,-10.85206 -2.962784,-4.03077 -8.027078,-4.03077 z m 0,-5.37435 q 8.268235,0 12.988019,5.37435 4.719784,5.37436 4.719784,14.88283 0,9.47402 -4.719784,14.88282 -4.719784,5.37435 -12.988019,5.37435 -8.302686,0 -13.02247,-5.37435 -4.685333,-5.4088 -4.685333,-14.88282 0,-9.50847 4.685333,-14.88283 4.719784,-5.37435 13.02247,-5.37435 z" />
      <path
         d="m 44.601606,294.36191 c -0.121148,-3.67858 -0.884941,-6.68392 -2.291379,-9.01601 -0.301747,-0.50035 -0.856785,-1.27131 -1.240546,-1.71189 -1.616103,-1.85538 -3.675147,-2.89519 -6.177131,-3.11943 -0.581975,-0.0522 -1.531963,-0.0521 -2.113943,-4e-5 -2.505597,0.2243 -4.574715,1.26523 -6.207355,3.1228 -0.385726,0.43887 -0.940836,1.20985 -1.239791,1.71189 -1.388432,2.33163 -2.14247,5.33587 -2.262115,9.01272 -0.01901,0.58414 -0.019,1.53209 -6e-6,2.11626 0.119714,3.68101 0.874753,6.69608 2.265117,9.0452 0.297605,0.50283 0.852653,1.27385 1.240488,1.71085 1.632061,1.83895 3.69994,2.86952 6.203637,3.09172 0.582024,0.0517 1.531973,0.0517 2.11399,-3e-5 2.500062,-0.22214 4.557863,-1.25158 6.173404,-3.08833 0.385882,-0.43872 0.940878,-1.20979 1.241288,-1.71097 1.408359,-2.3496 2.173143,-5.36576 2.29435,-9.04848 0.01923,-0.58414 0.01923,-1.5321 -8e-6,-2.11626 z M 23.611391,281.05126 c 1.014284,-1.51964 2.203052,-2.73685 3.566304,-3.65161 0.485188,-0.32557 1.318414,-0.7816 1.852775,-1.018 1.561956,-0.69102 3.327804,-1.08818 5.297544,-1.19151 0.583631,-0.0306 1.532249,-0.0311 2.115521,0.005 3.858517,0.24088 7.081222,1.81943 9.668115,4.73567 0.387817,0.43719 0.974071,1.18303 1.308787,1.6621 2.358838,3.37613 3.613227,7.63238 3.763167,12.76873 0.01705,0.58421 0.01705,1.53209 -1e-6,2.11633 -0.149948,5.13635 -1.404346,9.39259 -3.763195,12.76873 -0.334701,0.47904 -0.92094,1.22486 -1.308756,1.66205 -2.586893,2.91624 -5.809598,4.4948 -9.668116,4.73568 -0.583272,0.0364 -1.531876,0.0358 -2.115543,0.006 -1.968104,-0.10113 -3.732654,-0.48964 -5.293651,-1.16551 -0.536215,-0.23217 -1.369396,-0.68826 -1.852452,-1.017 -1.36514,-0.92904 -2.555404,-2.15536 -3.570793,-3.67898 -0.324092,-0.48631 -0.558675,-0.42483 -0.558675,0.15967 v 3.67111 a 1.0583333,1.0583333 135 0 1 -1.058333,1.05833 h -4.256765 a 1.0583333,1.0583333 45 0 1 -1.058333,-1.05833 v -51.48906 a 1.0583333,1.0583333 135 0 1 1.058333,-1.05833 h 4.256765 a 1.0583333,1.0583333 45 0 1 1.058333,1.05833 v 18.76063 c 0,0.5845 0.234536,0.64594 0.558969,0.15986 z"
         id="path12054"
         style="font-size:70.5556px;line-height:1.25;letter-spacing:0px;word-spacing:0px;fill:#ffffff;stroke-width:0.264583"
         inkscape:path-effect="#path-effect12085"
         inkscape:original-d="m 44.618735,295.42006 q 0,-6.99355 -2.893882,-10.95541 -2.859432,-3.99631 -7.889274,-3.99631 -5.029843,0 -7.923725,3.99631 -2.859432,3.96186 -2.859432,10.95541 0,6.99355 2.859432,10.98986 2.893882,3.96187 7.923725,3.96187 5.029842,0 7.889274,-3.96187 2.893882,-3.99631 2.893882,-10.98986 z M 23.052422,281.94973 q 1.998157,-3.4451 5.029843,-5.09875 3.066137,-1.68809 7.303608,-1.68809 7.027999,0 11.403273,5.58105 4.409725,5.58106 4.409725,14.67612 0,9.09506 -4.409725,14.67612 -4.375274,5.58106 -11.403273,5.58106 -4.237471,0 -7.303608,-1.65365 -3.031686,-1.6881 -5.029843,-5.1332 v 5.78777 h -6.373431 v -53.60572 h 6.373431 z" />
      <path
         d="m 83.288787,21.585372 h 3.972225 a 1.0583333,1.0583333 45 0 1 1.058333,1.058333 V 72.017877 A 1.0583333,1.0583333 135 0 1 87.261012,73.07621 H 83.288787 A 1.0583333,1.0583333 45 0 1 82.230454,72.017877 V 22.643705 a 1.0583333,1.0583333 135 0 1 1.058333,-1.058333 z"
         style="font-size:67.772px;line-height:1.25;letter-spacing:0px;word-spacing:0px;fill:#ffffff;stroke-width:0.254145"
         id="path11994"
         inkscape:path-effect="#path-effect12034"
         inkscape:original-d="m 82.230454,21.585372 h 6.088891 V 73.07621 h -6.088891 z" />
      <path
         d="m 99.781708,36.013396 h 3.972222 a 1.0583333,1.0583333 45 0 1 1.05833,1.058333 v 34.946148 a 1.0583333,1.0583333 135 0 1 -1.05833,1.058333 H 99.781708 A 1.0583333,1.0583333 45 0 1 98.723375,72.017877 V 37.071729 a 1.0583333,1.0583333 135 0 1 1.058333,-1.058333 z m 0,-14.428024 h 3.972222 a 1.0583333,1.0583333 45 0 1 1.05833,1.058333 v 5.593723 a 1.0583333,1.0583333 135 0 1 -1.05833,1.058333 h -3.972222 a 1.0583333,1.0583333 45 0 1 -1.058333,-1.058333 v -5.593723 a 1.0583333,1.0583333 135 0 1 1.058333,-1.058333 z"
         style="font-size:67.772px;line-height:1.25;letter-spacing:0px;word-spacing:0px;fill:#ffffff;stroke-width:0.254145"
         id="path11996"
         inkscape:path-effect="#path-effect12036"
         inkscape:original-d="m 98.723375,36.013396 h 6.088885 V 73.07621 h -6.088885 z m 0,-14.428024 h 6.088885 v 7.710389 h -6.088885 z" />
      <path
         d="m 144.83931,42.215334 c 1.18424,-1.91438 2.5336,-3.431281 4.04805,-4.550705 0.46989,-0.347324 1.2788,-0.844909 1.80099,-1.107115 1.63066,-0.818808 3.4629,-1.287841 5.4967,-1.4071 0.58341,-0.03421 1.53225,-0.035 2.11527,0.0049 2.96522,0.203105 5.36246,1.279465 7.19174,3.229081 0.39978,0.426088 0.98084,1.177773 1.29677,1.6693 1.553,2.416173 2.39173,5.61428 2.51619,9.594323 0.0183,0.584158 0.0163,1.531936 0.0163,2.116437 v 20.25339 a 1.0583333,1.0583333 135 0 1 -1.05833,1.058333 h -4.00532 a 1.0583333,1.0583333 45 0 1 -1.05833,-1.058333 V 51.963038 c 0,-0.584501 0.003,-1.532378 -0.0196,-2.116421 -0.0946,-2.482037 -0.53122,-4.466001 -1.3099,-5.951893 -0.27107,-0.517252 -0.83016,-1.29125 -1.25007,-1.696808 -1.02125,-0.986347 -2.35724,-1.563533 -4.00797,-1.73156 -0.58126,-0.05917 -1.5314,-0.05709 -2.11389,-0.01057 -2.27327,0.181576 -4.16733,0.963552 -5.6822,2.345927 -0.43155,0.39381 -1.0565,1.110851 -1.39111,1.589748 -1.23736,1.770907 -1.92656,3.997517 -2.0676,6.679828 -0.0307,0.583599 -0.0272,1.531641 -0.0272,2.116142 v 18.830442 a 1.0583333,1.0583333 135 0 1 -1.05833,1.058333 h -4.00532 a 1.0583333,1.0583333 45 0 1 -1.05833,-1.058333 V 51.963038 c 0,-0.584501 0.003,-1.532374 -0.0194,-2.116426 -0.094,-2.494073 -0.52951,-4.478784 -1.30662,-5.954132 -0.27214,-0.516659 -0.83373,-1.289096 -1.25455,-1.693678 -1.03004,-0.990285 -2.38774,-1.568341 -4.07311,-1.734167 -0.58146,-0.05721 -1.53155,-0.05556 -2.11389,-0.0072 -2.23919,0.185803 -4.1128,0.976733 -5.6208,2.37279 -0.42873,0.39691 -1.05178,1.11547 -1.38665,1.594192 -1.23624,1.767304 -1.92524,3.982947 -2.06701,6.646926 -0.0311,0.58358 -0.0276,1.531633 -0.0276,2.116134 v 18.830442 a 1.0583333,1.0583333 135 0 1 -1.05833,1.058333 h -4.00533 A 1.0583333,1.0583333 45 0 1 115.2162,72.017919 V 37.071771 a 1.0583333,1.0583333 135 0 1 1.05833,-1.058333 h 4.00533 a 1.0583333,1.0583333 45 0 1 1.05833,1.058333 v 3.641307 c 0,0.584501 0.24433,0.651779 0.57734,0.171519 1.03544,-1.493264 2.20879,-2.688661 3.52003,-3.586189 0.48216,-0.330032 1.31219,-0.792135 1.84648,-1.028649 1.45492,-0.644049 3.09205,-1.017529 4.91141,-1.120442 0.58349,-0.03301 1.53234,-0.03397 2.11526,0.0073 1.84348,0.130527 3.47897,0.60958 4.90646,1.437161 0.50544,0.293024 1.27489,0.851295 1.71142,1.239597 1.25552,1.116788 2.25477,2.552475 2.99777,4.307062 0.22788,0.538134 0.60748,0.571971 0.91495,0.07493 z"
         style="font-size:67.772px;line-height:1.25;letter-spacing:0px;word-spacing:0px;fill:#ffffff;stroke-width:0.254145"
         id="path11998"
         inkscape:path-effect="#path-effect12038"
         inkscape:original-d="m 144.30389,43.128132 q 2.28334,-4.103383 5.46015,-6.055799 3.17681,-1.952416 7.47875,-1.952416 5.79106,0 8.93478,4.070291 3.14372,4.0372 3.14372,11.515946 V 73.07621 h -6.12198 V 50.904705 q 0,-5.327779 -1.88623,-7.90894 -1.88623,-2.58116 -5.75797,-2.58116 -4.73213,0 -7.47875,3.143721 -2.74662,3.143721 -2.74662,8.570776 V 73.07621 h -6.12198 V 50.904705 q 0,-5.360871 -1.88624,-7.90894 -1.88623,-2.58116 -5.82415,-2.58116 -4.66595,0 -7.41257,3.176813 -2.74661,3.14372 -2.74661,8.537684 V 73.07621 H 115.2162 V 36.013396 h 6.12199 v 5.757973 q 2.08478,-3.408456 4.99686,-5.029954 2.91208,-1.621498 6.91618,-1.621498 4.0372,0 6.85001,2.051692 2.84589,2.051691 4.20265,5.956523 z" />
      <path
         d="m 209.04192,38.494676 v 3.575123 c 0,0.584501 -0.41397,0.827297 -0.93694,0.56634 -1.07671,-0.537266 -2.15771,-0.979963 -3.24301,-1.328089 -0.55651,-0.178509 -1.47106,-0.429488 -2.04123,-0.557781 -1.04033,-0.234079 -2.08864,-0.380355 -3.14493,-0.438827 -0.58354,-0.0323 -1.53216,-0.03317 -2.11551,0.0021 -3.03746,0.183789 -5.50755,1.176081 -7.41027,2.976875 -0.42436,0.401628 -1.04837,1.1183 -1.39003,1.592276 -1.59007,2.205866 -2.45572,5.084933 -2.59695,8.6372 -0.0232,0.583951 -0.0232,1.532031 -1e-5,2.116033 0.14131,3.556042 1.00799,6.445326 2.60004,8.667852 0.34023,0.474958 0.96416,1.191657 1.39045,1.591208 1.90225,1.782912 4.37116,2.765403 7.40674,2.947474 0.58338,0.03499 1.53196,0.03402 2.11558,0.0032 1.05534,-0.05577 2.1027,-0.195193 3.1421,-0.41828 0.57142,-0.122645 1.486,-0.373574 2.04087,-0.557138 1.08651,-0.359443 2.16871,-0.809357 3.24661,-1.349742 0.52248,-0.261937 0.93649,-0.01902 0.93649,0.565477 v 3.50894 c 0,0.584501 -0.42846,1.26126 -0.96783,1.486356 -1.07352,0.448011 -2.17271,0.819006 -3.29757,1.112984 -0.56547,0.147782 -1.49187,0.349794 -2.06771,0.44978 -1.18222,0.205272 -2.41372,0.32989 -3.69451,0.373851 -0.58413,0.02005 -1.53221,0.02053 -2.11617,-0.0036 -4.68497,-0.19362 -8.5174,-1.690644 -11.49729,-4.491072 -0.42588,-0.400231 -1.07453,-1.092684 -1.44663,-1.54332 -2.63852,-3.19544 -4.04315,-7.310085 -4.2139,-12.343934 -0.0198,-0.584107 -0.0198,-1.532069 -3.8e-4,-2.116222 0.16956,-5.109027 1.58309,-9.247764 4.24058,-12.41621 0.37552,-0.447722 1.03203,-1.132739 1.46352,-1.526872 3.03562,-2.772826 6.98601,-4.25179 11.85117,-4.436892 0.58404,-0.02222 1.53213,-0.02217 2.11612,0.0014 1.14936,0.04639 2.28185,0.168723 3.39746,0.366988 0.57544,0.102266 1.50222,0.302407 2.06843,0.447308 1.08563,0.277826 2.1504,0.630718 3.19432,1.058674 0.54078,0.221693 0.97039,0.896029 0.97039,1.48053 z"
         style="font-size:67.772px;line-height:1.25;letter-spacing:0px;word-spacing:0px;fill:#ffffff;stroke-width:0.254145"
         id="path12000"
         inkscape:path-effect="#path-effect12040"
         inkscape:original-d="m 209.04192,37.436343 v 5.691789 q -2.58116,-1.422947 -5.19541,-2.117875 -2.58116,-0.728019 -5.2285,-0.728019 -5.92343,0 -9.19952,3.772465 -3.27609,3.739373 -3.27609,10.523192 0,6.783818 3.27609,10.556283 3.27609,3.739374 9.19952,3.739374 2.64734,0 5.2285,-0.694928 2.61425,-0.72802 5.19541,-2.150967 v 5.625606 q -2.54806,1.191304 -5.29468,1.786957 -2.71353,0.595652 -5.79107,0.595652 -8.37222,0 -13.3029,-5.261596 -4.93068,-5.261596 -4.93068,-14.196381 0,-9.067153 4.96377,-14.262565 4.99686,-5.195413 13.66691,-5.195413 2.81281,0 5.49324,0.595653 2.68044,0.56256 5.19541,1.720773 z" />
      <path
         d="m 221.33158,36.013396 h 26.80557 a 1.0583333,1.0583333 45 0 1 1.05833,1.058333 v 3.442756 a 2.8546714,2.8546714 110.34162 0 1 -0.6899,1.860894 l -21.51972,25.033776 a 0.48584773,0.48584773 65.341624 0 0 0.36843,0.802561 h 20.78286 a 1.0583333,1.0583333 45 0 1 1.05833,1.058333 v 2.747828 a 1.0583333,1.0583333 135 0 1 -1.05833,1.058333 h -27.63286 a 1.0583333,1.0583333 45 0 1 -1.05833,-1.058333 v -3.442756 a 2.8546714,2.8546714 110.34162 0 1 0.6899,-1.860894 l 21.51972,-25.033776 a 0.48584773,0.48584773 65.341624 0 0 -0.36843,-0.802561 h -19.95557 a 1.0583333,1.0583333 45 0 1 -1.05833,-1.058333 v -2.747828 a 1.0583333,1.0583333 135 0 1 1.05833,-1.058333 z"
         style="font-size:67.772px;line-height:1.25;letter-spacing:0px;word-spacing:0px;fill:#ffffff;stroke-width:0.254145"
         id="path12002"
         inkscape:path-effect="#path-effect12042"
         inkscape:original-d="m 220.27325,36.013396 h 28.92223 v 5.559422 l -22.89952,26.638898 h 22.89952 V 73.07621 H 219.44596 V 67.516788 L 242.34548,40.87789 h -22.07223 z" />
      <path
         d="m 277.69635,54.45461 c -3.65294,0.06418 -6.3922,0.46848 -8.2178,1.21291 -0.54073,0.220498 -1.36707,0.699641 -1.80661,1.083695 -1.11139,0.971103 -1.75692,2.332226 -1.9366,4.083369 -0.0596,0.581197 -0.0604,1.532483 0.008,2.112605 0.15304,1.294124 0.59779,2.405927 1.33426,3.33541 0.36259,0.457625 1.07686,1.091639 1.57041,1.403654 1.0811,0.683453 2.38775,1.08742 3.91995,1.2119 0.58241,0.04732 1.53193,0.04673 2.11448,9.09e-4 2.51691,-0.197952 4.62571,-1.118453 6.3264,-2.761504 0.42025,-0.406014 1.03593,-1.129831 1.37307,-1.607051 1.45408,-2.05822 2.25512,-4.614994 2.40312,-7.670322 0.0283,-0.583739 0.0252,-1.531726 0.0252,-2.116227 a 0.77753767,0.77753767 15.747434 0 0 -1.05833,-0.29843 h -3.93914 c -0.5845,0 -1.53221,-0.0012 -2.11661,0.0091 z m 13.20297,-1.465726 v 19.028993 a 1.0583333,1.0583333 135 0 1 -1.05833,1.058333 h -3.97223 a 1.0583333,1.0583333 45 0 1 -1.05833,-1.058333 v -3.50894 c 0,-0.584501 -0.24589,-0.652604 -0.58381,-0.175805 -1.05781,1.492546 -2.28971,2.687455 -3.6957,3.584728 -0.49256,0.314341 -1.33692,0.74921 -1.87813,0.969483 -1.61635,0.65785 -3.47998,1.033099 -5.59088,1.125748 -0.58389,0.02563 -1.53227,0.02636 -2.11582,-0.0057 -2.88417,-0.158646 -5.28575,-0.979134 -7.20473,-2.461463 -0.46238,-0.357162 -1.15139,-1.011784 -1.53109,-1.455848 -1.54541,-1.80735 -2.40604,-4.055391 -2.58191,-6.744124 -0.0381,-0.583167 -0.0378,-1.531989 -0.003,-2.115348 0.19486,-3.23925 1.30469,-5.80316 3.32949,-7.691731 0.42726,-0.398511 1.18527,-0.971556 1.68165,-1.279801 2.56947,-1.595628 6.09541,-2.450766 10.57781,-2.565414 0.58428,-0.01494 1.53203,-0.01331 2.11653,-0.01331 h 6.42102 a 0.8587409,0.8587409 150.62824 0 0 1.05833,-0.595653 c -0.21978,-2.957174 -0.87441,-4.524932 -2.01055,-5.760212 -0.39538,-0.429879 -1.12901,-1.037616 -1.62029,-1.353541 -1.52819,-0.982721 -3.47304,-1.53652 -5.83455,-1.661397 -0.58359,-0.03086 -1.53186,-0.02958 -2.11585,-0.006 -1.39046,0.05621 -2.75674,0.223703 -4.09882,0.502486 -0.57224,0.118868 -1.49154,0.351157 -2.05138,0.518981 -1.31132,0.393093 -2.58881,0.897325 -3.83247,1.512696 -0.52384,0.259199 -0.93851,0.01516 -0.93851,-0.569343 V 38.75943 c 0,-0.584501 0.4416,-1.230334 0.99156,-1.428224 1.51794,-0.546184 3.00462,-0.988146 4.46002,-1.325886 0.56935,-0.132122 1.49783,-0.323058 2.07335,-0.425001 1.36548,-0.241874 2.70714,-0.388442 4.02498,-0.439704 0.58402,-0.02272 1.53208,-0.02298 2.11617,-0.002 4.35654,0.156483 7.75312,1.296333 10.18976,3.419552 0.44051,0.383853 1.09551,1.07201 1.45789,1.530361 2.03238,2.570668 3.11957,6.165293 3.26158,10.783875 0.018,0.584202 0.016,1.532002 0.016,2.116503 z"
         style="font-size:67.772px;line-height:1.25;letter-spacing:0px;word-spacing:0px;fill:#ffffff;stroke-width:0.254145"
         id="path12004"
         inkscape:path-effect="#path-effect12044"
         inkscape:original-d="m 278.75463,54.445528 q -7.37947,0 -10.22536,1.687681 -2.8459,1.687682 -2.8459,5.757973 0,3.242996 2.11788,5.162321 2.15096,1.886232 5.82415,1.886232 5.06305,0 8.10749,-3.573914 3.07754,-3.607006 3.07754,-9.56353 v -1.356763 z m 12.14469,-2.514977 V 73.07621 h -6.08889 v -5.625606 q -2.08478,3.375364 -5.19541,4.996862 -3.11063,1.588406 -7.61111,1.588406 -5.69179,0 -9.06716,-3.176812 -3.34227,-3.209905 -3.34227,-8.570776 0,-6.25435 4.16957,-9.431163 4.20266,-3.176812 12.5087,-3.176812 h 8.53768 v -0.595653 q 0,-4.202658 -2.77971,-6.485992 -2.74662,-2.316426 -7.74348,-2.316426 -3.17681,0 -6.18817,0.761111 -3.01135,0.761112 -5.79106,2.283334 v -5.625605 q 3.34227,-1.290581 6.48599,-1.919325 3.14372,-0.661836 6.12198,-0.661836 8.04131,0 12.01233,4.169567 3.97101,4.169566 3.97101,12.641067 z" />
      <path
         d="m 302.36171,21.585372 h 4.00532 a 1.0583333,1.0583333 45 0 1 1.05833,1.058333 v 28.294696 a 0.47851515,0.47851515 24.329643 0 0 0.79459,0.359266 l 16.57822,-14.585204 a 2.8051862,2.8051862 159.32964 0 1 1.85292,-0.699067 h 5.65991 a 0.40009339,0.40009339 69.291352 0 1 0.26467,0.700128 l -18.0692,15.939846 a 0.97545368,0.97545368 91.249113 0 0 -0.0313,1.434185 l 18.95906,18.254598 a 0.42668711,0.42668711 111.95776 0 1 -0.29595,0.734057 h -5.82537 a 2.6280038,2.6280038 21.935325 0 1 -1.82129,-0.73346 l -17.3033,-16.634294 a 0.4506464,0.4506464 156.93532 0 0 -0.76296,0.324873 v 15.984548 a 1.0583333,1.0583333 135 0 1 -1.05833,1.058333 h -4.00532 a 1.0583333,1.0583333 45 0 1 -1.05833,-1.058333 V 22.643705 a 1.0583333,1.0583333 135 0 1 1.05833,-1.058333 z"
         style="font-size:67.772px;line-height:1.25;letter-spacing:0px;word-spacing:0px;fill:#ffffff;stroke-width:0.254145"
         id="path12006"
         inkscape:path-effect="#path-effect12046"
         inkscape:original-d="m 301.30338,21.585372 h 6.12198 v 30.411362 l 18.1674,-15.983338 h 7.77657 L 313.71281,53.353498 334.19663,73.07621 H 326.2546 L 307.42536,54.974996 V 73.07621 h -6.12198 z" />
    </g>
  </g>
</svg>
