<svg width="210mm" height="210mm" viewBox="0 0 210 210" xmlns="http://www.w3.org/2000/svg"><rect style="opacity:1;fill:#002847;fill-opacity:1;stroke-width:.264583" width="190" height="190" x="10" y="10" rx="35" ry="35"/><path style="font-size:127px;line-height:1.25;letter-spacing:0;word-spacing:0;fill:#fff;stroke-width:.358731" d="M68.863 27.646v111.492c0 1.461.005 3.83-.032 5.291-.194 7.814-1.272 13.716-3.234 17.705-.644 1.31-2.045 3.25-3.124 4.23-2.717 2.47-6.544 3.887-11.481 4.25-1.457.106-3.828.093-5.29.093h-.005a2.646 2.646 135 0 0-2.645 2.645v9.002A2.646 2.646 45 0 0 45.697 185h1.183c1.461 0 3.83.006 5.29-.051 10.152-.402 17.89-3.16 23.213-8.273 1.053-1.012 2.58-2.834 3.402-4.04 3.295-4.834 5.433-11.329 6.42-19.477.176-1.45.439-2.631.642-2.631V92.722a1.094 1.094 157.54 0 1 1.868-.772l56.548 56.705a6.375 6.375 22.54 0 0 4.514 1.873h17.073a1.099 1.099 112.554 0 0 .778-1.874l-63.023-63.262a2.57 2.57 90.95 0 1 .061-3.685l58.445-54.896a1.048 1.048 68.397 0 0-.717-1.811h-16.569a6.669 6.669 158.359 0 0-4.572 1.814l-52.48 49.425a1.143 1.143 23.359 0 1-1.926-.832V27.646A2.646 2.646 45 0 0 83.201 25H71.51a2.646 2.646 135 0 0-2.646 2.646z"/></svg>