<svg xmlns="http://www.w3.org/2000/svg" width="210mm" height="210mm" viewBox="0 0 210 210"><g style="opacity:1"><path style="color:#000;font-style:normal;font-variant:normal;font-weight:300;font-stretch:normal;font-size:70.5556px;line-height:1.25;font-family:Bahnschrift;-inkscape-font-specification:'Bahnschrift Light';font-variant-ligatures:normal;font-variant-position:normal;font-variant-caps:normal;font-variant-numeric:normal;font-variant-alternates:normal;font-variant-east-asian:normal;font-feature-settings:normal;font-variation-settings:normal;text-indent:0;text-align:start;text-decoration:none;text-decoration-line:none;text-decoration-style:solid;text-decoration-color:#000;letter-spacing:normal;word-spacing:normal;text-transform:none;writing-mode:lr-tb;direction:ltr;text-orientation:mixed;dominant-baseline:auto;baseline-shift:baseline;text-anchor:start;white-space:normal;shape-padding:0;shape-margin:0;inline-size:0;clip-rule:nonzero;display:inline;overflow:visible;visibility:visible;isolation:auto;mix-blend-mode:normal;color-interpolation:sRGB;color-interpolation-filters:linearRGB;solid-color:#000;solid-opacity:1;vector-effect:none;fill:#fff;fill-opacity:1;fill-rule:nonzero;stroke-width:.143619;stroke-linecap:butt;stroke-linejoin:miter;stroke-miterlimit:4;stroke-dasharray:none;stroke-dashoffset:0;stroke-opacity:1;color-rendering:auto;image-rendering:auto;shape-rendering:auto;text-rendering:auto;enable-background:accumulate;stop-color:#000;stop-opacity:1;stroke:none" d="M116.388 64.922c-1.47.064-2.798.4-3.982 1.005-.26.133-.669.374-.911.537a8.463 8.463 0 0 0-2.609 2.807c-.147.252-.363.674-.482.941-.57 1.282-.884 2.723-.94 4.324-.01.292-.01.766-.01 1.058v6.403c0 .292 0 .766.01 1.058.056 1.6.37 3.042.94 4.323.12.267.335.69.482.942a8.464 8.464 0 0 0 2.609 2.807c.242.163.652.403.913.534 1.183.597 2.51.926 3.98.99.292.012.766.012 1.058-.002a9.625 9.625 0 0 0 3.271-.723c.27-.113.696-.32.952-.462a9.02 9.02 0 0 0 3.129-2.88 9.865 9.865 0 0 0 1.37-3.11c.072-.284-.12-.517-.411-.517h-1.635c-.292 0-.591.23-.688.505a7.014 7.014 0 0 1-.986 1.87 9.059 9.059 0 0 1-.69.8 6.732 6.732 0 0 1-1.544 1.17c-.256.14-.689.336-.963.437a6.74 6.74 0 0 1-1.806.396 9.046 9.046 0 0 1-1.057.004c-.938-.06-1.791-.28-2.561-.663a7.114 7.114 0 0 1-.9-.553 6.299 6.299 0 0 1-1.689-1.91 8.777 8.777 0 0 1-.463-.95c-.361-.902-.567-1.905-.616-3.008-.013-.292-.012-.766-.012-1.058v-6.403c0-.292 0-.766.012-1.058.05-1.1.254-2.097.615-2.99.11-.27.316-.698.462-.95a6.278 6.278 0 0 1 1.69-1.928 7.41 7.41 0 0 1 .899-.557c.77-.391 1.625-.617 2.563-.678.292-.019.766-.019 1.057.005.617.051 1.22.192 1.81.422.273.106.7.311.954.457a7.157 7.157 0 0 1 1.549 1.197c.205.208.515.567.69.8a7.06 7.06 0 0 1 .979 1.799c.101.274.403.502.695.502h1.635c.292 0 .483-.233.411-.516a9.715 9.715 0 0 0-1.368-3.094c-.164-.242-.45-.62-.637-.845a8.786 8.786 0 0 0-2.476-2.051c-.255-.143-.682-.35-.951-.463a9.668 9.668 0 0 0-3.29-.723 14.021 14.021 0 0 0-1.058-.001zm41.717-.002c-1.583.055-2.976.365-4.18.93-.264.123-.68.352-.926.51a7.717 7.717 0 0 0-2.549 2.685c-.146.253-.357.677-.473.946-.543 1.266-.84 2.737-.891 4.414-.01.292-.008.766-.008 1.058v6.646c0 .292-.001.766.008 1.058.051 1.677.348 3.148.891 4.415.116.268.327.692.473.946a7.717 7.717 0 0 0 2.55 2.685c.245.158.661.386.926.51 1.203.564 2.596.874 4.179.93.292.01.766.01 1.058 0 1.58-.056 2.967-.366 4.161-.928.264-.125.68-.354.927-.51a7.688 7.688 0 0 0 2.566-2.688c.146-.252.358-.677.473-.945.543-1.267.84-2.738.892-4.415.009-.292.008-.766.008-1.058v-6.646c0-.292 0-.766-.008-1.058-.052-1.677-.349-3.148-.892-4.414a10.744 10.744 0 0 0-.473-.946 7.688 7.688 0 0 0-2.566-2.688 10.22 10.22 0 0 0-.927-.51c-1.194-.562-2.58-.872-4.161-.927a18.09 18.09 0 0 0-1.058 0zm-86.903.767-9.657 26.198c-.09.24.09.496.346.496h1.934c.317 0 .6-.2.706-.498l1.991-5.604a.75.75 0 0 1 .707-.5h11.566c.318 0 .6.2.707.5l1.991 5.604a.75.75 0 0 0 .706.498h1.934a.369.369 0 0 0 .346-.496l-9.657-26.198a.76.76 0 0 0-.712-.496h-2.196a.759.759 0 0 0-.712.496zm119.78.033v26.132c0 .292.237.53.529.53h9.975c.292 0 .766 0 1.058-.012 1.187-.052 2.26-.28 3.217-.683.27-.114.693-.327.944-.477a6.477 6.477 0 0 0 2.04-1.897c.166-.24.403-.652.53-.915.415-.869.652-1.833.71-2.893.017-.292.015-.554.015-.585-.064-1.22-.203-1.878-.433-2.503a7.98 7.98 0 0 0-.443-.96 5.962 5.962 0 0 0-1.186-1.49 7.51 7.51 0 0 0-.838-.645 5.89 5.89 0 0 0-1.89-.776c-.286-.064-.287-.137-.004-.208a6.067 6.067 0 0 0 1.802-.759c.246-.158.619-.452.833-.651a5.432 5.432 0 0 0 1.022-1.28c.145-.253.337-.688.432-.964a6.393 6.393 0 0 0 .33-1.596c.022-.292.021-.766.008-1.058-.051-1.09-.264-2.064-.637-2.922a7.558 7.558 0 0 0-.5-.931 5.901 5.901 0 0 0-1.922-1.833 8.442 8.442 0 0 0-.945-.476c-.965-.398-2.1-.621-3.403-.668-.292-.01-.766-.01-1.058-.01h-9.657a.53.53 0 0 0-.53.53zm-159.145.02v55.539c0 .292 0 .766-.004 1.058-.074 4.894-1.194 8.756-3.359 11.586-.177.233-.48.597-.676.814-2.307 2.552-5.46 3.88-9.457 3.988-.292.008-.766.008-1.058 0-2.405-.058-4.623-.514-6.654-1.37-.269-.113-.699-.313-.959-.447-1.927-.99-3.534-2.314-4.818-3.97-.18-.231-.482-.254-.685-.044l-3.799 3.915a.631.631 0 0 0-.048.801c1.692 2.161 3.826 3.891 6.404 5.19.261.132.69.333.959.45 2.676 1.16 5.564 1.772 8.665 1.834.292.006.766.006 1.058.001 4.14-.064 7.72-.882 10.74-2.456.259-.135.672-.367.922-.518 2.871-1.737 5.102-4.14 6.693-7.208.134-.26.342-.685.465-.95.903-1.962 1.543-4.138 1.924-6.527.046-.289.083-.523.087-.523v-.06c.224-1.78.311-3.092.329-4.46.004-.292.003-.766.003-1.058v-2.188c0-.342.12-.673.337-.937l3.43-4.17a.372.372 0 0 1 .607.046l7.366 12.372a.93.93 0 0 0 .8.455h3.616a.3.3 0 0 0 .259-.455l-9.332-15.666a.753.753 0 0 1 .065-.863l8.06-9.798a.25.25 0 0 0-.192-.408h-3.636c-.334 0-.65.153-.856.416l-10.196 12.959a.183.183 0 0 1-.328-.113V65.74a.53.53 0 0 0-.529-.53h-5.673a.53.53 0 0 0-.53.53zm127.326 1.69c1.013.053 1.914.26 2.703.623.266.122.68.355.921.52a5.512 5.512 0 0 1 1.656 1.78c.149.252.356.68.463.95.341.864.534 1.854.58 2.97.012.293.01.767.01 1.06v6.907c0 .292.002.766-.01 1.058-.046 1.12-.24 2.116-.582 2.988-.106.272-.313.7-.463.95a5.64 5.64 0 0 1-1.656 1.78c-.24.165-.654.398-.921.518-.789.354-1.689.557-2.701.609-.292.014-.766.014-1.058 0-1.015-.052-1.922-.256-2.72-.611a6.7 6.7 0 0 1-.92-.52 5.67 5.67 0 0 1-1.639-1.775 7.878 7.878 0 0 1-.463-.95c-.342-.873-.536-1.869-.582-2.989-.012-.292-.01-.766-.01-1.058v-6.908c0-.292-.001-.766.01-1.058.046-1.117.24-2.107.58-2.97a8.23 8.23 0 0 1 .463-.951 5.542 5.542 0 0 1 1.64-1.778 7.24 7.24 0 0 1 .92-.52c.798-.364 1.705-.572 2.721-.625.292-.015.529-.014.529-.014zm35.04.267h6.367c.292 0 .766-.001 1.058.01 1.437.057 2.582.35 3.435.88.248.153.617.454.814.67.623.68.975 1.586 1.056 2.717.022.291.022.766 0 1.057-.077 1.07-.396 1.933-.956 2.593-.19.222-.547.536-.791.697-.762.503-1.774.784-3.035.845-.292.014-.765.012-1.058.012h-6.89a.53.53 0 0 1-.528-.53v-8.422a.53.53 0 0 1 .529-.53zm-121.014.816 5.068 14.263a.374.374 0 0 1-.352.498h-9.786a.374.374 0 0 1-.352-.498l5.068-14.263a.188.188 0 0 1 .354 0zm121.015 11.17h6.89c.292 0 .765 0 1.057.013.853.04 1.594.176 2.222.412.274.102.7.312.947.468.457.29.83.644 1.12 1.065.166.24.38.665.485.938.201.526.323 1.111.365 1.756.02.292.017.554.017.585-.113 1.653-.506 2.578-1.201 3.305-.202.212-.57.513-.818.667-.96.597-2.317.922-4.072.975-.292.01-.766.008-1.058.008h-5.954a.53.53 0 0 1-.53-.529v-9.133a.53.53 0 0 1 .53-.53zm-64.116 19.76c-1.47.065-2.798.4-3.982 1.006-.26.133-.669.374-.911.537a8.464 8.464 0 0 0-2.608 2.807c-.148.252-.364.674-.482.941-.571 1.282-.885 2.723-.941 4.324-.01.292-.01.766-.01 1.058v6.403c0 .292 0 .766.01 1.058.056 1.6.37 3.042.94 4.323.12.267.336.69.483.942a8.463 8.463 0 0 0 2.608 2.807c.242.163.652.402.913.534 1.183.596 2.51.926 3.98.99.292.012.766.012 1.058-.003a9.318 9.318 0 0 0 3.274-.753c.269-.116.691-.332.943-.48a9.183 9.183 0 0 0 2.506-2.167c.184-.227.462-.611.62-.857a10.517 10.517 0 0 0 1.385-3.29c.068-.285-.125-.518-.417-.518h-2.85c-.292 0-.587.23-.682.506-.181.523-.422 1-.722 1.431a7.31 7.31 0 0 1-.678.81c-.34.342-.712.63-1.118.864a6.825 6.825 0 0 1-.962.439 5.465 5.465 0 0 1-1.3.283c-.29.027-.765.027-1.057.004a5.336 5.336 0 0 1-1.926-.509 5.76 5.76 0 0 1-.892-.564 5.276 5.276 0 0 1-1.269-1.486 7.721 7.721 0 0 1-.453-.956 7.77 7.77 0 0 1-.471-2.35c-.016-.292-.014-.766-.014-1.058v-6.403c0-.292-.002-.766.013-1.058.045-.862.202-1.646.47-2.351.104-.273.308-.702.455-.954a5.277 5.277 0 0 1 1.269-1.487 6.03 6.03 0 0 1 .89-.57 5.238 5.238 0 0 1 1.928-.521 6.93 6.93 0 0 1 1.057.006c.443.045.878.148 1.305.307.273.103.7.31.95.461.41.249.787.55 1.13.904.203.21.506.575.675.813.293.415.53.862.709 1.342.102.274.4.503.693.503h2.85c.292 0 .485-.233.417-.517a10.518 10.518 0 0 0-1.385-3.291c-.158-.246-.435-.63-.617-.859a8.851 8.851 0 0 0-2.489-2.15 11.717 11.717 0 0 0-.942-.48 9.215 9.215 0 0 0-3.295-.768 13.636 13.636 0 0 0-1.058-.002zm-70.72.8v26.13c0 .293.238.53.53.53H76.306a.53.53 0 0 0 .529-.53v-2.568a.53.53 0 0 0-.53-.53H63.714a.53.53 0 0 1-.53-.529v-22.504a.53.53 0 0 0-.529-.53h-2.756a.53.53 0 0 0-.53.53zm21.955 0v26.13c0 .293.237.53.53.53h2.756a.53.53 0 0 0 .529-.53v-26.13a.53.53 0 0 0-.53-.53h-2.756a.53.53 0 0 0-.529.53zm10.547 0v26.13c0 .293.237.53.53.53h2.662a.53.53 0 0 0 .53-.53v-17.315c0-.122.165-.157.215-.046l6.076 13.63a.815.815 0 0 0 .745.484h1.597c.322 0 .612-.191.74-.486l6.086-13.99c.048-.109.211-.075.211.044v17.68c0 .292.237.529.53.529h2.662a.53.53 0 0 0 .53-.53v-26.131a.53.53 0 0 0-.53-.53h-2.513a.815.815 0 0 0-.744.484l-7.555 16.986a.235.235 0 0 1-.43 0l-7.555-16.986a.815.815 0 0 0-.745-.483H92.4a.53.53 0 0 0-.529.53zm50.884 0v2.569c0 .292.237.529.529.529h10.536c.234 0 .379.254.26.456l-11.394 19.359a1.942 1.942 0 0 0-.268.985v2.233c0 .292.237.53.53.53h15.846a.53.53 0 0 0 .53-.53v-2.57a.53.53 0 0 0-.53-.529H147.64a.304.304 0 0 1-.262-.457l11.303-19.357c.175-.3.267-.64.267-.986v-2.233a.53.53 0 0 0-.53-.53h-15.135a.53.53 0 0 0-.53.53zm28.84-.034-9.658 26.198c-.089.24.09.496.346.496h3.056a.741.741 0 0 0 .701-.5l1.706-4.965c.103-.3.384-.5.701-.5h9.915c.317 0 .598.2.701.5l1.706 4.965c.103.299.384.5.7.5h3.057a.369.369 0 0 0 .346-.496l-9.657-26.198a.759.759 0 0 0-.713-.496h-2.195a.76.76 0 0 0-.712.496zm17.574.033v26.132c0 .292.237.53.53.53h2.756a.53.53 0 0 0 .529-.53v-6.833c0-.342.119-.673.336-.937l3.762-4.574a.372.372 0 0 1 .607.046l7.366 12.372a.93.93 0 0 0 .8.455h3.617a.3.3 0 0 0 .258-.455l-9.331-15.665a.753.753 0 0 1 .065-.864l8.06-9.797a.25.25 0 0 0-.193-.41h-3.635c-.334 0-.65.154-.857.417L193.31 113.51a.183.183 0 0 1-.327-.113v-13.155a.53.53 0 0 0-.53-.53h-2.756a.53.53 0 0 0-.529.53zm-15.592 5.226 3.896 11.341a.378.378 0 0 1-.357.5h-7.423a.378.378 0 0 1-.357-.5l3.897-11.34a.182.182 0 0 1 .344 0z"/><path style="color:#000;font-style:normal;font-variant:normal;font-weight:300;font-stretch:normal;font-size:70.5556px;line-height:1.25;font-family:Bahnschrift;-inkscape-font-specification:'Bahnschrift Light';font-variant-ligatures:normal;font-variant-position:normal;font-variant-caps:normal;font-variant-numeric:normal;font-variant-alternates:normal;font-variant-east-asian:normal;font-feature-settings:normal;font-variation-settings:normal;text-indent:0;text-align:start;text-decoration:none;text-decoration-line:none;text-decoration-style:solid;text-decoration-color:#000;letter-spacing:normal;word-spacing:normal;text-transform:none;writing-mode:lr-tb;direction:ltr;text-orientation:mixed;dominant-baseline:auto;baseline-shift:baseline;text-anchor:start;white-space:normal;shape-padding:0;shape-margin:0;inline-size:0;clip-rule:nonzero;display:inline;overflow:visible;visibility:visible;isolation:auto;mix-blend-mode:normal;color-interpolation:sRGB;color-interpolation-filters:linearRGB;solid-color:#000;solid-opacity:1;vector-effect:none;fill-opacity:1;fill-rule:nonzero;stroke-width:.143619;stroke-linecap:butt;stroke-linejoin:miter;stroke-miterlimit:4;stroke-dasharray:none;stroke-dashoffset:0;stroke-opacity:1;color-rendering:auto;image-rendering:auto;shape-rendering:auto;text-rendering:auto;enable-background:accumulate;stop-color:#000;stop-opacity:1;stroke:none" d="M158.102 64.848c-1.59.056-2.994.367-4.207.935-.27.126-.684.355-.934.516a7.789 7.789 0 0 0-2.572 2.709c-.149.257-.36.682-.477.955-.547 1.276-.847 2.756-.898 4.44-.01.294-.008.768-.008 1.06v6.646c0 .292-.001.766.008 1.06.051 1.685.35 3.164.898 4.44.117.273.328.696.477.954a7.795 7.795 0 0 0 2.572 2.71c.25.16.664.39.934.516 1.213.569 2.616.88 4.207.936.294.01.77.01 1.064 0 1.588-.057 2.985-.368 4.19-.936.268-.127.682-.354.933-.514a7.766 7.766 0 0 0 2.59-2.713c.149-.257.36-.68.476-.953.548-1.276.848-2.755.899-4.44.009-.294.008-.768.008-1.06v-6.646c0-.292 0-.766-.008-1.06-.051-1.684-.351-3.164-.899-4.44a10.773 10.773 0 0 0-.476-.955 7.76 7.76 0 0 0-2.59-2.711c-.25-.16-.665-.387-.934-.514-1.204-.568-2.6-.88-4.189-.935-.295-.01-.77-.01-1.064 0zm-41.72.002c-1.478.064-2.816.403-4.009 1.013-.264.135-.672.376-.918.541a8.538 8.538 0 0 0-2.63 2.83c-.15.257-.367.679-.487.95-.575 1.29-.889 2.74-.945 4.35-.01.294-.01.768-.01 1.06v6.402c0 .292 0 .766.01 1.06v.003c.056 1.608.37 3.058.945 4.35.12.27.337.69.486.946a8.545 8.545 0 0 0 2.631 2.832c.247.166.655.404.92.538 1.193.6 2.531.934 4.01.998.295.012.769.012 1.064-.002a9.695 9.695 0 0 0 3.295-.729c.274-.114.7-.32.96-.465a9.102 9.102 0 0 0 2.509-2.054c.193-.226.479-.602.644-.848a9.944 9.944 0 0 0 1.381-3.135.482.482 0 0 0-.084-.426.504.504 0 0 0-.398-.18h-1.635c-.33 0-.646.246-.754.553a6.947 6.947 0 0 1-.976 1.852c-.171.23-.484.59-.686.793-.46.464-.967.849-1.525 1.156-.25.138-.684.335-.953.434a6.673 6.673 0 0 1-1.788.392c-.285.023-.76.023-1.046.004a6.571 6.571 0 0 1-2.534-.656 7.126 7.126 0 0 1-.89-.547 6.224 6.224 0 0 1-1.668-1.888 8.752 8.752 0 0 1-.46-.94c-.357-.893-.562-1.888-.61-2.984-.013-.289-.012-.764-.012-1.057v-6.402c0-.293-.001-.767.011-1.055.05-1.093.253-2.082.61-2.967.107-.266.316-.693.459-.941a6.202 6.202 0 0 1 1.672-1.904c.228-.171.632-.424.886-.553.762-.386 1.606-.608 2.536-.668.286-.019.762-.02 1.046.004.61.05 1.205.19 1.79.418.266.104.696.308.945.45.56.322 1.072.718 1.533 1.186.202.205.511.564.684.793.406.542.73 1.135.968 1.78.113.305.434.55.764.55h1.633a.504.504 0 0 0 .398-.18.482.482 0 0 0 .084-.425 9.792 9.792 0 0 0-1.379-3.117c-.166-.245-.45-.623-.64-.85a8.867 8.867 0 0 0-2.496-2.07 11.2 11.2 0 0 0-.96-.465 9.743 9.743 0 0 0-3.314-.728c-.295-.014-.769-.015-1.064-.002h-.002zm41.725.142c.29-.01.764-.01 1.053 0 1.572.056 2.95.362 4.133.92.26.123.677.352.92.506a7.608 7.608 0 0 1 2.54 2.662c.145.249.358.675.472.94.539 1.256.833 2.717.884 4.386.01.29.008.764.008 1.057v6.646c0 .293.001.767-.008 1.057-.05 1.67-.345 3.13-.884 4.387-.114.264-.327.69-.471.94a7.608 7.608 0 0 1-2.541 2.661c-.243.154-.66.384-.92.506-1.184.558-2.56.865-4.133.92-.29.01-.763.01-1.053 0-1.574-.056-2.957-.363-4.15-.922a9.736 9.736 0 0 1-.92-.506 7.64 7.64 0 0 1-2.525-2.66 10.816 10.816 0 0 1-.469-.94c-.539-1.256-.834-2.717-.885-4.386-.009-.29-.008-.764-.008-1.057v-6.646c0-.293 0-.767.008-1.057.051-1.669.346-3.13.885-4.386.113-.265.325-.69.469-.94a7.64 7.64 0 0 1 2.525-2.66c.242-.155.66-.384.92-.506 1.193-.559 2.576-.866 4.15-.922zm-41.716.002c.288-.012.764-.014 1.052 0a9.585 9.585 0 0 1 3.264.719c.266.11.694.319.945.459a8.71 8.71 0 0 1 2.455 2.035c.185.221.472.6.633.838a9.65 9.65 0 0 1 1.36 3.072.333.333 0 0 1-.057.301.358.358 0 0 1-.287.125h-1.633c-.255 0-.539-.212-.629-.455a7.132 7.132 0 0 0-.988-1.817 9.59 9.59 0 0 0-.697-.808 7.233 7.233 0 0 0-1.565-1.21 8.603 8.603 0 0 0-.963-.46 6.484 6.484 0 0 0-1.83-.426 8.693 8.693 0 0 0-1.068-.006 6.61 6.61 0 0 0-2.59.686 7.414 7.414 0 0 0-.908.564 6.35 6.35 0 0 0-1.711 1.948 9.273 9.273 0 0 0-.467.96c-.364.902-.57 1.907-.62 3.014-.012.296-.01.769-.01 1.06v6.403c0 .292-.002.767.01 1.063.05 1.11.257 2.12.622 3.03.11.277.317.702.467.96a6.374 6.374 0 0 0 1.707 1.931c.24.18.644.428.912.561.779.387 1.642.61 2.588.67.296.019.77.02 1.068-.004a6.81 6.81 0 0 0 1.824-.4c.28-.103.712-.298.973-.442a6.81 6.81 0 0 0 1.56-1.181c.21-.212.52-.57.698-.809.42-.565.752-1.195.996-1.889.086-.243.364-.457.62-.457h1.634c.127 0 .226.05.287.125a.333.333 0 0 1 .057.301 9.798 9.798 0 0 1-1.362 3.09 8.946 8.946 0 0 1-3.105 2.855c-.252.14-.678.348-.944.46a9.558 9.558 0 0 1-3.248.718 13.99 13.99 0 0 1-1.05 0c-1.461-.063-2.778-.389-3.952-.98-.256-.13-.665-.37-.904-.53a8.393 8.393 0 0 1-2.586-2.785 11.77 11.77 0 0 1-.478-.933c-.567-1.273-.88-2.705-.936-4.297-.01-.29-.008-.764-.008-1.057v-6.402c0-.293-.002-.768.008-1.057.056-1.592.369-3.022.936-4.295.117-.263.333-.687.478-.935a8.387 8.387 0 0 1 2.586-2.784c.239-.16.648-.402.904-.533 1.175-.6 2.49-.932 3.952-.996zm-44.477.125a.83.83 0 0 0-.78.543L61.478 91.86a.443.443 0 0 0 .414.594h1.933c.348 0 .66-.22.776-.547l1.99-5.603a.678.678 0 0 1 .639-.451h11.566c.287 0 .542.18.639.45l1.992 5.604a.822.822 0 0 0 .773.547h1.934c.304 0 .52-.308.414-.594l-9.658-26.197a.83.83 0 0 0-.78-.543h-2.195zm119.598 0c-.28 0-.441.249-.508.508l-.094-.13V91.85c0 .332.27.602.602.602h9.974c.292 0 .765.001 1.06-.012 1.195-.051 2.277-.28 3.243-.687.274-.116.698-.33.953-.483a6.55 6.55 0 0 0 2.063-1.917c.17-.246.406-.657.535-.926.42-.877.658-1.85.717-2.918.016-.295.015-.562.015-.59v-.004c-.064-1.224-.204-1.891-.437-2.523-.103-.28-.3-.711-.447-.971a6.038 6.038 0 0 0-1.202-1.508c-.22-.2-.595-.491-.847-.652a5.968 5.968 0 0 0-1.914-.785c-.051-.012-.08-.023-.108-.034a.75.75 0 0 1 .108-.035 6.139 6.139 0 0 0 1.822-.77c.252-.161.623-.454.842-.658.418-.389.765-.821 1.037-1.296.149-.26.34-.695.437-.977.18-.52.291-1.057.334-1.613.023-.298.022-.771.008-1.067-.051-1.097-.265-2.08-.643-2.947a7.58 7.58 0 0 0-.505-.943 5.972 5.972 0 0 0-1.946-1.854 8.461 8.461 0 0 0-.955-.48c-.975-.403-2.118-.627-3.427-.674-.296-.01-.769-.01-1.061-.01H191.512zm-159.145.02a.603.603 0 0 0-.601.601v55.54c0 .292 0 .765-.004 1.056-.075 4.884-1.191 8.728-3.344 11.543-.176.23-.48.596-.674.81-2.293 2.537-5.422 3.857-9.404 3.963-.29.008-.765.01-1.055.002-2.397-.058-4.607-.513-6.629-1.365a16.808 16.808 0 0 1-.953-.445c-1.919-.986-3.516-2.301-4.795-3.95a.516.516 0 0 0-.793-.05L.316 136.76a.696.696 0 0 0-.052.894c1.698 2.17 3.84 3.908 6.427 5.211.263.133.693.332.963.45 2.685 1.165 5.582 1.779 8.692 1.841.293.006.769.005 1.062 0 4.148-.064 7.74-.883 10.772-2.463.261-.136.673-.369.925-.521 2.883-1.743 5.123-4.157 6.72-7.236.135-.262.343-.686.466-.954.906-1.968 1.548-4.15 1.93-6.544l.06-.37c.008-.044.011-.08.016-.105l.012.012v-.131c.223-1.778.312-3.091.33-4.46.003-.293.002-.768.002-1.06v-2.187c0-.326.113-.64.32-.89l3.43-4.17a.299.299 0 0 1 .49.036l7.367 12.371c.18.304.508.49.861.49h3.616a.374.374 0 0 0 .32-.562l-9.332-15.666a.681.681 0 0 1 .06-.781l8.061-9.799c.17-.206.017-.525-.25-.525h-3.635a1.16 1.16 0 0 0-.912.443L38.84 113.043a.104.104 0 0 1-.123.037.106.106 0 0 1-.076-.105V65.74a.601.601 0 0 0-.6-.601h-5.674zm39.547.123h2.195c.288 0 .545.18.645.45l9.658 26.198a.294.294 0 0 1-.28.399H82.2a.676.676 0 0 1-.638-.45l-1.99-5.605a.822.822 0 0 0-.776-.545H67.229a.82.82 0 0 0-.774.545l-1.992 5.605a.676.676 0 0 1-.639.45h-1.933a.294.294 0 0 1-.28-.399l9.659-26.197c.1-.27.356-.451.644-.451zm119.598 0H201.168c.292 0 .766 0 1.055.01 1.296.046 2.422.269 3.379.664.264.109.69.322.935.47a5.824 5.824 0 0 1 1.899 1.81c.156.24.38.658.494.92.369.85.58 1.814.63 2.897.014.289.015.764-.007 1.049a6.315 6.315 0 0 1-.326 1.578c-.093.27-.285.707-.426.953a5.358 5.358 0 0 1-1.01 1.262c-.21.195-.583.49-.822.643-.517.33-1.109.58-1.78.75a.846.846 0 0 0-.173.06.21.21 0 0 0-.059.04.111.111 0 0 0-.033.077c0 .033.017.061.035.078a.206.206 0 0 0 .059.038.863.863 0 0 0 .175.054c.689.156 1.31.412 1.868.768.24.153.616.444.828.637.468.426.858.917 1.172 1.472.14.249.34.68.439.95.228.618.364 1.266.428 2.482 0 .036.002.289-.014.576-.058 1.052-.294 2.008-.705 2.867a8.115 8.115 0 0 1-.523.904 6.403 6.403 0 0 1-2.018 1.877 9.174 9.174 0 0 1-.936.473c-.948.4-2.011.627-3.191.678-.288.012-.762.01-1.055.01h-9.974a.457.457 0 0 1-.46-.457V65.72c0-.254.206-.46.46-.46zm-159.145.021h5.674c.253 0 .457.204.457.457v47.235c0 .117.078.207.172.24.094.032.21.01.283-.082l10.195-12.96a1.02 1.02 0 0 1 .801-.388h3.635c.155 0 .237.171.139.291l-8.06 9.797a.824.824 0 0 0-.073.945l9.332 15.666a.227.227 0 0 1-.197.346h-3.616a.857.857 0 0 1-.738-.418l-7.367-12.373a.444.444 0 0 0-.723-.055l-3.431 4.17a1.544 1.544 0 0 0-.352.983v2.187c0 .293 0 .768-.004 1.059-.018 1.365-.105 2.673-.328 4.451V126.891l-.002.007-.006.034a6.683 6.683 0 0 0-.02.113l-.058.37c-.38 2.382-1.02 4.552-1.92 6.507-.121.264-.33.69-.463.947-1.585 3.058-3.806 5.45-6.666 7.18-.248.15-.66.384-.918.517-3.008 1.568-6.578 2.384-10.709 2.448-.29.005-.764.004-1.054-.002-3.093-.062-5.972-.671-8.64-1.828a22.273 22.273 0 0 1-.954-.448c-2.57-1.294-4.694-3.017-6.379-5.17a.565.565 0 0 1 .043-.707l3.799-3.916c.177-.182.42-.162.576.04 1.291 1.664 2.905 2.995 4.842 3.99.262.135.693.334.965.449 2.039.859 4.266 1.317 6.68 1.375.293.007.767.008 1.062 0 4.012-.107 7.187-1.445 9.508-4.012.198-.219.5-.584.68-.818 2.176-2.846 3.297-6.725 3.372-11.63.005-.293.004-.766.004-1.058V65.74c0-.253.206-.457.46-.457zm126.268 2.06s-.24 0-.533.014c-1.024.054-1.941.265-2.748.633a7.244 7.244 0 0 0-.932.526 5.615 5.615 0 0 0-1.66 1.8 8.232 8.232 0 0 0-.467.961c-.345.872-.54 1.87-.586 2.994-.012.296-.01.769-.01 1.061v6.908c0 .292-.002.765.01 1.06.046 1.127.242 2.132.588 3.013.109.277.314.704.467.96a5.748 5.748 0 0 0 1.66 1.8c.245.171.66.403.933.525.807.36 1.722.565 2.745.617.295.015.768.015 1.064 0 1.02-.052 1.929-.257 2.727-.615a7.05 7.05 0 0 0 .933-.526 5.715 5.715 0 0 0 1.678-1.8 7.81 7.81 0 0 0 .467-.962c.345-.88.542-1.885.588-3.011.011-.295.01-.769.01-1.06v-6.909c0-.292.002-.765-.01-1.06-.046-1.124-.242-2.123-.586-2.995a8.16 8.16 0 0 0-.467-.96 5.584 5.584 0 0 0-1.678-1.803c-.247-.169-.66-.401-.932-.526-.798-.367-1.71-.577-2.73-.63h-.002l-.53-.014zm-.002.145.527.014c1.005.053 1.897.26 2.676.617.26.12.674.351.91.512a5.444 5.444 0 0 1 1.635 1.76c.145.246.354.673.459.94.337.853.529 1.836.574 2.946.012.289.012.763.012 1.055v6.908c0 .293 0 .766-.012 1.055-.045 1.113-.238 2.101-.576 2.965a7.813 7.813 0 0 1-.46.94 5.562 5.562 0 0 1-1.634 1.755c-.234.162-.65.397-.91.514-.78.35-1.671.55-2.676.601-.288.015-.76.015-1.049 0-1.008-.051-1.905-.252-2.693-.603a6.725 6.725 0 0 1-.91-.514 5.593 5.593 0 0 1-1.617-1.754 7.876 7.876 0 0 1-.46-.94c-.338-.863-.53-1.85-.575-2.964-.012-.289-.012-.762-.012-1.055v-6.908c0-.292 0-.766.012-1.055.045-1.11.236-2.093.574-2.947.105-.266.314-.695.459-.941a5.46 5.46 0 0 1 1.617-1.754c.234-.162.65-.395.91-.514.789-.36 1.687-.566 2.695-.619.29-.015.524-.014.524-.014zm35.57.137c-.33 0-.6.27-.6.602v8.421c0 .331.27.602.6.602h6.89c.293 0 .765.002 1.061-.012 1.27-.06 2.294-.345 3.07-.857.253-.167.61-.48.807-.711.572-.673.897-1.553.975-2.633a8.852 8.852 0 0 0 0-1.068c-.083-1.143-.442-2.066-1.076-2.76a4.655 4.655 0 0 0-.828-.684c-.868-.538-2.026-.833-3.471-.89-.295-.012-.769-.01-1.06-.01h-6.368zm0 .145h6.367c.293 0 .766-.002 1.055.01 1.429.056 2.562.346 3.4.866.24.15.61.452.8.659.61.667.955 1.555 1.036 2.674.021.285.021.76 0 1.046-.076 1.058-.39 1.905-.94 2.551-.18.214-.54.53-.775.686-.748.493-1.746.772-2.998.832-.287.014-.762.011-1.054.011h-6.89a.456.456 0 0 1-.458-.457v-8.421c0-.254.204-.457.457-.457zm-121.191.546a.26.26 0 0 0-.244.174l-5.069 14.262a.447.447 0 0 0 .42.594h9.785a.447.447 0 0 0 .42-.594L73.256 68.49a.26.26 0 0 0-.244-.174zm0 .145c.046 0 .09.021.11.076L78.188 82.8a.302.302 0 0 1-.285.404H68.12a.302.302 0 0 1-.285-.404l5.068-14.262a.109.109 0 0 1 .11-.076zm121.191 11.15c-.33 0-.6.27-.6.602v9.133c0 .33.27.601.6.601h5.955c.292 0 .766.001 1.06-.008 1.763-.053 3.133-.38 4.108-.986.257-.16.624-.46.832-.678.707-.739 1.107-1.689 1.22-3.351v-.004c0-.028.003-.295-.017-.59a6.062 6.062 0 0 0-.369-1.777 5.37 5.37 0 0 0-.492-.953 3.908 3.908 0 0 0-1.143-1.084 6.188 6.188 0 0 0-.959-.475c-.637-.238-1.385-.378-2.244-.418-.295-.014-.768-.012-1.06-.012h-6.89zm0 .145h6.89c.293 0 .767-.002 1.055.012.847.039 1.58.176 2.2.408.266.1.693.309.933.46.45.285.816.634 1.1 1.046.16.231.375.658.476.923.199.519.32 1.096.362 1.735.019.288.017.546.017.58-.113 1.639-.499 2.542-1.181 3.256a5.087 5.087 0 0 1-.805.656c-.944.587-2.288.91-4.035.963-.29.009-.764.008-1.057.008h-5.955a.456.456 0 0 1-.457-.457v-9.133c0-.254.204-.457.457-.457zm-64.031 19.613-.088.002c-1.48.065-2.816.403-4.01 1.014-.264.135-.673.375-.92.54a8.533 8.533 0 0 0-2.629 2.83c-.149.257-.365.68-.486.95-.575 1.291-.89 2.741-.947 4.35-.01.295-.008.768-.008 1.06v6.405c0 .292-.002.765.008 1.06.056 1.608.372 3.059.947 4.35.12.27.337.693.486.949a8.533 8.533 0 0 0 2.63 2.83c.246.166.656.403.921.537 1.193.601 2.53.935 4.008.998.295.013.77.013 1.066-.002a9.389 9.389 0 0 0 3.3-.76c.272-.118.692-.332.948-.482a9.27 9.27 0 0 0 2.528-2.186c.186-.23.464-.614.625-.863a10.582 10.582 0 0 0 1.392-3.312.49.49 0 0 0-.088-.428.504.504 0 0 0-.398-.178h-2.85c-.33 0-.643.247-.75.555a5.751 5.751 0 0 1-.712 1.412 7.32 7.32 0 0 1-.67.803c-.336.337-.704.62-1.104.851-.246.142-.68.34-.95.434a5.392 5.392 0 0 1-1.282.277c-.284.027-.76.027-1.045.004a5.262 5.262 0 0 1-1.9-.5 5.759 5.759 0 0 1-.88-.556 5.207 5.207 0 0 1-1.251-1.467 7.7 7.7 0 0 1-.448-.944 7.695 7.695 0 0 1-.467-2.328c-.015-.287-.013-.762-.013-1.054v-6.405c0-.292-.002-.765.013-1.052.045-.856.2-1.633.465-2.33.102-.268.306-.697.45-.944a5.207 5.207 0 0 1 1.251-1.467c.222-.177.624-.434.877-.56a5.164 5.164 0 0 1 1.903-.516 6.947 6.947 0 0 1 1.045.006c.436.045.863.145 1.285.303.267.1.696.307.94.455.404.245.776.543 1.115.892.199.206.502.571.667.805.29.41.523.852.7 1.326.113.305.432.551.761.551h2.85a.506.506 0 0 0 .398-.18.49.49 0 0 0 .088-.427 10.586 10.586 0 0 0-1.394-3.313c-.16-.249-.436-.634-.621-.865a8.92 8.92 0 0 0-2.508-2.166c-.257-.149-.68-.365-.951-.485a9.278 9.278 0 0 0-3.319-.773 13.553 13.553 0 0 0-.978-.002v-.004zm-.08.147c.288-.013.763-.013 1.05.002a9.142 9.142 0 0 1 3.27.761c.263.117.687.332.936.477.948.55 1.77 1.26 2.468 2.133.18.225.457.611.614.853a10.448 10.448 0 0 1 1.375 3.27.34.34 0 0 1-.06.302.358.358 0 0 1-.288.125h-2.85c-.254 0-.536-.213-.627-.457a5.93 5.93 0 0 0-.716-1.357 8.337 8.337 0 0 0-.682-.822 5.717 5.717 0 0 0-1.144-.916 6.814 6.814 0 0 0-.963-.465 5.3 5.3 0 0 0-1.323-.313 6.935 6.935 0 0 0-1.07-.005 5.312 5.312 0 0 0-1.955.529c-.27.134-.668.39-.902.578-.51.408-.939.91-1.286 1.506-.15.258-.354.686-.46.965-.272.713-.43 1.504-.475 2.373-.016.296-.014.768-.014 1.06v6.405c0 .292 0 .764.016 1.06a7.85 7.85 0 0 0 .474 2.373c.106.28.31.707.46.965a5.346 5.346 0 0 0 1.285 1.506c.234.187.635.443.906.574.59.287 1.242.46 1.951.516.297.023.772.024 1.07-.004.451-.042.89-.138 1.317-.287.282-.099.715-.294.974-.444.412-.237.79-.529 1.133-.875.21-.212.515-.576.686-.822.304-.437.547-.919.73-1.447.085-.245.36-.46.615-.46h2.85c.127 0 .225.052.287.128a.34.34 0 0 1 .06.302 10.448 10.448 0 0 1-1.374 3.27c-.157.242-.436.626-.618.85a9.108 9.108 0 0 1-2.486 2.15c-.248.146-.67.362-.933.477a9.248 9.248 0 0 1-3.25.748c-.288.014-.763.014-1.051.002-1.461-.063-2.778-.391-3.951-.983-.257-.13-.668-.369-.907-.53a8.387 8.387 0 0 1-2.586-2.782 11.809 11.809 0 0 1-.478-.936c-.567-1.272-.878-2.704-.934-4.297-.01-.289-.01-.762-.01-1.054v-6.405c0-.292 0-.765.01-1.054.056-1.593.367-3.025.934-4.297.117-.263.333-.687.478-.936a8.387 8.387 0 0 1 2.586-2.783c.239-.16.649-.402.905-.533 1.174-.601 2.491-.933 3.953-.996zm-70.194.125a.603.603 0 0 0-.601.601v26.131c0 .331.27.602.601.602h16.409c.33 0 .6-.27.6-.602v-2.568a.601.601 0 0 0-.6-.602H63.713a.456.456 0 0 1-.457-.457v-22.504a.603.603 0 0 0-.602-.601h-2.756zm21.954 0c-.331 0-.6.27-.6.601v26.131c0 .331.269.602.6.602h2.757c.331 0 .6-.27.6-.602v-26.13a.601.601 0 0 0-.6-.602h-2.757zm10.546 0c-.33 0-.6.27-.6.601v26.131c0 .331.27.602.6.602h2.665c.33 0 .6-.27.6-.602v-17.316c0-.028.013-.035.032-.04.02-.004.034-.002.045.024l6.078 13.63c.143.32.46.526.81.526h1.597c.35 0 .667-.208.806-.529l6.086-13.988c.01-.025.025-.028.043-.024.018.004.03.012.03.04v17.677c0 .331.27.602.601.602h2.664c.331 0 .6-.27.6-.602v-26.13a.601.601 0 0 0-.6-.602h-2.514a.889.889 0 0 0-.81.527l-7.555 16.984a.157.157 0 0 1-.148.098.16.16 0 0 1-.15-.098l-7.555-16.984a.889.889 0 0 0-.81-.527h-2.515zm50.885 0a.603.603 0 0 0-.601.601v2.569c0 .33.27.601.601.601h10.535c.182 0 .292.19.2.348l-11.395 19.36c-.182.309-.277.661-.277 1.02v2.233c0 .331.268.602.6.602h15.847c.331 0 .602-.27.602-.602v-2.568a.603.603 0 0 0-.602-.602h-11.152a.23.23 0 0 1-.202-.348l11.305-19.357a2.03 2.03 0 0 0 .276-1.023v-2.233a.603.603 0 0 0-.602-.601h-15.135zm29.024 0a.833.833 0 0 0-.782.543l-9.656 26.197a.443.443 0 0 0 .414.594h3.055c.347 0 .657-.221.77-.55l1.704-4.964a.668.668 0 0 1 .633-.451h9.916c.287 0 .54.18.633.45l1.705 4.966a.814.814 0 0 0 .77.549h3.056a.442.442 0 0 0 .412-.594l-9.656-26.197a.83.83 0 0 0-.78-.543h-2.194zm17.39 0a.603.603 0 0 0-.601.601v26.131c0 .331.27.602.601.602h2.756c.331 0 .602-.27.602-.602v-6.832c0-.325.113-.641.32-.893l3.762-4.572a.299.299 0 0 1 .49.037l7.365 12.371c.18.304.508.49.862.49h3.617a.374.374 0 0 0 .32-.562l-9.332-15.666a.68.68 0 0 1 .059-.781l8.06-9.797a.325.325 0 0 0-.248-.527h-3.635c-.356 0-.694.163-.914.443l-10.527 13.383c-.035.044-.082.05-.125.035a.105.105 0 0 1-.074-.106v-13.154a.603.603 0 0 0-.602-.601h-2.756zm-.601.601.011-.039-.011.018v.021zm-129.198-.457h2.756c.254 0 .457.204.457.457v22.504c0 .331.27.602.602.602h12.594c.253 0 .457.203.457.457v2.568a.457.457 0 0 1-.457.459H59.898a.457.457 0 0 1-.457-.459v-26.13c0-.254.204-.458.457-.458zm21.954 0h2.757c.254 0 .457.204.457.457v26.131a.457.457 0 0 1-.457.459h-2.757a.457.457 0 0 1-.457-.459v-26.13c0-.254.203-.458.457-.458zm10.546 0h2.514c.294 0 .56.171.68.44l7.554 16.986a.307.307 0 0 0 .561 0l7.555-16.986a.743.743 0 0 1 .68-.44h2.513c.254 0 .457.204.457.457v26.131a.457.457 0 0 1-.457.459h-2.664a.457.457 0 0 1-.457-.459v-17.678a.186.186 0 0 0-.145-.18.186.186 0 0 0-.205.106l-6.084 13.99a.736.736 0 0 1-.675.442h-1.596a.743.743 0 0 1-.68-.44l-6.076-13.63a.187.187 0 0 0-.207-.106.186.186 0 0 0-.146.18v17.316a.457.457 0 0 1-.457.459h-2.665a.457.457 0 0 1-.457-.459v-26.13c0-.254.204-.458.457-.458zm50.885 0h15.135c.253 0 .459.204.459.457v2.233c0 .333-.09.663-.258.95l-11.303 19.356a.379.379 0 0 0 .325.567h11.152c.253 0 .457.203.457.457v2.568a.457.457 0 0 1-.457.459h-15.848a.457.457 0 0 1-.457-.459v-2.232c0-.334.09-.662.26-.95l11.393-19.357a.377.377 0 0 0-.323-.564h-10.535a.457.457 0 0 1-.457-.46v-2.568c0-.253.204-.457.457-.457zm29.024 0h2.195c.288 0 .545.179.644.45l9.657 26.197a.295.295 0 0 1-.278.4h-3.056a.67.67 0 0 1-.633-.453l-1.705-4.965a.814.814 0 0 0-.77-.549h-9.916a.812.812 0 0 0-.767.55l-1.707 4.964a.67.67 0 0 1-.633.453h-3.055a.296.296 0 0 1-.28-.4l9.657-26.198c.1-.27.359-.449.647-.449zm17.39 0h2.756c.254 0 .457.204.457.457v13.154c0 .118.078.21.172.243a.258.258 0 0 0 .285-.084l10.528-13.381a1.02 1.02 0 0 1 .8-.389h3.635c.156 0 .237.171.139.291l-8.06 9.797a.828.828 0 0 0-.073.947l9.332 15.664a.228.228 0 0 1-.197.348h-3.617a.86.86 0 0 1-.739-.42l-7.365-12.373a.446.446 0 0 0-.725-.055l-3.761 4.575a1.546 1.546 0 0 0-.354.982v6.832a.457.457 0 0 1-.457.459h-2.756a.457.457 0 0 1-.457-.459v-26.13c0-.254.204-.458.457-.458zm-16.293 5.488c-.099 0-.202.062-.24.172l-3.896 11.34a.45.45 0 0 0 .423.596h7.424a.45.45 0 0 0 .424-.596l-3.896-11.34a.253.253 0 0 0-.239-.172zm0 .145c.045 0 .086.021.104.074l3.896 11.34a.305.305 0 0 1-.289.406h-7.424a.305.305 0 0 1-.289-.406l3.897-11.34a.105.105 0 0 1 .105-.074zM38.238 126.83l-.002.072h.002l.05.051a.953.953 0 0 0-.009.008l-.043-.059-.039-.03.041-.042z"/></g></svg>