<?xml version="1.0" encoding="UTF-8"?>
<svg id="Layer_1" data-name="Layer 1" xmlns="http://www.w3.org/2000/svg" viewBox="0 0 650.74 160.63">
  <defs>
    <style>
      .cls-1 {
        fill: #fff;
      }

      .cls-2 {
        fill: #dd1f2e;
      }

      .cls-3 {
        fill: none;
      }
    </style>
  </defs>
  <path class="cls-2" d="M0,17.52s24.24,10.82,40.4,25.97c0,0-58.92,45.76-3.03,100.79h63.29s-52.44-47.96,3.11-101.44c0,0-29.08-25.32-48.35-25.32H0Z"/>
  <g>
    <path class="cls-2" d="M90.82,73.07h45.68v7.77h-48.34s1.68-5.62,2.66-7.77Z"/>
    <path class="cls-2" d="M145.11,73.07h25.96s-1.34,5.95-14.57,7.78h-11.39v-7.78Z"/>
    <path class="cls-2" d="M222.11,73.07s-.55,4.84-1.35,7.77h-47.43s5.32-3.98,6.37-7.77h42.41Z"/>
    <path class="cls-2" d="M96.21,63.15h40.29v7.77h-44.7s2.43-4.98,4.41-7.77Z"/>
    <path class="cls-2" d="M145.11,63.15h28.03s.15,5.62-.96,7.77h-27.07v-7.77Z"/>
    <path class="cls-2" d="M104.03,53.52h67.28s1.7,2.78,1.83,7.55h-28.03v-3.77h-8.62v3.77s-38.8-.07-38.8-.07c0,0,4.63-6.09,6.33-7.47Z"/>
    <path class="cls-2" d="M220.95,53.52s.99,4.8,1.21,7.47l-41.16,.17s.08-1.3-.48-4.07-.83-3.58-.83-3.58h41.26Z"/>
    <path class="cls-2" d="M162.28,47.18c.4,0,.8,.04,1.19,.13,.81,.19,2.22,.6,3.29,1.33,1.14,.78,2.19,1.33,3.01,2.72h-63.52s2.54-2.28,4.9-4.18h51.14Z"/>
    <path class="cls-2" d="M173.14,45.06h45.17s1.53,4.16,2.08,6.31h-41.93s-1.21-1.73-2.52-3.29c-1.14-1.35-2.38-2.51-2.8-3.02Z"/>
    <path class="cls-2" d="M108.22,36.59h106s2.31,4.16,3.2,6.31h-47.67s-2.67-1.87-13.26-1.95l-38.72-.04h-5.04c-1.03-1.29-2.58-2.97-4.52-4.32Z"/>
    <path class="cls-2" d="M95.75,28.13h112.63s3.26,4.16,4.55,6.31H105.6l-9.85-6.31Z"/>
    <polygon class="cls-2" points="87.63 82.99 136.5 82.99 136.5 89.03 86.61 89.03 87.63 82.99"/>
    <path class="cls-2" d="M145.11,82.99h12.02s5.41,4.46,6.44,6.05h-18.45v-6.05Z"/>
    <path class="cls-2" d="M218.11,89.03l-42.81,.1-6.3-6.24,51.19,.09s-1.16,3.89-2.08,6.05Z"/>
    <path class="cls-2" d="M86.42,91.18h50.08v7.77h-50.11s-.16-5.62,.03-7.77Z"/>
    <path class="cls-2" d="M145.11,91.18h21.33s6.18,5.62,7.26,7.77h-28.59v-7.77Z"/>
    <path class="cls-2" d="M177.11,91.18h40.08s-2.15,5.12-4.15,7.77h-29.08l-6.85-7.77Z"/>
    <path class="cls-2" d="M86.58,101.11h49.92v6.94h-48.75s-.9-3.49-1.17-6.94Z"/>
    <polygon class="cls-2" points="145.11 101.11 175.33 101.11 180.55 108.04 145.11 108.04 145.11 101.11"/>
    <polygon class="cls-2" points="185.86 101.11 211.37 101.11 206.93 108.04 191.75 108.04 185.86 101.11"/>
    <polygon class="cls-2" points="193.49 110.2 204.99 110.2 198.62 116.53 193.49 110.2"/>
    <polygon class="cls-2" points="88.38 110.2 136.5 110.2 136.49 113.64 145.11 113.64 145.11 110.2 182.16 110.2 187.33 117.08 90.7 117.08 88.38 110.2"/>
    <path class="cls-2" d="M96.07,127.12h98.73s3.76,4.45,6.87,6.6H101.08l-5.01-6.6Z"/>
    <polygon class="cls-2" points="91.66 119.24 189.08 119.24 193.01 124.91 94.72 124.96 91.66 119.24"/>
    <polygon class="cls-1" points="96.62 33.41 96.65 33.51 96.72 33.51 96.62 33.41 96.62 33.41"/>
    <path class="cls-2" d="M188.51,11.21H104.02c-3.25,1.9-6.32,4.01-9.19,6.31h102.87c-2.87-2.3-5.94-4.41-9.19-6.31h0Z"/>
    <path class="cls-2" d="M206.56,25.98c-1.95-2.22-4.05-4.33-6.3-6.31H92.27c-1.88,1.65-2.7,2.39-4.38,4.21,1.61,.54,2.81,1.18,4.41,2.11h114.26Z"/>
    <path class="cls-2" d="M146.26,0c-13.96,0-27.04,3.31-38.3,9.06h76.59C173.31,3.31,160.23,0,146.26,0h0Z"/>
    <path class="cls-2" d="M123.61,151.22h79.92c3.79-1.94,7.36-4.15,10.68-6.6H112.93c3.33,2.45,6.89,4.66,10.68,6.6h0Z"/>
    <path class="cls-2" d="M216.23,142.47H110.14c-2.55-2.06-4.92-4.27-7.12-6.6h101.76c5.32,3.91,11.45,6.6,11.45,6.6"/>
    <path class="cls-2" d="M163.57,160.63c12.75,0,24.77-2.63,35.37-7.25h-70.75c10.6,4.63,22.62,7.25,35.37,7.25h0Z"/>
    <path class="cls-3" d="M136.5,60.2v.87l-38.8-.07s3.26-4.27,6.33-7.47h67.28s1.66,3.28,1.83,7.55h-28.03v-.87"/>
    <path class="cls-2" d="M222.3,70.92s.23-5.62,.04-7.77h-40.92s.45,4.06-.6,7.77h41.48Z"/>
  </g>
  <path class="cls-2" d="M207.61,17.52l406.81-.09s52.46,48.94-4.87,103.97c0,0,15.81,17.31,41.18,22.88H260.98s-33.45,1.74-57.47-22.18c0,0,58.46-44.6,4.1-104.58Zm394.16,21.42v-2.06h.73c.16,0,.28,0,.35,.02,.1,.02,.19,.06,.29,.12,.09,.06,.2,.16,.32,.31,.12,.15,.27,.36,.45,.64l.63,.96h.79l-.82-1.26c-.16-.25-.34-.45-.52-.62-.09-.08-.21-.15-.38-.23,.45-.06,.79-.2,1.01-.43,.22-.23,.33-.5,.33-.83,0-.26-.07-.49-.2-.7-.13-.21-.31-.36-.53-.44s-.54-.12-.96-.12h-2.1v4.64h.63Zm0-4.12h1.5c.35,0,.61,.07,.77,.21,.16,.14,.24,.32,.24,.54,0,.15-.04,.29-.13,.42-.08,.13-.21,.22-.37,.28-.16,.06-.39,.09-.67,.09h-1.35v-1.53Zm1.35-1.63c-1.93,0-3.5,1.53-3.5,3.43s1.57,3.43,3.5,3.43,3.5-1.53,3.5-3.43-1.57-3.43-3.5-3.43ZM239.71,78.53c0-12.29,9.75-22.36,22.01-23.1v-3.26c-14.07,.75-25.3,12.26-25.3,26.35s11.23,25.6,25.3,26.35v-3.25c-12.26-.74-22.01-10.8-22.01-23.1h0Zm49.77,0c0-13.95-11-25.38-24.88-26.33v3.25c12.06,.94,21.58,10.92,21.58,23.08s-9.52,22.13-21.58,23.07v3.25c13.87-.95,24.88-12.38,24.88-26.33h0Zm-10.71,0c0,8.11-6.21,14.81-14.17,15.72v3.28c9.78-.93,17.47-9.1,17.47-19s-7.68-18.08-17.47-19.01v3.28c7.96,.91,14.17,7.61,14.17,15.73h0Zm-34.94,0c0,10.05,7.9,18.29,17.89,19.02v-3.25c-8.17-.72-14.59-7.51-14.59-15.77s6.43-15.05,14.59-15.77v-3.26c-9.98,.73-17.89,8.98-17.89,19.03h0Zm61.14-14.08v39.44s2.88,0,2.88,0v-39.44s-3.17,0-3.17,0h.29Zm5.77,0v39.44s2.88,0,2.88,0v-39.44s-2.75,0-2.75,0h-.13Zm24.42-8.47c1.31-.75,2.73-1.73,4.42-2.57v-.25h-60.56v-.03c1.54,.91,3.12,1.98,4.56,2.86h51.59Zm-49.35,2.82c.94,.71,1.8,1.8,2.56,2.82h41.92c.78-1.03,1.65-2.11,2.6-2.82h-47.08Zm46.18,19.73c0-12.29,9.75-22.36,22.01-23.1v-3.26c-14.07,.75-25.3,12.26-25.3,26.35s11.23,25.6,25.3,26.35v-3.25c-12.26-.74-22.01-10.8-22.01-23.1h0Zm50.75,0c0-13.95-11.02-25.38-24.89-26.33v3.25c12.06,.94,21.6,10.92,21.6,23.08s-9.54,22.13-21.6,23.07v3.25c13.87-.95,24.89-12.38,24.89-26.33h0Zm-46.63,0c0,10.05,7.9,18.29,17.89,19.02v-3.25c-8.17-.72-14.59-7.51-14.59-15.77s6.43-15.05,14.59-15.77v-3.26c-9.98,.73-17.89,8.98-17.89,19.03h0Zm35.9,0c0,8.11-6.21,14.81-14.17,15.72v3.28c9.78-.93,17.48-9.1,17.48-19s-7.7-18.08-17.48-19.01v3.28c7.96,.91,14.17,7.61,14.17,15.73h0Zm182.24-28.3v37.65l2.88,5.76V58.05c4.36,3.92,34.88,33.81,46.85,45.85h4.68l-54.46-53.67h.05Zm47.1,1.89h-2.88v35.83l2.88,3.23V52.12Zm6.73,0h-2.88v42.34l2.88,3.23V52.12Zm-47.1,16.66v29.8l2.88,5.76v-31.63c3.26,3.47,21.69,21.63,31.06,31.18h4.67l-38.61-39.04v3.93h0Zm-148.33-16.77c-14.74,0-26.74,11.85-26.74,26.42s11.99,26.42,26.74,26.42c8.21,0,15.57-3.69,20.48-9.47v-5.71c-4.01,7.11-11.68,11.92-20.48,11.92-12.93,0-23.44-10.39-23.44-23.17s10.52-23.17,23.44-23.17c6,0,11.46,2.26,15.61,5.93l1.95-2.64c-4.7-4.06-10.84-6.55-17.56-6.55h0Zm.21,7.52c-10.66,0-19.32,8.57-19.32,19.1s8.67,19.1,19.32,19.1c6.44,0,12.14-3.15,15.66-7.95h-4.28c-2.9,2.89-6.93,4.69-11.37,4.69-8.84,0-16.03-7.11-16.03-15.84s7.19-15.84,16.03-15.84c4.36,0,8.32,1.74,11.22,4.55l1.95-2.64c-3.46-3.19-8.08-5.16-13.17-5.16h0Zm5.85,21.77h24.99v22.59s2.88,0,2.88,0v-25.42s-27.88,0-27.88,0v2.82Zm0,5.3l19.76,.02v17.28h2.91v-20.08s-22.67,0-22.67,0v2.78Zm31.72-22.24v39.54s2.88,0,2.88,0v-39.54s-3.32,0-3.32,0h.43Zm5.77,0v39.54s2.88,0,2.88,0v-39.54s-2.9,0-2.9,0h.02Zm-13.46-6.59v3.77h31.57c1.53,0,3,.59,4.09,1.66,.95,.93,1.81,2.16,1.86,3.53,.09,2.57-.03,4.36-.14,4.94-.11,.58-.47,3.58-5.92,4l-12.03-.03v2.85h12.17c6.97-.53,9.02-4.92,9.15-7.17l.15-4.86c.17-4.23-2.19-6.27-4.23-7.57-1.6-1.02-2.72-1.11-3.59-1.11h-33.06Zm0-2.82h31.93c2.1,0,4.18,.5,5.98,1.57,4.77,2.83,6.18,6.57,6.18,10.26l-.06,3.51c-.39,11.98-13.89,11.01-13.89,11.01l20.12,22.59,4.7,.04-18-19.9c9.25-3.34,10.21-10.67,10.22-13.46,0-.7,.1-2.86,.09-3.67-.08-5.88-3.12-9.58-6.14-11.8-2.7-1.99-6.02-2.97-9.37-2.97h-31.75v2.82Zm22.11,29.33c3.67,0,6.22,2.83,6.22,2.83l13.5,16.79,4.84,.04s-16.19-18.82-16.3-18.94c-2.25-2.42-4.96-3.74-8.26-3.74h-2.7s0,3.01,0,3.01h2.69Zm89.84,19.63h3.81l-29.62-51.78h-3.81l29.62,51.78h0Zm-38.15-46.37l-20.98,38.62,2.33,2.58,20.56-37.85-1.92-3.35h0Zm3.45,6.02l-20.23,37.24,2.34,2.58,19.81-36.48-1.92-3.35h0Zm-1.88-11.43l16.7,29.18h-18l-1.53,2.82h21.15l2.15,3.77h-25.35s-1.53,2.82-1.53,2.82h28.5s7.54,13.18,7.54,13.18h3.81l-29.62-51.78h-3.81Zm-212.62,65.67v18.3h4.1v-18.3h-4.1Zm11.45,18.3v-5.51c0-2.99-.05-5.56-.19-8.01h.11c.86,2.14,2.08,4.48,3.16,6.46l3.89,7.06h4.32v-18.3h-3.78v5.32c0,2.77,.08,5.24,.32,7.66h-.05c-.84-2.06-1.89-4.34-2.97-6.27l-3.78-6.71h-4.81v18.3h3.78Zm18.39,0h4.11v-14.82h4.97v-3.47h-13.99v3.47h4.92v14.82Zm22.09-11.1h-6.7v-3.8h7.1v-3.39h-11.21v18.3h11.59v-3.39h-7.48v-4.34h6.7v-3.37Zm3.59,11.1h4.08v-7.19h1.22c1.7,.03,2.48,.62,3,2.93,.51,2.25,.97,3.72,1.24,4.26h4.21c-.35-.71-.89-3.09-1.46-5.18-.46-1.68-1.16-2.88-2.43-3.39v-.08c1.57-.57,3.21-2.17,3.21-4.48,0-1.68-.59-2.96-1.7-3.83-1.3-1.06-3.19-1.47-5.89-1.47-2.21,0-4.16,.16-5.48,.41v18.02Zm4.08-15.2c.3-.08,.86-.14,1.86-.14,1.89,0,3.02,.87,3.02,2.52s-1.21,2.63-3.27,2.63h-1.62v-5.02Zm15.72,15.2v-5.51c0-2.99-.05-5.56-.19-8.01h.11c.86,2.14,2.08,4.48,3.16,6.46l3.89,7.06h4.32v-18.3h-3.78v5.32c0,2.77,.08,5.24,.32,7.66h-.05c-.84-2.06-1.89-4.34-2.97-6.27l-3.78-6.71h-4.81v18.3h3.78Zm24.3-4.7l1.4,4.7h4.43l-5.67-18.3h-5.38l-5.56,18.3h4.27l1.27-4.7h5.24Zm-4.65-3.09l1.11-3.88c.27-1.06,.57-2.44,.81-3.53h.08c.27,1.06,.59,2.44,.89,3.53l1.13,3.88h-4.02Zm14.2,7.79h4.11v-14.82h4.97v-3.47h-13.99v3.47h4.92v14.82Zm11.29-18.3v18.3h4.11v-18.3h-4.11Zm15.42,18.59c5.32,0,8.91-3.61,8.91-9.64,0-5.05-3.05-9.26-8.64-9.26s-8.86,4.1-8.86,9.58,3.19,9.31,8.56,9.31h.03Zm.16-3.29c-2.75,0-4.4-2.69-4.4-6.13s1.59-6.19,4.43-6.19,4.38,2.82,4.38,6.11c0,3.58-1.59,6.22-4.38,6.22h-.03Zm15.23,2.99v-5.51c0-2.99-.05-5.56-.19-8.01h.11c.86,2.14,2.08,4.48,3.16,6.46l3.89,7.06h4.32v-18.3h-3.78v5.32c0,2.77,.08,5.24,.32,7.66h-.05c-.84-2.06-1.89-4.34-2.97-6.27l-3.78-6.71h-4.81v18.3h3.78Zm24.31-4.7l1.4,4.7h4.43l-5.67-18.3h-5.38l-5.56,18.3h4.27l1.27-4.7h5.24Zm-4.65-3.09l1.11-3.88c.27-1.06,.57-2.44,.81-3.53h.08c.27,1.06,.59,2.44,.89,3.53l1.13,3.88h-4.02Zm12.93,7.79h11.34v-3.47h-7.24v-14.82h-4.11v18.3Zm19.25-18.3v18.3h4.11v-18.3h-4.11Zm11.45,18.3v-5.51c0-2.99-.05-5.56-.19-8.01h.11c.86,2.14,2.08,4.48,3.16,6.46l3.89,7.06h4.32v-18.3h-3.78v5.32c0,2.77,.08,5.24,.32,7.66h-.05c-.84-2.06-1.89-4.34-2.97-6.27l-3.78-6.71h-4.81v18.3h3.78Zm27.6-3.77c-.84,.35-2.19,.6-3.46,.6-3.65,0-5.81-2.31-5.81-5.95,0-4.07,2.54-6.05,5.78-6.05,1.49,0,2.65,.33,3.46,.68l.86-3.28c-.73-.35-2.35-.79-4.48-.79-5.51,0-9.94,3.45-9.94,9.66,0,5.21,3.24,9.17,9.53,9.17,2.19,0,3.92-.43,4.65-.79l-.59-3.26Zm5.29,4.07c1.46,0,2.43-1.06,2.43-2.5-.03-1.52-1-2.52-2.4-2.52s-2.43,1.03-2.43,2.52,1,2.5,2.38,2.5h.03Z"/>
</svg>