<?xml version="1.0" encoding="UTF-8" standalone="no"?>
<svg
   xmlns:dc="http://purl.org/dc/elements/1.1/"
   xmlns:cc="http://creativecommons.org/ns#"
   xmlns:rdf="http://www.w3.org/1999/02/22-rdf-syntax-ns#"
   xmlns:svg="http://www.w3.org/2000/svg"
   xmlns="http://www.w3.org/2000/svg"
   xmlns:sodipodi="http://sodipodi.sourceforge.net/DTD/sodipodi-0.dtd"
   xmlns:inkscape="http://www.inkscape.org/namespaces/inkscape"
   id="Layer_1"
   data-name="Layer 1"
   viewBox="0 0 160.63001 160.63"
   version="1.1"
   sodipodi:docname="rotogran-logo-small.svg"
   width="160.63"
   height="160.63"
   inkscape:version="1.0.1 (3bc2e813f5, 2020-09-07)">
  <metadata
     id="metadata81">
    <rdf:RDF>
      <cc:Work
         rdf:about="">
        <dc:format>image/svg+xml</dc:format>
        <dc:type
           rdf:resource="http://purl.org/dc/dcmitype/StillImage" />
        <dc:title></dc:title>
      </cc:Work>
    </rdf:RDF>
  </metadata>
  <sodipodi:namedview
     pagecolor="#ffffff"
     bordercolor="#666666"
     borderopacity="1"
     objecttolerance="10"
     gridtolerance="10"
     guidetolerance="10"
     inkscape:pageopacity="0"
     inkscape:pageshadow="2"
     inkscape:window-width="1920"
     inkscape:window-height="1051"
     id="namedview79"
     showgrid="false"
     inkscape:zoom="1.8671052"
     inkscape:cx="325.37"
     inkscape:cy="164.93798"
     inkscape:window-x="-9"
     inkscape:window-y="-9"
     inkscape:window-maximized="1"
     inkscape:current-layer="Layer_1" />
  <defs
     id="defs4">
    <style
       id="style2">
      .cls-1 {
        fill: #fff;
      }

      .cls-2 {
        fill: #dd1f2e;
      }

      .cls-3 {
        fill: none;
      }
    </style>
  </defs>
  <g
     id="g74"
     transform="translate(-74.056097)">
    <path
       class="cls-2"
       d="m 90.82,73.07 h 45.68 v 7.77 H 88.16 c 0,0 1.68,-5.62 2.66,-7.77 z"
       id="path8" />
    <path
       class="cls-2"
       d="m 145.11,73.07 h 25.96 c 0,0 -1.34,5.95 -14.57,7.78 h -11.39 z"
       id="path10" />
    <path
       class="cls-2"
       d="m 222.11,73.07 c 0,0 -0.55,4.84 -1.35,7.77 h -47.43 c 0,0 5.32,-3.98 6.37,-7.77 z"
       id="path12" />
    <path
       class="cls-2"
       d="m 96.21,63.15 h 40.29 v 7.77 H 91.8 c 0,0 2.43,-4.98 4.41,-7.77 z"
       id="path14" />
    <path
       class="cls-2"
       d="m 145.11,63.15 h 28.03 c 0,0 0.15,5.62 -0.96,7.77 h -27.07 z"
       id="path16" />
    <path
       class="cls-2"
       d="m 104.03,53.52 h 67.28 c 0,0 1.7,2.78 1.83,7.55 H 145.11 V 57.3 h -8.62 v 3.77 c 0,0 -38.8,-0.07 -38.8,-0.07 0,0 4.63,-6.09 6.33,-7.47 z"
       id="path18" />
    <path
       class="cls-2"
       d="m 220.95,53.52 c 0,0 0.99,4.8 1.21,7.47 L 181,61.16 c 0,0 0.08,-1.3 -0.48,-4.07 -0.56,-2.77 -0.83,-3.58 -0.83,-3.58 h 41.26 z"
       id="path20" />
    <path
       class="cls-2"
       d="m 162.28,47.18 c 0.4,0 0.8,0.04 1.19,0.13 0.81,0.19 2.22,0.6 3.29,1.33 1.14,0.78 2.19,1.33 3.01,2.72 h -63.52 c 0,0 2.54,-2.28 4.9,-4.18 h 51.14 z"
       id="path22" />
    <path
       class="cls-2"
       d="m 173.14,45.06 h 45.17 c 0,0 1.53,4.16 2.08,6.31 h -41.93 c 0,0 -1.21,-1.73 -2.52,-3.29 -1.14,-1.35 -2.38,-2.51 -2.8,-3.02 z"
       id="path24" />
    <path
       class="cls-2"
       d="m 108.22,36.59 h 106 c 0,0 2.31,4.16 3.2,6.31 h -47.67 c 0,0 -2.67,-1.87 -13.26,-1.95 l -38.72,-0.04 h -5.04 c -1.03,-1.29 -2.58,-2.97 -4.52,-4.32 z"
       id="path26" />
    <path
       class="cls-2"
       d="m 95.75,28.13 h 112.63 c 0,0 3.26,4.16 4.55,6.31 H 105.6 Z"
       id="path28" />
    <polygon
       class="cls-2"
       points="87.63,82.99 136.5,82.99 136.5,89.03 86.61,89.03 "
       id="polygon30" />
    <path
       class="cls-2"
       d="m 145.11,82.99 h 12.02 c 0,0 5.41,4.46 6.44,6.05 h -18.45 v -6.05 z"
       id="path32" />
    <path
       class="cls-2"
       d="m 218.11,89.03 -42.81,0.1 -6.3,-6.24 51.19,0.09 c 0,0 -1.16,3.89 -2.08,6.05 z"
       id="path34" />
    <path
       class="cls-2"
       d="m 86.42,91.18 h 50.08 v 7.77 H 86.39 c 0,0 -0.16,-5.62 0.03,-7.77 z"
       id="path36" />
    <path
       class="cls-2"
       d="m 145.11,91.18 h 21.33 c 0,0 6.18,5.62 7.26,7.77 h -28.59 z"
       id="path38" />
    <path
       class="cls-2"
       d="m 177.11,91.18 h 40.08 c 0,0 -2.15,5.12 -4.15,7.77 h -29.08 z"
       id="path40" />
    <path
       class="cls-2"
       d="m 86.58,101.11 h 49.92 v 6.94 H 87.75 c 0,0 -0.9,-3.49 -1.17,-6.94 z"
       id="path42" />
    <polygon
       class="cls-2"
       points="145.11,101.11 175.33,101.11 180.55,108.04 145.11,108.04 "
       id="polygon44" />
    <polygon
       class="cls-2"
       points="185.86,101.11 211.37,101.11 206.93,108.04 191.75,108.04 "
       id="polygon46" />
    <polygon
       class="cls-2"
       points="204.99,110.2 198.62,116.53 193.49,110.2 "
       id="polygon48" />
    <polygon
       class="cls-2"
       points="145.11,110.2 182.16,110.2 187.33,117.08 90.7,117.08 88.38,110.2 136.5,110.2 136.49,113.64 145.11,113.64 "
       id="polygon50" />
    <path
       class="cls-2"
       d="m 96.07,127.12 h 98.73 c 0,0 3.76,4.45 6.87,6.6 H 101.08 Z"
       id="path52" />
    <polygon
       class="cls-2"
       points="91.66,119.24 189.08,119.24 193.01,124.91 94.72,124.96 "
       id="polygon54" />
    <polygon
       class="cls-1"
       points="96.65,33.51 96.72,33.51 96.62,33.41 "
       id="polygon56" />
    <path
       class="cls-2"
       d="m 188.51,11.21 h -84.49 c -3.25,1.9 -6.32,4.01 -9.19,6.31 H 197.7 c -2.87,-2.3 -5.94,-4.41 -9.19,-6.31 z"
       id="path58" />
    <path
       class="cls-2"
       d="m 206.56,25.98 c -1.95,-2.22 -4.05,-4.33 -6.3,-6.31 H 92.27 c -1.88,1.65 -2.7,2.39 -4.38,4.21 1.61,0.54 2.81,1.18 4.41,2.11 h 114.26 z"
       id="path60" />
    <path
       class="cls-2"
       d="m 146.26,0 c -13.96,0 -27.04,3.31 -38.3,9.06 h 76.59 C 173.31,3.31 160.23,0 146.26,0 Z"
       id="path62" />
    <path
       class="cls-2"
       d="m 123.61,151.22 h 79.92 c 3.79,-1.94 7.36,-4.15 10.68,-6.6 H 112.93 c 3.33,2.45 6.89,4.66 10.68,6.6 z"
       id="path64" />
    <path
       class="cls-2"
       d="M 216.23,142.47 H 110.14 c -2.55,-2.06 -4.92,-4.27 -7.12,-6.6 h 101.76 c 5.32,3.91 11.45,6.6 11.45,6.6"
       id="path66" />
    <path
       class="cls-2"
       d="m 163.57,160.63 c 12.75,0 24.77,-2.63 35.37,-7.25 h -70.75 c 10.6,4.63 22.62,7.25 35.37,7.25 v 0 z"
       id="path68" />
    <path
       class="cls-3"
       d="m 136.5,60.2 v 0.87 L 97.7,61 c 0,0 3.26,-4.27 6.33,-7.47 h 67.28 c 0,0 1.66,3.28 1.83,7.55 h -28.03 v -0.87"
       id="path70" />
    <path
       class="cls-2"
       d="m 222.3,70.92 c 0,0 0.23,-5.62 0.04,-7.77 h -40.92 c 0,0 0.45,4.06 -0.6,7.77 z"
       id="path72" />
  </g>
</svg>
