<svg xmlns="http://www.w3.org/2000/svg" version="1.1" width="150" height="150" viewBox="0 0 150 150" style="fill-opacity: 0%"><path style="fill:#dd1f2e;stroke:#dd1f2e;stroke-width:.92804;stroke-opacity:1" d="M67.472.464C54.517.464 42.38 3.536 31.93 8.873h71.079C92.577 3.536 80.437.464 67.472.464ZM28.273 10.868a70.657 70.657 0 0 0-8.53 5.855h95.469a70.657 70.657 0 0 0-8.53-5.855zm-10.904 7.85c-1.745 1.532-2.507 2.22-4.066 3.908 1.494.502 2.608 1.095 4.093 1.958h106.038v-.01a64.472 64.472 0 0 0-5.848-5.856zm3.228 7.853 9.143 5.854h99.605c-1.198-1.995-4.222-5.854-4.222-5.854zm.808 4.899.028.092h.065zm10.756 2.95c1.8 1.254 3.239 2.813 4.195 4.01h4.678l35.932.037c9.828.074 12.306 1.81 12.306 1.81h44.24c-.826-1.995-2.97-5.856-2.97-5.856H32.17Zm60.258 7.862c.39.473 1.541 1.55 2.599 2.802a50.3 50.3 0 0 1 2.338 3.053h38.913c-.51-1.996-1.93-5.855-1.93-5.855zm-57.53 1.967c-2.19 1.763-4.548 3.879-4.548 3.879h58.951c-.761-1.29-1.737-1.8-2.795-2.524-.993-.677-2.3-1.058-3.052-1.234a4.902 4.902 0 0 0-1.095-.121Zm63.61 5.874s.25.752.77 3.323c.52 2.57.444 3.777.444 3.777l38.198-.158c-.204-2.477-1.122-6.933-1.122-6.933v-.009zm-70.217.01-.009.008c-1.577 1.281-5.874 6.933-5.874 6.933h.009l36.007.066v-.809l7.991.011v.807H92.42v-.01c-.12-4.426-1.699-7.007-1.699-7.007Zm-7.257 8.937c-1.838 2.59-4.093 7.21-4.093 7.21h41.483v-7.21zm45.381 0v7.21h25.12c1.031-1.995.893-7.21.893-7.21zm33.696 0s.418 3.768-.556 7.21h38.495s.213-5.215.037-7.21zm-84.08 9.206c-.91 1.996-2.469 7.21-2.469 7.21h44.862v-7.21zm50.384 0v7.22h10.57c12.278-1.699 13.521-7.22 13.521-7.22zm32.101 0c-.974 3.518-5.912 7.21-5.912 7.21h44.016c.743-2.718 1.254-7.21 1.254-7.21zm-9.931 9.114 5.847 5.791 39.73-.094c.854-2.005 1.93-5.614 1.93-5.614zm-75.514.092-.946 5.605h46.299v-5.605zm53.353 0v5.614h17.122c-.956-1.476-5.976-5.614-5.976-5.614Zm-54.477 7.6c-.176 1.996-.027 7.21-.027 7.21h46.504v-7.21zm54.468 0v7.21H92.94c-1.002-1.994-6.737-7.21-6.737-7.21zm29.698 0 6.356 7.21h26.988c1.856-2.458 3.852-7.21 3.852-7.21zm-84.017 9.216c.25 3.201 1.086 6.442 1.086 6.442h45.242v-6.442zm54.32 0v6.43h32.889l-4.845-6.43zm37.817 0 5.465 6.43h14.087l4.122-6.43zm-90.466 8.435 2.154 6.386h89.675l-4.798-6.386H66.406v3.194h-8l.009-3.194zm97.546 0 4.762 5.875 5.91-5.875zm-94.502 8.39 2.84 5.31 91.216-.047-3.647-5.262zm4.092 7.313 4.65 6.126h93.351c-2.886-1.995-6.375-6.126-6.375-6.126zm6.451 8.12a66.956 66.956 0 0 0 6.607 6.127h98.456s-5.688-2.498-10.626-6.127zm9.196 8.12a72.305 72.305 0 0 0 9.913 6.127h74.168a71.728 71.728 0 0 0 9.912-6.127zm14.163 8.132c9.837 4.297 20.991 6.728 32.824 6.728h.01c11.832 0 22.988-2.44 32.825-6.728z"/></svg>