<svg width="50mm" height="200mm" viewBox="0 0 50 200" xmlns="http://www.w3.org/2000/svg"><path style="color:#000;fill:#fff;stroke-width:1;stroke-linecap:round;stroke-linejoin:round;-inkscape-stroke:none" d="M7.916 9.098a5.5 5.5 0 0 1 .541.046 5.5 5.5 0 0 1 4.334 3.314l34.627 85.477a5.5 5.5 0 0 1 .313 1.32 5.5 5.5 0 0 1 .002.017 5.5 5.5 0 0 1 .045.728 5.5 5.5 0 0 1-.045.728 5.5 5.5 0 0 1-.002.016 5.5 5.5 0 0 1-.313 1.322l-34.627 85.476a5.5 5.5 0 0 1-4.334 3.314 5.5 5.5 0 0 1-5.861-7.445l33.792-83.41L2.596 16.588a5.5 5.5 0 0 1 5.32-7.491z"/></svg>