<svg xmlns="http://www.w3.org/2000/svg" width="105mm" height="105mm" viewBox="0 0 105 105"><path style="fill:none;stroke:#fff;stroke-width:1.99999998;stroke-opacity:1;stroke-miterlimit:4;stroke-dasharray:none" d="M320.125 10.186c-10.784.004-21.4 2.872-31.59 8.539-12.891 7.17-23.247 18.375-29.16 31.556-5.841 13.022-7.278 26.592-4.283 40.383L67.754 278.002a51.725 51.725 0 0 0-3.188-.102c-29.984 0-54.38 24.396-54.38 54.381 0 29.986 24.396 54.38 54.38 54.38 29.985 0 54.38-24.395 54.38-54.38 0-1.045-.035-2.103-.102-3.19l187.338-187.337c13.812 3 27.404 1.555 40.449-4.31 13.18-5.927 24.364-16.253 31.492-29.073 5.827-10.48 8.698-21.438 8.531-32.568a11.806 11.806 0 0 0-7.383-10.785 11.776 11.776 0 0 0-12.773 2.591l-25.004 25.004-28.963-7.761-7.76-28.961 25.518-25.518c3.37-3.37 4.379-8.215 2.635-12.643a11.872 11.872 0 0 0-10.639-7.507 61.156 61.156 0 0 0-2.16-.037zm-143.95.002v25.568a162.098 162.098 0 0 0-75.868 33.082L81.06 49.586 49.586 81.06l19.947 19.949a162.098 162.098 0 0 0-29.517 75.166H10.188v44.502h30.498a162.098 162.098 0 0 0 18.716 54.353c1.704-.153 3.427-.261 5.168-.261.638 0 1.276.037 1.92.062l28.248-28.246a117.603 117.603 0 0 1-11.45-50.627 117.603 117.603 0 0 1 117.13-117.604 117.603 117.603 0 0 1 .478 0 117.603 117.603 0 0 1 50.62 11.452l.402-.403c-2.596-13.76-1.224-27.424 4.594-40.406a69.204 69.204 0 0 1 2.232-4.459 162.098 162.098 0 0 0-38.066-9.467V10.193l-44.502-.005zm143.923 11.406c.594 0 1.19.01 1.787.031.126.004.316.011.424.287.086.22.009.297-.088.395l-27.846 27.845a5.703 5.703 0 0 0-1.477 5.51l9.465 35.324a5.706 5.706 0 0 0 4.033 4.034l35.325 9.464a5.706 5.706 0 0 0 5.51-1.476l27.333-27.332c.094-.094.18-.182.42-.084.257.104.26.253.262.383.139 9.235-2.182 18.019-7.094 26.853-5.942 10.687-15.245 19.283-26.199 24.21-11.771 5.292-23.57 6.245-36.07 2.91a5.708 5.708 0 0 0-5.504 1.476L108.9 322.902a5.703 5.703 0 0 0-1.636 4.653c.184 1.685.273 3.23.273 4.724 0 23.695-19.276 42.973-42.97 42.973-23.695 0-42.973-19.276-42.973-42.97 0-23.695 19.278-42.973 42.972-42.973 1.494 0 3.038.091 4.723.275a5.71 5.71 0 0 0 4.654-1.637L265.422 96.47a5.704 5.704 0 0 0 1.476-5.504c-3.33-12.482-2.386-24.262 2.885-36.014 4.912-10.95 13.54-20.275 24.295-26.256 8.584-4.773 17.11-7.107 26.02-7.101zm-4.303 27.992-7.451 7.463 6.761 25.244 24.39 6.537 7.775-7.77-31.475-31.474zm-40.848 2.193a162.098 162.098 0 0 1 .004.002l.002-.002h-.006zm.004.002c-.829 1.454-1.618 2.933-2.3 4.457-5.008 11.164-5.882 22.049-2.717 33.914a8.833 8.833 0 0 1-2.297 8.535l-.256.262a117.603 117.603 0 0 1 30.525 30.526l.256-.256a8.863 8.863 0 0 1 8.541-2.297c11.878 3.17 22.794 2.291 33.977-2.742a51.213 51.213 0 0 0 4.402-2.266 162.098 162.098 0 0 0-9.25-15.756l-30.238-8.103a8.854 8.854 0 0 1-6.252-6.25l-8.158-30.47a162.098 162.098 0 0 0-16.233-9.554zm-3.574 67.942a5.704 5.704 0 0 0-3.975 1.652l-6.084 6.086a5.704 5.704 0 0 0 0 8.066 5.684 5.684 0 0 0 4.034 1.67 5.684 5.684 0 0 0 4.033-1.67l6.084-6.086a5.704 5.704 0 0 0-4.092-9.718zm-18.106 18.193a5.704 5.704 0 0 0-4.12 1.713L121.376 267.402a5.704 5.704 0 0 0 4.033 9.737 5.684 5.684 0 0 0 4.033-1.67l127.774-127.774a5.704 5.704 0 0 0-3.946-9.779zm99.045.207a68.995 68.995 0 0 1-4.402 2.195c-13.001 5.844-26.685 7.216-40.465 4.62l-.4.402a117.603 117.603 0 0 1 11.451 50.619 117.603 117.603 0 0 1-117.604 117.615 117.603 117.603 0 0 1-50.626-11.451l-28.247 28.248c.026.638.063 1.3.063 1.926 0 1.741-.107 3.459-.254 5.162a162.098 162.098 0 0 0 54.344 18.717v30.492h44.504v-29.822a162.098 162.098 0 0 0 75.174-29.518l19.94 19.947 31.476-31.474-19.252-19.246a162.098 162.098 0 0 0 33.082-75.877h25.568v-44.502H361.77a162.098 162.098 0 0 0-9.454-38.053zm-248.43 124.32-27.724 27.725a8.886 8.886 0 0 1-5.32 2.539 162.098 162.098 0 0 0 .72.977 39.36 39.36 0 0 1 31.61 31.609 162.098 162.098 0 0 0 .988.72 8.801 8.801 0 0 1 2.528-5.32l27.724-27.724a117.603 117.603 0 0 1-30.525-30.526zm-39.32 33.711c-19.92 0-36.127 16.207-36.127 36.127s16.208 36.125 36.127 36.125c19.92 0 36.125-16.205 36.125-36.125s-16.205-36.127-36.125-36.127zm0 11.409c13.63 0 24.717 11.09 24.717 24.718 0 13.63-11.087 24.717-24.717 24.717-13.629 0-24.718-11.088-24.718-24.717s11.09-24.719 24.718-24.719zm.01 3.154c-5.582 0-10.614 2.17-14.441 5.627l30.377 30.377c3.464-3.828 5.627-8.866 5.627-14.442 0-11.929-9.634-21.562-21.563-21.562z" transform="scale(.26458)"/></svg>